<?xml version="1.0" encoding="UTF-8" standalone="no"?>
<!-- Created with Inkscape (http://www.inkscape.org/) -->

<svg
   xmlns:dc="http://purl.org/dc/elements/1.1/"
   xmlns:cc="http://creativecommons.org/ns#"
   xmlns:rdf="http://www.w3.org/1999/02/22-rdf-syntax-ns#"
   xmlns:svg="http://www.w3.org/2000/svg"
   xmlns="http://www.w3.org/2000/svg"
   xmlns:sodipodi="http://sodipodi.sourceforge.net/DTD/sodipodi-0.dtd"
   xmlns:inkscape="http://www.inkscape.org/namespaces/inkscape"
   width="744.09448819"
   height="1052.3622047"
   id="svg3435"
   version="1.1"
   inkscape:version="0.48.3.1 r9886"
   sodipodi:docname="blinklinkgem.svg">
  <defs
     id="defs3437" />
  <sodipodi:namedview
     id="base"
     pagecolor="#ffffff"
     bordercolor="#666666"
     borderopacity="1.0"
     inkscape:pageopacity="0.0"
     inkscape:pageshadow="2"
     inkscape:zoom="2.9845771"
     inkscape:cx="364.28571"
     inkscape:cy="648.57143"
     inkscape:document-units="px"
     inkscape:current-layer="layer1"
     showgrid="false"
     inkscape:window-width="1855"
     inkscape:window-height="1056"
     inkscape:window-x="65"
     inkscape:window-y="24"
     inkscape:window-maximized="1" />
  <metadata
     id="metadata3440">
    <rdf:RDF>
      <cc:Work
         rdf:about="">
        <dc:format>image/svg+xml</dc:format>
        <dc:type
           rdf:resource="http://purl.org/dc/dcmitype/StillImage" />
        <dc:title></dc:title>
      </cc:Work>
    </rdf:RDF>
  </metadata>
  <g
     inkscape:label="Layer 1"
     inkscape:groupmode="layer"
     id="layer1">
    <path
       id="path14"
       style="fill:none;stroke:#231f20;stroke-width:0.25374961;stroke-linecap:butt;stroke-linejoin:miter;stroke-miterlimit:10;stroke-opacity:1;stroke-dasharray:none"
       d="m 529.71782,395.4619 1.01011,10.87317"
       inkscape:connector-curvature="0" />
    <path
       id="path16"
       style="fill:none;stroke:#231f20;stroke-width:0.25374961;stroke-linecap:butt;stroke-linejoin:miter;stroke-miterlimit:10;stroke-opacity:1;stroke-dasharray:none"
       d="m 529.04441,401.00942 2.35393,-0.21946"
       inkscape:connector-curvature="0" />
    <path
       id="path18"
       style="fill:none;stroke:#231f20;stroke-width:0.25374961;stroke-linecap:butt;stroke-linejoin:miter;stroke-miterlimit:10;stroke-opacity:1;stroke-dasharray:none"
       d="m 529.71782,395.4619 -4.777,-4.35913"
       inkscape:connector-curvature="0" />
    <path
       id="path20"
       style="fill:none;stroke:#231f20;stroke-width:0.25374961;stroke-linecap:butt;stroke-linejoin:miter;stroke-miterlimit:10;stroke-opacity:1;stroke-dasharray:none"
       d="m 528.35597,392.62005 -1.59334,1.75327"
       inkscape:connector-curvature="0" />
    <path
       id="path22"
       style="fill:none;stroke:#231f20;stroke-width:0.25374961;stroke-linecap:butt;stroke-linejoin:miter;stroke-miterlimit:10;stroke-opacity:1;stroke-dasharray:none"
       d="m 527.88999,392.19496 -1.59634,1.74636"
       inkscape:connector-curvature="0" />
    <path
       id="path24"
       style="fill:none;stroke:#231f20;stroke-width:0.25374961;stroke-linecap:butt;stroke-linejoin:miter;stroke-miterlimit:10;stroke-opacity:1;stroke-dasharray:none"
       d="m 529.71782,395.4619 3.76087,-6.51644"
       inkscape:connector-curvature="0" />
    <path
       id="path26"
       style="fill:none;stroke:#231f20;stroke-width:0.25374961;stroke-linecap:butt;stroke-linejoin:miter;stroke-miterlimit:10;stroke-opacity:1;stroke-dasharray:none"
       d="m 532.30624,393.34457 -2.05631,-1.18027"
       inkscape:connector-curvature="0" />
    <path
       id="path28"
       style="fill:none;stroke:#231f20;stroke-width:0.25374961;stroke-linecap:butt;stroke-linejoin:miter;stroke-miterlimit:10;stroke-opacity:1;stroke-dasharray:none"
       d="m 532.6219,392.79502 -2.05029,-1.18358"
       inkscape:connector-curvature="0" />
    <path
       id="path30"
       style="fill:none;stroke:#231f20;stroke-width:0.25374961;stroke-linecap:butt;stroke-linejoin:miter;stroke-miterlimit:10;stroke-opacity:1;stroke-dasharray:none"
       d="m 532.94357,392.24547 -2.0533,-1.18268"
       inkscape:connector-curvature="0" />
    <path
       id="path32"
       style="fill:none;stroke:#231f20;stroke-width:0.25374961;stroke-linecap:butt;stroke-linejoin:miter;stroke-miterlimit:10;stroke-opacity:1;stroke-dasharray:none"
       d="m 589.9339,394.72686 -26.97849,46.73489"
       inkscape:connector-curvature="0" />
    <path
       id="path34"
       style="fill:none;stroke:#231f20;stroke-width:0.25374961;stroke-linecap:butt;stroke-linejoin:miter;stroke-miterlimit:10;stroke-opacity:1;stroke-dasharray:none"
       d="m 575.41951,417.503 2.05029,1.1849"
       inkscape:connector-curvature="0" />
    <path
       id="path36"
       style="fill:none;stroke:#231f20;stroke-width:0.25374961;stroke-linecap:butt;stroke-linejoin:miter;stroke-miterlimit:10;stroke-opacity:1;stroke-dasharray:none"
       d="M 589.9339,394.72686 562.95541,347.99762"
       inkscape:connector-curvature="0" />
    <path
       id="path38"
       style="fill:none;stroke:#231f20;stroke-width:0.25374961;stroke-linecap:butt;stroke-linejoin:miter;stroke-miterlimit:10;stroke-opacity:1;stroke-dasharray:none"
       d="m 577.62613,371.04628 -2.0503,1.18628"
       inkscape:connector-curvature="0" />
    <path
       id="path40"
       style="fill:none;stroke:#231f20;stroke-width:0.25374961;stroke-linecap:butt;stroke-linejoin:miter;stroke-miterlimit:10;stroke-opacity:1;stroke-dasharray:none"
       d="m 577.31047,370.49432 -2.0503,1.18839"
       inkscape:connector-curvature="0" />
    <path
       id="path42"
       style="fill:none;stroke:#231f20;stroke-width:0.25374961;stroke-linecap:butt;stroke-linejoin:miter;stroke-miterlimit:10;stroke-opacity:1;stroke-dasharray:none"
       d="m 589.9339,394.72686 -22.59531,8.82979"
       inkscape:connector-curvature="0" />
    <path
       id="path44"
       style="fill:none;stroke:#231f20;stroke-width:0.25374961;stroke-linecap:butt;stroke-linejoin:miter;stroke-miterlimit:10;stroke-opacity:1;stroke-dasharray:none"
       d="m 578.79558,397.80831 0.86581,2.20783"
       inkscape:connector-curvature="0" />
    <path
       id="path46"
       style="fill:none;stroke:#231f20;stroke-width:0.25374961;stroke-linecap:butt;stroke-linejoin:miter;stroke-miterlimit:10;stroke-opacity:1;stroke-dasharray:none"
       d="m 578.20634,398.03829 0.8598,2.20662"
       inkscape:connector-curvature="0" />
    <path
       id="path48"
       style="fill:none;stroke:#231f20;stroke-width:0.25374961;stroke-linecap:butt;stroke-linejoin:miter;stroke-miterlimit:10;stroke-opacity:1;stroke-dasharray:none"
       d="m 577.6141,398.26737 0.86281,2.21143"
       inkscape:connector-curvature="0" />
    <path
       id="path50"
       style="fill:none;stroke:#231f20;stroke-width:0.25374961;stroke-linecap:butt;stroke-linejoin:miter;stroke-miterlimit:10;stroke-opacity:1;stroke-dasharray:none"
       d="m 562.95541,441.46175 -53.96299,0"
       inkscape:connector-curvature="0" />
    <path
       id="path52"
       style="fill:none;stroke:#231f20;stroke-width:0.25374961;stroke-linecap:butt;stroke-linejoin:miter;stroke-miterlimit:10;stroke-opacity:1;stroke-dasharray:none"
       d="m 536.28958,440.2792 0,2.36864"
       inkscape:connector-curvature="0" />
    <path
       id="path54"
       style="fill:none;stroke:#231f20;stroke-width:0.25374961;stroke-linecap:butt;stroke-linejoin:miter;stroke-miterlimit:10;stroke-opacity:1;stroke-dasharray:none"
       d="m 535.65525,440.2792 0,2.36864"
       inkscape:connector-curvature="0" />
    <path
       id="path56"
       style="fill:none;stroke:#231f20;stroke-width:0.25374961;stroke-linecap:butt;stroke-linejoin:miter;stroke-miterlimit:10;stroke-opacity:1;stroke-dasharray:none"
       d="m 562.95541,441.46175 -3.65866,-23.97989"
       inkscape:connector-curvature="0" />
    <path
       id="path58"
       style="fill:none;stroke:#231f20;stroke-width:0.25374961;stroke-linecap:butt;stroke-linejoin:miter;stroke-miterlimit:10;stroke-opacity:1;stroke-dasharray:none"
       d="m 562.39023,429.91806 -2.34191,0.35935"
       inkscape:connector-curvature="0" />
    <path
       id="path60"
       style="fill:none;stroke:#231f20;stroke-width:0.25374961;stroke-linecap:butt;stroke-linejoin:miter;stroke-miterlimit:10;stroke-opacity:1;stroke-dasharray:none"
       d="m 562.29703,429.2945 -2.3419,0.357"
       inkscape:connector-curvature="0" />
    <path
       id="path62"
       style="fill:none;stroke:#231f20;stroke-width:0.25374961;stroke-linecap:butt;stroke-linejoin:miter;stroke-miterlimit:10;stroke-opacity:1;stroke-dasharray:none"
       d="m 562.20083,428.66504 -2.3419,0.35582"
       inkscape:connector-curvature="0" />
    <path
       id="path64"
       style="fill:none;stroke:#231f20;stroke-width:0.25374961;stroke-linecap:butt;stroke-linejoin:miter;stroke-miterlimit:10;stroke-opacity:1;stroke-dasharray:none"
       d="m 543.94661,365.7561 -18.45564,-0.86791"
       inkscape:connector-curvature="0" />
    <path
       id="path66"
       style="fill:none;stroke:#231f20;stroke-width:0.25374961;stroke-linecap:butt;stroke-linejoin:miter;stroke-miterlimit:10;stroke-opacity:1;stroke-dasharray:none"
       d="m 534.77441,364.13902 -0.11124,2.36866"
       inkscape:connector-curvature="0" />
    <path
       id="path68"
       style="fill:none;stroke:#231f20;stroke-width:0.25374961;stroke-linecap:butt;stroke-linejoin:miter;stroke-miterlimit:10;stroke-opacity:1;stroke-dasharray:none"
       d="m 543.94661,365.7561 -0.54113,18.6273"
       inkscape:connector-curvature="0" />
    <path
       id="path70"
       style="fill:none;stroke:#231f20;stroke-width:0.25374961;stroke-linecap:butt;stroke-linejoin:miter;stroke-miterlimit:10;stroke-opacity:1;stroke-dasharray:none"
       d="m 542.50058,374.72087 2.36596,0.0658"
       inkscape:connector-curvature="0" />
    <path
       id="path72"
       style="fill:none;stroke:#231f20;stroke-width:0.25374961;stroke-linecap:butt;stroke-linejoin:miter;stroke-miterlimit:10;stroke-opacity:1;stroke-dasharray:none"
       d="m 542.48555,375.35159 2.36295,0.0716"
       inkscape:connector-curvature="0" />
    <path
       id="path74"
       style="fill:none;stroke:#231f20;stroke-width:0.25374961;stroke-linecap:butt;stroke-linejoin:miter;stroke-miterlimit:10;stroke-opacity:1;stroke-dasharray:none"
       d="m 543.94661,365.7561 19.0088,-17.75848"
       inkscape:connector-curvature="0" />
    <path
       id="path76"
       style="fill:none;stroke:#231f20;stroke-width:0.25374961;stroke-linecap:butt;stroke-linejoin:miter;stroke-miterlimit:10;stroke-opacity:1;stroke-dasharray:none"
       d="m 553.79523,358.17453 -1.62039,-1.73223"
       inkscape:connector-curvature="0" />
    <path
       id="path78"
       style="fill:none;stroke:#231f20;stroke-width:0.25374961;stroke-linecap:butt;stroke-linejoin:miter;stroke-miterlimit:10;stroke-opacity:1;stroke-dasharray:none"
       d="m 554.26121,357.74102 -1.6204,-1.73193"
       inkscape:connector-curvature="0" />
    <path
       id="path80"
       style="fill:none;stroke:#231f20;stroke-width:0.25374961;stroke-linecap:butt;stroke-linejoin:miter;stroke-miterlimit:10;stroke-opacity:1;stroke-dasharray:none"
       d="m 554.72718,357.31022 -1.6234,-1.73343"
       inkscape:connector-curvature="0" />
    <path
       id="path82"
       style="fill:none;stroke:#231f20;stroke-width:0.25374961;stroke-linecap:butt;stroke-linejoin:miter;stroke-miterlimit:10;stroke-opacity:1;stroke-dasharray:none"
       d="m 525.49097,364.88819 -1.96011,16.02385"
       inkscape:connector-curvature="0" />
    <path
       id="path84"
       style="fill:none;stroke:#231f20;stroke-width:0.25374961;stroke-linecap:butt;stroke-linejoin:miter;stroke-miterlimit:10;stroke-opacity:1;stroke-dasharray:none"
       d="m 523.37153,372.4403 2.35092,0.29011"
       inkscape:connector-curvature="0" />
    <path
       id="path86"
       style="fill:none;stroke:#231f20;stroke-width:0.25374961;stroke-linecap:butt;stroke-linejoin:miter;stroke-miterlimit:10;stroke-opacity:1;stroke-dasharray:none"
       d="m 523.29637,373.07222 2.35093,0.28861"
       inkscape:connector-curvature="0" />
    <path
       id="path88"
       style="fill:none;stroke:#231f20;stroke-width:0.25374961;stroke-linecap:butt;stroke-linejoin:miter;stroke-miterlimit:10;stroke-opacity:1;stroke-dasharray:none"
       d="M 525.49097,364.88819 508.99242,347.99762"
       inkscape:connector-curvature="0" />
    <path
       id="path90"
       style="fill:none;stroke:#231f20;stroke-width:0.25374961;stroke-linecap:butt;stroke-linejoin:miter;stroke-miterlimit:10;stroke-opacity:1;stroke-dasharray:none"
       d="m 518.52839,356.06651 -1.68954,1.65828"
       inkscape:connector-curvature="0" />
    <path
       id="path92"
       style="fill:none;stroke:#231f20;stroke-width:0.25374961;stroke-linecap:butt;stroke-linejoin:miter;stroke-miterlimit:10;stroke-opacity:1;stroke-dasharray:none"
       d="m 518.08947,355.61317 -1.69555,1.65707"
       inkscape:connector-curvature="0" />
    <path
       id="path94"
       style="fill:none;stroke:#231f20;stroke-width:0.25374961;stroke-linecap:butt;stroke-linejoin:miter;stroke-miterlimit:10;stroke-opacity:1;stroke-dasharray:none"
       d="m 517.64755,355.15891 -1.69555,1.65557"
       inkscape:connector-curvature="0" />
    <path
       id="path96"
       style="fill:none;stroke:#231f20;stroke-width:0.25374961;stroke-linecap:butt;stroke-linejoin:miter;stroke-miterlimit:10;stroke-opacity:1;stroke-dasharray:none"
       d="m 530.72793,406.33507 -15.85219,9.79044"
       inkscape:connector-curvature="0" />
    <path
       id="path98"
       style="fill:none;stroke:#231f20;stroke-width:0.25374961;stroke-linecap:butt;stroke-linejoin:miter;stroke-miterlimit:10;stroke-opacity:1;stroke-dasharray:none"
       d="m 522.44559,410.05776 1.24461,2.01151"
       inkscape:connector-curvature="0" />
    <path
       id="path100"
       style="fill:none;stroke:#231f20;stroke-width:0.25374961;stroke-linecap:butt;stroke-linejoin:miter;stroke-miterlimit:10;stroke-opacity:1;stroke-dasharray:none"
       d="m 521.90446,410.38665 1.24761,2.01632"
       inkscape:connector-curvature="0" />
    <path
       id="path102"
       style="fill:none;stroke:#231f20;stroke-width:0.25374961;stroke-linecap:butt;stroke-linejoin:miter;stroke-miterlimit:10;stroke-opacity:1;stroke-dasharray:none"
       d="m 530.72793,406.33507 16.87133,1.08737"
       inkscape:connector-curvature="0" />
    <path
       id="path104"
       style="fill:none;stroke:#231f20;stroke-width:0.25374961;stroke-linecap:butt;stroke-linejoin:miter;stroke-miterlimit:10;stroke-opacity:1;stroke-dasharray:none"
       d="m 538.46012,408.0225 0.15032,-2.36505"
       inkscape:connector-curvature="0" />
    <path
       id="path106"
       style="fill:none;stroke:#231f20;stroke-width:0.25374961;stroke-linecap:butt;stroke-linejoin:miter;stroke-miterlimit:10;stroke-opacity:1;stroke-dasharray:none"
       d="m 539.09144,408.06369 0.15333,-2.36866"
       inkscape:connector-curvature="0" />
    <path
       id="path108"
       style="fill:none;stroke:#231f20;stroke-width:0.25374961;stroke-linecap:butt;stroke-linejoin:miter;stroke-miterlimit:10;stroke-opacity:1;stroke-dasharray:none"
       d="m 539.72577,408.10247 0.14731,-2.36145"
       inkscape:connector-curvature="0" />
    <path
       id="path110"
       style="fill:none;stroke:#231f20;stroke-width:0.25374961;stroke-linecap:butt;stroke-linejoin:miter;stroke-miterlimit:10;stroke-opacity:1;stroke-dasharray:none"
       d="M 514.87574,416.12551 504.88883,400.5726"
       inkscape:connector-curvature="0" />
    <path
       id="path112"
       style="fill:none;stroke:#231f20;stroke-width:0.25374961;stroke-linecap:butt;stroke-linejoin:miter;stroke-miterlimit:10;stroke-opacity:1;stroke-dasharray:none"
       d="m 510.87737,407.70894 -1.99618,1.27768"
       inkscape:connector-curvature="0" />
    <path
       id="path114"
       style="fill:none;stroke:#231f20;stroke-width:0.25374961;stroke-linecap:butt;stroke-linejoin:miter;stroke-miterlimit:10;stroke-opacity:1;stroke-dasharray:none"
       d="m 514.87574,416.12551 -5.88332,25.33624"
       inkscape:connector-curvature="0" />
    <path
       id="path116"
       style="fill:none;stroke:#231f20;stroke-width:0.25374961;stroke-linecap:butt;stroke-linejoin:miter;stroke-miterlimit:10;stroke-opacity:1;stroke-dasharray:none"
       d="m 510.91946,427.9076 2.30583,0.53431"
       inkscape:connector-curvature="0" />
    <path
       id="path118"
       style="fill:none;stroke:#231f20;stroke-width:0.25374961;stroke-linecap:butt;stroke-linejoin:miter;stroke-miterlimit:10;stroke-opacity:1;stroke-dasharray:none"
       d="m 510.77816,428.52648 2.30884,0.53551"
       inkscape:connector-curvature="0" />
    <path
       id="path120"
       style="fill:none;stroke:#231f20;stroke-width:0.25374961;stroke-linecap:butt;stroke-linejoin:miter;stroke-miterlimit:10;stroke-opacity:1;stroke-dasharray:none"
       d="m 510.63386,429.14301 2.30583,0.53431"
       inkscape:connector-curvature="0" />
    <path
       id="path122"
       style="fill:none;stroke:#231f20;stroke-width:0.25374961;stroke-linecap:butt;stroke-linejoin:miter;stroke-miterlimit:10;stroke-opacity:1;stroke-dasharray:none"
       d="m 523.53086,380.91204 3.78192,6.07602"
       inkscape:connector-curvature="0" />
    <path
       id="path124"
       style="fill:none;stroke:#231f20;stroke-width:0.25374961;stroke-linecap:butt;stroke-linejoin:miter;stroke-miterlimit:10;stroke-opacity:1;stroke-dasharray:none"
       d="m 524.41772,384.57701 2.01121,-1.25302"
       inkscape:connector-curvature="0" />
    <path
       id="path126"
       style="fill:none;stroke:#231f20;stroke-width:0.25374961;stroke-linecap:butt;stroke-linejoin:miter;stroke-miterlimit:10;stroke-opacity:1;stroke-dasharray:none"
       d="m 523.53086,380.91204 -5.74502,9.95113"
       inkscape:connector-curvature="0" />
    <path
       id="path128"
       style="fill:none;stroke:#231f20;stroke-width:0.25374961;stroke-linecap:butt;stroke-linejoin:miter;stroke-miterlimit:10;stroke-opacity:1;stroke-dasharray:none"
       d="m 519.94736,384.74747 2.0533,1.18237"
       inkscape:connector-curvature="0" />
    <path
       id="path130"
       style="fill:none;stroke:#231f20;stroke-width:0.25374961;stroke-linecap:butt;stroke-linejoin:miter;stroke-miterlimit:10;stroke-opacity:1;stroke-dasharray:none"
       d="m 519.63471,385.29221 2.04728,1.18598"
       inkscape:connector-curvature="0" />
    <path
       id="path132"
       style="fill:none;stroke:#231f20;stroke-width:0.25374961;stroke-linecap:butt;stroke-linejoin:miter;stroke-miterlimit:10;stroke-opacity:1;stroke-dasharray:none"
       d="m 519.31303,385.84537 2.0533,1.18357"
       inkscape:connector-curvature="0" />
    <path
       id="path134"
       style="fill:none;stroke:#231f20;stroke-width:0.25374961;stroke-linecap:butt;stroke-linejoin:miter;stroke-miterlimit:10;stroke-opacity:1;stroke-dasharray:none"
       d="m 527.31278,386.98806 6.16591,1.9574"
       inkscape:connector-curvature="0" />
    <path
       id="path136"
       style="fill:none;stroke:#231f20;stroke-width:0.25374961;stroke-linecap:butt;stroke-linejoin:miter;stroke-miterlimit:10;stroke-opacity:1;stroke-dasharray:none"
       d="m 529.73285,389.00077 0.72452,-2.26073"
       inkscape:connector-curvature="0" />
    <path
       id="path138"
       style="fill:none;stroke:#231f20;stroke-width:0.25374961;stroke-linecap:butt;stroke-linejoin:miter;stroke-miterlimit:10;stroke-opacity:1;stroke-dasharray:none"
       d="m 530.34012,389.19107 0.7155,-2.25713"
       inkscape:connector-curvature="0" />
    <path
       id="path140"
       style="fill:none;stroke:#231f20;stroke-width:0.25374961;stroke-linecap:butt;stroke-linejoin:miter;stroke-miterlimit:10;stroke-opacity:1;stroke-dasharray:none"
       d="m 527.31278,386.98806 -2.37196,4.11471"
       inkscape:connector-curvature="0" />
    <path
       id="path142"
       style="fill:none;stroke:#231f20;stroke-width:0.25374961;stroke-linecap:butt;stroke-linejoin:miter;stroke-miterlimit:10;stroke-opacity:1;stroke-dasharray:none"
       d="m 525.41882,387.90287 2.05029,1.18839"
       inkscape:connector-curvature="0" />
    <path
       id="path144"
       style="fill:none;stroke:#231f20;stroke-width:0.25374961;stroke-linecap:butt;stroke-linejoin:miter;stroke-miterlimit:10;stroke-opacity:1;stroke-dasharray:none"
       d="m 525.10015,388.45242 2.0533,1.18358"
       inkscape:connector-curvature="0" />
    <path
       id="path146"
       style="fill:none;stroke:#231f20;stroke-width:0.25374961;stroke-linecap:butt;stroke-linejoin:miter;stroke-miterlimit:10;stroke-opacity:1;stroke-dasharray:none"
       d="m 524.7875,389.00077 2.04728,1.18719"
       inkscape:connector-curvature="0" />
    <path
       id="path148"
       style="fill:none;stroke:#231f20;stroke-width:0.25374961;stroke-linecap:butt;stroke-linejoin:miter;stroke-miterlimit:10;stroke-opacity:1;stroke-dasharray:none"
       d="m 559.29675,417.48186 8.04184,-13.92521"
       inkscape:connector-curvature="0" />
    <path
       id="path150"
       style="fill:none;stroke:#231f20;stroke-width:0.25374961;stroke-linecap:butt;stroke-linejoin:miter;stroke-miterlimit:10;stroke-opacity:1;stroke-dasharray:none"
       d="m 564.34432,411.10756 -2.05029,-1.18027"
       inkscape:connector-curvature="0" />
    <path
       id="path152"
       style="fill:none;stroke:#231f20;stroke-width:0.25374961;stroke-linecap:butt;stroke-linejoin:miter;stroke-miterlimit:10;stroke-opacity:1;stroke-dasharray:none"
       d="M 559.29675,417.48186 547.59926,407.42244"
       inkscape:connector-curvature="0" />
    <path
       id="path154"
       style="fill:none;stroke:#231f20;stroke-width:0.25374961;stroke-linecap:butt;stroke-linejoin:miter;stroke-miterlimit:10;stroke-opacity:1;stroke-dasharray:none"
       d="m 554.46263,411.76173 -1.54223,1.79566"
       inkscape:connector-curvature="0" />
    <path
       id="path156"
       style="fill:none;stroke:#231f20;stroke-width:0.25374961;stroke-linecap:butt;stroke-linejoin:miter;stroke-miterlimit:10;stroke-opacity:1;stroke-dasharray:none"
       d="m 553.98162,411.34716 -1.54523,1.79566"
       inkscape:connector-curvature="0" />
    <path
       id="path158"
       style="fill:none;stroke:#231f20;stroke-width:0.25374961;stroke-linecap:butt;stroke-linejoin:miter;stroke-miterlimit:10;stroke-opacity:1;stroke-dasharray:none"
       d="M 567.33859,403.55665 552.7791,398.45767"
       inkscape:connector-curvature="0" />
    <path
       id="path160"
       style="fill:none;stroke:#231f20;stroke-width:0.25374961;stroke-linecap:butt;stroke-linejoin:miter;stroke-miterlimit:10;stroke-opacity:1;stroke-dasharray:none"
       d="m 560.7518,399.99479 -0.78465,2.23127"
       inkscape:connector-curvature="0" />
    <path
       id="path162"
       style="fill:none;stroke:#231f20;stroke-width:0.25374961;stroke-linecap:butt;stroke-linejoin:miter;stroke-miterlimit:10;stroke-opacity:1;stroke-dasharray:none"
       d="m 560.15054,399.78104 -0.78164,2.23969"
       inkscape:connector-curvature="0" />
    <path
       id="path164"
       style="fill:none;stroke:#231f20;stroke-width:0.25374961;stroke-linecap:butt;stroke-linejoin:miter;stroke-miterlimit:10;stroke-opacity:1;stroke-dasharray:none"
       d="m 504.88883,400.5726 12.89701,-9.70943"
       inkscape:connector-curvature="0" />
    <path
       id="path166"
       style="fill:none;stroke:#231f20;stroke-width:0.25374961;stroke-linecap:butt;stroke-linejoin:miter;stroke-miterlimit:10;stroke-opacity:1;stroke-dasharray:none"
       d="m 511.79429,396.85351 -1.42498,-1.89186"
       inkscape:connector-curvature="0" />
    <path
       id="path168"
       style="fill:none;stroke:#231f20;stroke-width:0.25374961;stroke-linecap:butt;stroke-linejoin:miter;stroke-miterlimit:10;stroke-opacity:1;stroke-dasharray:none"
       d="m 512.29935,396.47081 -1.42198,-1.88735"
       inkscape:connector-curvature="0" />
    <path
       id="path170"
       style="fill:none;stroke:#231f20;stroke-width:0.25374961;stroke-linecap:butt;stroke-linejoin:miter;stroke-miterlimit:10;stroke-opacity:1;stroke-dasharray:none"
       d="m 504.88883,400.5726 -22.8779,-5.84574"
       inkscape:connector-curvature="0" />
    <path
       id="path172"
       style="fill:none;stroke:#231f20;stroke-width:0.25374961;stroke-linecap:butt;stroke-linejoin:miter;stroke-miterlimit:10;stroke-opacity:1;stroke-dasharray:none"
       d="m 494.35778,396.65871 -0.58622,2.2968"
       inkscape:connector-curvature="0" />
    <path
       id="path174"
       style="fill:none;stroke:#231f20;stroke-width:0.25374961;stroke-linecap:butt;stroke-linejoin:miter;stroke-miterlimit:10;stroke-opacity:1;stroke-dasharray:none"
       d="m 493.74149,396.50478 -0.58623,2.29471"
       inkscape:connector-curvature="0" />
    <path
       id="path176"
       style="fill:none;stroke:#231f20;stroke-width:0.25374961;stroke-linecap:butt;stroke-linejoin:miter;stroke-miterlimit:10;stroke-opacity:1;stroke-dasharray:none"
       d="m 493.12821,396.34846 -0.58623,2.28899"
       inkscape:connector-curvature="0" />
    <path
       id="path178"
       style="fill:none;stroke:#231f20;stroke-width:0.25374961;stroke-linecap:butt;stroke-linejoin:miter;stroke-miterlimit:10;stroke-opacity:1;stroke-dasharray:none"
       d="m 517.78584,390.86317 7.15498,0.2396"
       inkscape:connector-curvature="0" />
    <path
       id="path180"
       style="fill:none;stroke:#231f20;stroke-width:0.25374961;stroke-linecap:butt;stroke-linejoin:miter;stroke-miterlimit:10;stroke-opacity:1;stroke-dasharray:none"
       d="m 521.32124,392.1667 0.0812,-2.36385"
       inkscape:connector-curvature="0" />
    <path
       id="path182"
       style="fill:none;stroke:#231f20;stroke-width:0.25374961;stroke-linecap:butt;stroke-linejoin:miter;stroke-miterlimit:10;stroke-opacity:1;stroke-dasharray:none"
       d="m 552.7791,398.45767 -5.17984,8.96477"
       inkscape:connector-curvature="0" />
    <path
       id="path184"
       style="fill:none;stroke:#231f20;stroke-width:0.25374961;stroke-linecap:butt;stroke-linejoin:miter;stroke-miterlimit:10;stroke-opacity:1;stroke-dasharray:none"
       d="m 549.16854,402.34692 2.0503,1.18267"
       inkscape:connector-curvature="0" />
    <path
       id="path186"
       style="fill:none;stroke:#231f20;stroke-width:0.25374961;stroke-linecap:butt;stroke-linejoin:miter;stroke-miterlimit:10;stroke-opacity:1;stroke-dasharray:none"
       d="M 552.7791,398.45767 543.40548,384.3834"
       inkscape:connector-curvature="0" />
    <path
       id="path188"
       style="fill:none;stroke:#231f20;stroke-width:0.25374961;stroke-linecap:butt;stroke-linejoin:miter;stroke-miterlimit:10;stroke-opacity:1;stroke-dasharray:none"
       d="m 549.43009,391.28826 -1.97213,1.31766"
       inkscape:connector-curvature="0" />
    <path
       id="path190"
       style="fill:none;stroke:#231f20;stroke-width:0.25374961;stroke-linecap:butt;stroke-linejoin:miter;stroke-miterlimit:10;stroke-opacity:1;stroke-dasharray:none"
       d="m 549.07535,390.76336 -1.97213,1.30954"
       inkscape:connector-curvature="0" />
    <path
       id="path192"
       style="fill:none;stroke:#231f20;stroke-width:0.25374961;stroke-linecap:butt;stroke-linejoin:miter;stroke-miterlimit:10;stroke-opacity:1;stroke-dasharray:none"
       d="m 548.72662,390.23395 -1.97514,1.31285"
       inkscape:connector-curvature="0" />
    <path
       id="path194"
       style="fill:none;stroke:#231f20;stroke-width:0.25374961;stroke-linecap:butt;stroke-linejoin:miter;stroke-miterlimit:10;stroke-opacity:1;stroke-dasharray:none"
       d="m 508.99242,347.99762 53.96299,0"
       inkscape:connector-curvature="0" />
    <path
       id="path196"
       style="fill:none;stroke:#231f20;stroke-width:0.25374961;stroke-linecap:butt;stroke-linejoin:miter;stroke-miterlimit:10;stroke-opacity:1;stroke-dasharray:none"
       d="m 535.97392,349.1815 0,-2.36986"
       inkscape:connector-curvature="0" />
    <path
       id="path198"
       style="fill:none;stroke:#231f20;stroke-width:0.25374961;stroke-linecap:butt;stroke-linejoin:miter;stroke-miterlimit:10;stroke-opacity:1;stroke-dasharray:none"
       d="m 508.99242,347.99762 -26.98149,46.72924"
       inkscape:connector-curvature="0" />
    <path
       id="path200"
       style="fill:none;stroke:#231f20;stroke-width:0.25374961;stroke-linecap:butt;stroke-linejoin:miter;stroke-miterlimit:10;stroke-opacity:1;stroke-dasharray:none"
       d="m 494.63136,370.49432 2.0563,1.18839"
       inkscape:connector-curvature="0" />
    <path
       id="path202"
       style="fill:none;stroke:#231f20;stroke-width:0.25374961;stroke-linecap:butt;stroke-linejoin:miter;stroke-miterlimit:10;stroke-opacity:1;stroke-dasharray:none"
       d="m 494.31269,371.04628 2.0563,1.18628"
       inkscape:connector-curvature="0" />
    <path
       id="path204"
       style="fill:none;stroke:#231f20;stroke-width:0.25374961;stroke-linecap:butt;stroke-linejoin:miter;stroke-miterlimit:10;stroke-opacity:1;stroke-dasharray:none"
       d="m 482.01093,394.72686 26.98149,46.73489"
       inkscape:connector-curvature="0" />
    <path
       id="path206"
       style="fill:none;stroke:#231f20;stroke-width:0.25374961;stroke-linecap:butt;stroke-linejoin:miter;stroke-miterlimit:10;stroke-opacity:1;stroke-dasharray:none"
       d="m 494.47202,418.6879 2.0533,-1.1849"
       inkscape:connector-curvature="0" />
    <path
       id="path208"
       style="fill:none;stroke:#231f20;stroke-width:0.25374961;stroke-linecap:butt;stroke-linejoin:miter;stroke-miterlimit:10;stroke-opacity:1;stroke-dasharray:none"
       d="m 533.47869,388.94546 9.92679,-4.56206"
       inkscape:connector-curvature="0" />
    <path
       id="path210"
       style="fill:none;stroke:#231f20;stroke-width:0.25374961;stroke-linecap:butt;stroke-linejoin:miter;stroke-miterlimit:10;stroke-opacity:1;stroke-dasharray:none"
       d="m 538.93512,387.74294 -0.98907,-2.15612"
       inkscape:connector-curvature="0" />
    <path
       id="path212"
       style="fill:#231f20;fill-opacity:1;fill-rule:evenodd;stroke:none"
       d="m 529.71782,395.4619 1.18448,0 c 0,0.65297 -0.53512,1.18268 -1.18448,1.18268 -0.65537,0 -1.18749,-0.52971 -1.18749,-1.18268 0,-0.65417 0.53212,-1.18358 1.18749,-1.18358 0.64936,0 1.18448,0.52941 1.18448,1.18358 l -1.18448,0"
       inkscape:connector-curvature="0" />
    <path
       id="path214"
       style="fill:#231f20;fill-opacity:1;fill-rule:evenodd;stroke:none"
       d="m 589.9339,394.72686 1.18748,0 c 0,0.65507 -0.53512,1.18358 -1.18748,1.18358 -0.65237,0 -1.18148,-0.52851 -1.18148,-1.18358 0,-0.65297 0.52911,-1.17787 1.18148,-1.17787 0.65236,0 1.18748,0.5249 1.18748,1.17787 l -1.18748,0"
       inkscape:connector-curvature="0" />
    <path
       id="path216"
       style="fill:#231f20;fill-opacity:1;fill-rule:evenodd;stroke:none"
       d="m 562.95541,441.46175 1.18448,0 c 0,0.65412 -0.53211,1.18609 -1.18448,1.18609 -0.65838,0 -1.18448,-0.53197 -1.18448,-1.18609 0,-0.65408 0.5261,-1.18255 1.18448,-1.18255 0.65237,0 1.18448,0.52847 1.18448,1.18255 l -1.18448,0"
       inkscape:connector-curvature="0" />
    <path
       id="path218"
       style="fill:#231f20;fill-opacity:1;fill-rule:evenodd;stroke:none"
       d="m 543.94661,365.7561 1.18749,0 c 0,0.65177 -0.53212,1.18719 -1.18749,1.18719 -0.65237,-0.002 -1.18147,-0.53542 -1.18147,-1.18719 0,-0.65417 0.5291,-1.18267 1.18147,-1.18267 0.65537,0 1.18749,0.5285 1.18749,1.18267 l -1.18749,0"
       inkscape:connector-curvature="0" />
    <path
       id="path220"
       style="fill:#231f20;fill-opacity:1;fill-rule:evenodd;stroke:none"
       d="m 525.49097,364.88819 1.18448,0 c 0,0.65627 -0.53212,1.18598 -1.18448,1.18598 -0.65537,0 -1.18448,-0.52971 -1.18448,-1.18598 0,-0.65417 0.52911,-1.18388 1.18448,-1.18388 0.65236,0 1.18448,0.52971 1.18448,1.18388 l -1.18448,0"
       inkscape:connector-curvature="0" />
    <path
       id="path222"
       style="fill:#231f20;fill-opacity:1;fill-rule:evenodd;stroke:none"
       d="m 530.72793,406.33507 1.18448,0 c 0,0.65537 -0.53211,1.18959 -1.18448,1.18959 -0.65236,0 -1.18448,-0.53422 -1.18448,-1.18959 0,-0.65417 0.53212,-1.18599 1.18448,-1.18599 0.65237,0 1.18448,0.53182 1.18448,1.18599 l -1.18448,0"
       inkscape:connector-curvature="0" />
    <path
       id="path224"
       style="fill:#231f20;fill-opacity:1;fill-rule:evenodd;stroke:none"
       d="m 514.87574,416.12551 1.17546,0 c 0,0.65177 -0.5291,1.18373 -1.17546,1.18373 -0.65537,0 -1.18748,-0.53196 -1.18748,-1.18373 0,-0.65528 0.53211,-1.18613 1.18748,-1.18613 0.64636,0 1.17546,0.53085 1.17546,1.18613 l -1.17546,0"
       inkscape:connector-curvature="0" />
    <path
       id="path226"
       style="fill:#231f20;fill-opacity:1;fill-rule:evenodd;stroke:none"
       d="m 523.53086,380.91204 1.18448,0 c 0,0.65507 -0.53211,1.18838 -1.18448,1.18838 -0.65537,0 -1.18448,-0.53331 -1.18448,-1.18838 0,-0.65177 0.52911,-1.18268 1.18448,-1.18268 0.65237,0 1.18448,0.53091 1.18448,1.18268 l -1.18448,0"
       inkscape:connector-curvature="0" />
    <path
       id="path228"
       style="fill:#231f20;fill-opacity:1;fill-rule:evenodd;stroke:none"
       d="m 527.31278,386.98806 1.18749,0 c 0,0.65387 -0.52911,1.18237 -1.18749,1.18237 -0.64936,0 -1.18147,-0.5285 -1.18147,-1.18237 0,-0.65417 0.53211,-1.18749 1.18147,-1.18749 0.65838,0 1.18749,0.53332 1.18749,1.18749 l -1.18749,0"
       inkscape:connector-curvature="0" />
    <path
       id="path230"
       style="fill:#231f20;fill-opacity:1;fill-rule:evenodd;stroke:none"
       d="m 559.29675,417.48186 1.18749,0 c 0,0.65177 -0.53212,1.18256 -1.18749,1.18256 -0.65237,0 -1.18448,-0.53079 -1.18448,-1.18256 0,-0.65293 0.53211,-1.18607 1.18448,-1.18607 0.65537,0 1.18749,0.53314 1.18749,1.18607 l -1.18749,0"
       inkscape:connector-curvature="0" />
    <path
       id="path232"
       style="fill:#231f20;fill-opacity:1;fill-rule:evenodd;stroke:none"
       d="m 567.33859,403.55665 1.18448,0 c 0,0.65056 -0.52911,1.18358 -1.18448,1.18358 -0.65537,0 -1.18148,-0.53302 -1.18148,-1.18358 0,-0.65537 0.52611,-1.18508 1.18148,-1.18508 0.65537,0 1.18448,0.52971 1.18448,1.18508 l -1.18448,0"
       inkscape:connector-curvature="0" />
    <path
       id="path234"
       style="fill:#231f20;fill-opacity:1;fill-rule:evenodd;stroke:none"
       d="m 504.88883,400.5726 1.18448,0 c 0,0.65297 -0.53211,1.18027 -1.18448,1.18027 -0.65236,0 -1.18448,-0.5273 -1.18448,-1.18027 0,-0.65417 0.53212,-1.18598 1.18448,-1.18598 0.65237,0 1.18448,0.53181 1.18448,1.18598 l -1.18448,0"
       inkscape:connector-curvature="0" />
    <path
       id="path236"
       style="fill:#231f20;fill-opacity:1;fill-rule:evenodd;stroke:none"
       d="m 517.78584,390.86317 1.18448,0 c 0,0.65297 -0.52911,1.18508 -1.18448,1.18508 -0.65538,0 -1.18448,-0.53211 -1.18448,-1.18508 0,-0.65417 0.5291,-1.18358 1.18448,-1.18358 0.65537,0 1.18448,0.52941 1.18448,1.18358 l -1.18448,0"
       inkscape:connector-curvature="0" />
    <path
       id="path238"
       style="fill:#231f20;fill-opacity:1;fill-rule:evenodd;stroke:none"
       d="m 552.7791,398.45767 1.18749,0 c 0,0.65177 -0.53211,1.18358 -1.18749,1.18358 -0.65236,0 -1.18448,-0.53181 -1.18448,-1.18358 0,-0.65988 0.53212,-1.18839 1.18448,-1.18839 0.65538,0 1.18749,0.52851 1.18749,1.18839 l -1.18749,0"
       inkscape:connector-curvature="0" />
    <path
       id="path240"
       style="fill:#231f20;fill-opacity:1;fill-rule:evenodd;stroke:none"
       d="m 547.59926,407.42244 1.19049,0 c 0,0.65658 -0.52911,1.18719 -1.19049,1.18719 -0.64936,0 -1.18448,-0.53061 -1.18448,-1.18719 0,-0.65296 0.53512,-1.18358 1.18448,-1.18358 0.66138,0 1.19049,0.53062 1.19049,1.18358 l -1.19049,0"
       inkscape:connector-curvature="0" />
    <path
       id="path242"
       style="fill:#231f20;fill-opacity:1;fill-rule:evenodd;stroke:none"
       d="m 508.99242,347.99762 1.18148,0 c 0,0.65177 -0.5261,1.18388 -1.18148,1.18388 -0.65537,0 -1.18448,-0.53211 -1.18448,-1.18388 0,-0.65387 0.52911,-1.18598 1.18448,-1.18598 0.65538,0 1.18148,0.53211 1.18148,1.18598 l -1.18148,0"
       inkscape:connector-curvature="0" />
    <path
       id="path244"
       style="fill:#231f20;fill-opacity:1;fill-rule:evenodd;stroke:none"
       d="m 562.95541,347.99762 1.18448,0 c 0,0.65177 -0.53211,1.18388 -1.18448,1.18388 -0.65838,0 -1.18448,-0.53211 -1.18448,-1.18388 0,-0.65387 0.5261,-1.18598 1.18448,-1.18598 0.65237,0 1.18448,0.53211 1.18448,1.18598 l -1.18448,0"
       inkscape:connector-curvature="0" />
    <path
       id="path246"
       style="fill:#231f20;fill-opacity:1;fill-rule:evenodd;stroke:none"
       d="m 524.94082,391.10277 1.18147,0 c 0,0.65417 -0.52911,1.18719 -1.18147,1.18719 -0.65538,0 -1.18749,-0.53302 -1.18749,-1.18719 0,-0.65056 0.53211,-1.18478 1.18749,-1.18478 0.65236,0 1.18147,0.53422 1.18147,1.18478 l -1.18147,0"
       inkscape:connector-curvature="0" />
    <path
       id="path248"
       style="fill:#231f20;fill-opacity:1;fill-rule:evenodd;stroke:none"
       d="m 482.01093,394.72686 1.18147,0 c 0,0.65507 -0.5291,1.18358 -1.18147,1.18358 -0.65537,0 -1.18749,-0.52851 -1.18749,-1.18358 0,-0.65297 0.53212,-1.17787 1.18749,-1.17787 0.65237,0 1.18147,0.5249 1.18147,1.17787 l -1.18147,0"
       inkscape:connector-curvature="0" />
    <path
       id="path250"
       style="fill:#231f20;fill-opacity:1;fill-rule:evenodd;stroke:none"
       d="m 533.47869,388.94546 1.18448,0 c 0,0.65537 -0.53211,1.18387 -1.18448,1.18387 -0.65537,0 -1.18748,-0.5285 -1.18748,-1.18387 0,-0.65748 0.53211,-1.18358 1.18748,-1.18358 0.65237,0 1.18448,0.5261 1.18448,1.18358 l -1.18448,0"
       inkscape:connector-curvature="0" />
    <path
       id="path252"
       style="fill:#231f20;fill-opacity:1;fill-rule:evenodd;stroke:none"
       d="m 543.40548,384.3834 1.18147,0 c 0,0.65628 -0.52911,1.18719 -1.18147,1.18719 -0.65537,0 -1.18448,-0.53091 -1.18448,-1.18719 0,-0.65417 0.52911,-1.18147 1.18448,-1.18147 0.65236,0 1.18147,0.5273 1.18147,1.18147 l -1.18147,0"
       inkscape:connector-curvature="0" />
    <path
       id="path254"
       style="fill:#231f20;fill-opacity:1;fill-rule:evenodd;stroke:none"
       d="m 508.99242,441.46175 1.18148,0 c 0,0.65412 -0.5261,1.18609 -1.18148,1.18609 -0.65537,0 -1.18448,-0.53197 -1.18448,-1.18609 0,-0.65408 0.52911,-1.18255 1.18448,-1.18255 0.65538,0 1.18148,0.52847 1.18148,1.18255 l -1.18148,0"
       inkscape:connector-curvature="0" />
    <path
       id="path256"
       style="fill:none;stroke:#f79aaa;stroke-width:0.64935964;stroke-linecap:butt;stroke-linejoin:miter;stroke-miterlimit:2.61313009;stroke-opacity:1;stroke-dasharray:none"
       d="m 529.71782,395.4619 c 30.96483,-4.18657 51.04087,-4.42947 60.21908,-0.73504"
       inkscape:connector-curvature="0" />
    <path
       id="path258"
       style="fill:none;stroke:#f79aaa;stroke-width:0.64935964;stroke-linecap:butt;stroke-linejoin:miter;stroke-miterlimit:2.61313009;stroke-opacity:1;stroke-dasharray:none"
       d="m 562.95541,441.46175 c 18.74725,-46.21931 12.40998,-71.45234 -19.0088,-75.70565"
       inkscape:connector-curvature="0" />
    <path
       id="path260"
       style="fill:none;stroke:#f79aaa;stroke-width:0.64935964;stroke-linecap:butt;stroke-linejoin:miter;stroke-miterlimit:2.61313009;stroke-opacity:1;stroke-dasharray:none"
       d="m 525.49097,364.88819 c -18.39552,21.09817 -16.64585,34.91179 5.23696,41.44688"
       inkscape:connector-curvature="0" />
    <path
       id="path262"
       style="fill:none;stroke:#f79aaa;stroke-width:0.64935964;stroke-linecap:butt;stroke-linejoin:miter;stroke-miterlimit:2.61313009;stroke-opacity:1;stroke-dasharray:none"
       d="m 514.87574,416.12551 c -10.77756,-29.0647 -7.89152,-40.80458 8.65512,-35.21347"
       inkscape:connector-curvature="0" />
    <path
       id="path264"
       style="fill:none;stroke:#f79aaa;stroke-width:0.64935964;stroke-linecap:butt;stroke-linejoin:miter;stroke-miterlimit:2.61313009;stroke-opacity:1;stroke-dasharray:none"
       d="m 559.29675,417.48186 c 5.7781,-40.69897 -4.87922,-50.86265 -31.98397,-30.49861"
       inkscape:connector-curvature="0" />
    <path
       id="path266"
       style="fill:none;stroke:#f79aaa;stroke-width:0.64935964;stroke-linecap:butt;stroke-linejoin:miter;stroke-miterlimit:2.61313009;stroke-opacity:1;stroke-dasharray:none"
       d="m 567.33859,403.55665 c -18.37748,19.62897 -39.19306,18.63782 -62.45276,-2.98405"
       inkscape:connector-curvature="0" />
    <path
       id="path268"
       style="fill:none;stroke:#f79aaa;stroke-width:0.64935964;stroke-linecap:butt;stroke-linejoin:miter;stroke-miterlimit:2.61313009;stroke-opacity:1;stroke-dasharray:none"
       d="m 517.78584,390.86317 c 1.85488,7.70724 13.5193,10.23914 34.99326,7.5945"
       inkscape:connector-curvature="0" />
    <path
       id="path270"
       style="fill:none;stroke:#f79aaa;stroke-width:0.64935964;stroke-linecap:butt;stroke-linejoin:miter;stroke-miterlimit:2.61313009;stroke-opacity:1;stroke-dasharray:none"
       d="M 547.59926,407.42244 C 537.99415,371.11332 524.8356,351.02526 508.15367,347.15916"
       inkscape:connector-curvature="0" />
    <path
       id="path272"
       style="fill:none;stroke:#f79aaa;stroke-width:0.64935964;stroke-linecap:butt;stroke-linejoin:miter;stroke-miterlimit:2.61313009;stroke-opacity:1;stroke-dasharray:none"
       d="m 524.94082,391.10277 c -22.33377,-23.51373 -9.65923,-37.88502 38.01459,-43.10515"
       inkscape:connector-curvature="0" />
    <path
       id="path274"
       style="fill:none;stroke:#f79aaa;stroke-width:0.64935964;stroke-linecap:butt;stroke-linejoin:miter;stroke-miterlimit:2.61313009;stroke-opacity:1;stroke-dasharray:none"
       d="m 533.47869,388.94546 c -23.7858,23.10157 -40.93972,25.03101 -51.46776,5.7814"
       inkscape:connector-curvature="0" />
    <path
       id="path276"
       style="fill:none;stroke:#f79aaa;stroke-width:0.64935964;stroke-linecap:butt;stroke-linejoin:miter;stroke-miterlimit:2.61313009;stroke-opacity:1;stroke-dasharray:none"
       d="m 508.99242,441.46175 c 13.20666,-2.06445 24.67567,-21.09102 34.41306,-57.07835"
       inkscape:connector-curvature="0" />
    <path
       id="path278"
       style="fill:none;stroke:#231f20;stroke-width:2.19324803;stroke-linecap:butt;stroke-linejoin:miter;stroke-miterlimit:10;stroke-opacity:1;stroke-dasharray:none"
       d="m 376.79153,394.72927 0,-12.78036"
       inkscape:connector-curvature="0" />
    <path
       id="path280"
       style="fill:none;stroke:#231f20;stroke-width:2.19324803;stroke-linecap:butt;stroke-linejoin:miter;stroke-miterlimit:10;stroke-opacity:1;stroke-dasharray:none"
       d="m 394.7857,394.72927 -13.3239,0"
       inkscape:connector-curvature="0" />
    <path
       id="path282"
       style="fill:none;stroke:#231f20;stroke-width:2.19324803;stroke-linecap:butt;stroke-linejoin:miter;stroke-miterlimit:10;stroke-opacity:1;stroke-dasharray:none"
       d="m 394.7857,394.72927 8.99664,0 c 8.99663,0 8.99663,0 8.99663,8.99753 0,8.99664 0,8.99664 0,17.99442 0,8.99658 0,8.99658 -17.99327,8.99658 -17.99417,0 -17.99417,0 -26.99081,0 -8.99664,0 -8.99664,0 -17.99328,0 -8.99753,0 -8.99753,0 -8.99753,-26.991 0,-26.99081 0,-26.99081 0,-35.98744 0,-8.99634 0,-8.99634 17.99417,-8.99634 17.99328,0 17.99328,0 17.99328,7.91708 l 0,4.86418"
       inkscape:connector-curvature="0" />
    <path
       id="path284"
       style="fill:none;stroke:#231f20;stroke-width:2.19324803;stroke-linecap:butt;stroke-linejoin:miter;stroke-miterlimit:10;stroke-opacity:1;stroke-dasharray:none"
       d="m 376.79153,394.72927 0,8.99753 c 0,8.99664 0,8.99664 8.99753,8.99664 8.99664,0 8.99664,0 8.99664,-7.91738 l 0,-5.76126"
       inkscape:connector-curvature="0" />
    <path
       id="path286"
       style="fill:none;stroke:#231f20;stroke-width:2.19324803;stroke-linecap:butt;stroke-linejoin:miter;stroke-miterlimit:10;stroke-opacity:1;stroke-dasharray:none"
       d="m 376.79153,376.73599 8.99753,0 c 8.99664,0 8.99664,0 8.99664,7.91738 l 0,5.76126"
       inkscape:connector-curvature="0" />
    <path
       id="path288"
       style="fill:none;stroke:#231f20;stroke-width:2.19324803;stroke-linecap:butt;stroke-linejoin:miter;stroke-miterlimit:10;stroke-opacity:1;stroke-dasharray:none"
       d="m 376.79153,376.73599 -8.99664,0 c -8.99664,0 -8.99664,0 -8.99664,8.99784 0,8.99544 0,8.99544 7.91738,8.99544 l 5.58509,0"
       inkscape:connector-curvature="0" />
    <path
       id="path290"
       style="fill:none;stroke:#00a650;stroke-width:3.00647473;stroke-linecap:butt;stroke-linejoin:miter;stroke-miterlimit:2.61313009;stroke-opacity:1;stroke-dasharray:none"
       d="m 185.22001,420.7007 34.05792,-52.53385 32.32939,52.53385 -66.38731,0 z"
       inkscape:connector-curvature="0" />
    <path
       id="path292"
       style="fill:#231f20;fill-opacity:1;fill-rule:evenodd;stroke:none"
       d="m 219.27793,364.34314 c 2.11162,0 3.82491,1.71239 3.82491,3.82371 0,2.11252 -1.71329,3.82731 -3.82491,3.82731 -2.11253,0 -3.82341,-1.71479 -3.82341,-3.82731 0,-2.11132 1.71088,-3.82371 3.82341,-3.82371"
       inkscape:connector-curvature="0" />
    <path
       id="path294"
       style="fill:none;stroke:#231f20;stroke-width:0.64935964;stroke-linecap:butt;stroke-linejoin:miter;stroke-miterlimit:2.61313009;stroke-opacity:1;stroke-dasharray:none"
       d="m 219.27793,364.34314 c 2.11162,0 3.82491,1.71239 3.82491,3.82371 0,2.11252 -1.71329,3.82731 -3.82491,3.82731 -2.11253,0 -3.82341,-1.71479 -3.82341,-3.82731 0,-2.11132 1.71088,-3.82371 3.82341,-3.82371 z"
       inkscape:connector-curvature="0" />
    <path
       id="path296"
       style="fill:#231f20;fill-opacity:1;fill-rule:evenodd;stroke:none"
       d="m 251.60732,416.87592 c 2.11282,0 3.8225,1.71334 3.8225,3.82478 0,2.1103 -1.70968,3.82248 -3.8225,3.82248 -2.11373,0 -3.82341,-1.71218 -3.82341,-3.82248 0,-2.11144 1.70968,-3.82478 3.82341,-3.82478"
       inkscape:connector-curvature="0" />
    <path
       id="path298"
       style="fill:none;stroke:#231f20;stroke-width:0.64935964;stroke-linecap:butt;stroke-linejoin:miter;stroke-miterlimit:2.61313009;stroke-opacity:1;stroke-dasharray:none"
       d="m 251.60732,416.87592 c 2.11282,0 3.8225,1.71334 3.8225,3.82478 0,2.1103 -1.70968,3.82248 -3.8225,3.82248 -2.11373,0 -3.82341,-1.71218 -3.82341,-3.82248 0,-2.11144 1.70968,-3.82478 3.82341,-3.82478 z"
       inkscape:connector-curvature="0" />
    <path
       id="path300"
       style="fill:#231f20;fill-opacity:1;fill-rule:evenodd;stroke:none"
       d="m 184.45433,417.46659 c 2.11382,0 3.82717,1.71338 3.82717,3.82599 0,2.11027 -1.71335,3.82365 -3.82717,3.82365 -2.1091,0 -3.82245,-1.71338 -3.82245,-3.82365 0,-2.11261 1.71335,-3.82599 3.82245,-3.82599"
       inkscape:connector-curvature="0" />
    <path
       id="path302"
       style="fill:none;stroke:#231f20;stroke-width:0.64935964;stroke-linecap:butt;stroke-linejoin:miter;stroke-miterlimit:2.61313009;stroke-opacity:1;stroke-dasharray:none"
       d="m 184.45433,417.46659 c 2.11382,0 3.82717,1.71338 3.82717,3.82599 0,2.11027 -1.71335,3.82365 -3.82717,3.82365 -2.1091,0 -3.82245,-1.71338 -3.82245,-3.82365 0,-2.11261 1.71335,-3.82599 3.82245,-3.82599 z"
       inkscape:connector-curvature="0" />
  </g>
</svg>
