<?xml version="1.0" encoding="UTF-8" standalone="no"?>
<!-- Created with Inkscape (http://www.inkscape.org/) -->

<svg
   xmlns:dc="http://purl.org/dc/elements/1.1/"
   xmlns:cc="http://creativecommons.org/ns#"
   xmlns:rdf="http://www.w3.org/1999/02/22-rdf-syntax-ns#"
   xmlns:svg="http://www.w3.org/2000/svg"
   xmlns="http://www.w3.org/2000/svg"
   xmlns:sodipodi="http://sodipodi.sourceforge.net/DTD/sodipodi-0.dtd"
   xmlns:inkscape="http://www.inkscape.org/namespaces/inkscape"
   id="svg2"
   version="1.1"
   inkscape:version="0.48.3.1 r9886"
   width="744.09448"
   height="1052.3622"
   xml:space="preserve"
   sodipodi:docname="doglikeblink.svg"><metadata
     id="metadata8"><rdf:RDF><cc:Work
         rdf:about=""><dc:format>image/svg+xml</dc:format><dc:type
           rdf:resource="http://purl.org/dc/dcmitype/StillImage" /><dc:title /></cc:Work></rdf:RDF></metadata><defs
     id="defs6" /><sodipodi:namedview
     pagecolor="#ffffff"
     bordercolor="#666666"
     borderopacity="1"
     objecttolerance="10"
     gridtolerance="10"
     guidetolerance="10"
     inkscape:pageopacity="0"
     inkscape:pageshadow="2"
     inkscape:window-width="1855"
     inkscape:window-height="1056"
     id="namedview4"
     showgrid="false"
     inkscape:zoom="1.7336223"
     inkscape:cx="399.67006"
     inkscape:cy="738.43611"
     inkscape:window-x="65"
     inkscape:window-y="24"
     inkscape:window-maximized="1"
     inkscape:current-layer="g10"
     inkscape:snap-global="true"
     inkscape:snap-bbox="true"
     inkscape:snap-object-midpoints="true"
     inkscape:snap-center="true"
     inkscape:snap-midpoints="true"
     inkscape:snap-smooth-nodes="true"
     inkscape:snap-nodes="true"
     inkscape:object-paths="true" /><g
     id="g10"
     inkscape:groupmode="layer"
     inkscape:label="dog-eps-converted-to"
     transform="matrix(1.25,0,0,-1.25,0,1052.3622)"><path
       inkscape:connector-curvature="0"
       id="path14"
       style="fill:#000000;stroke:#808080;stroke-width:2;stroke-linecap:butt;stroke-linejoin:miter;stroke-miterlimit:10;stroke-opacity:1;stroke-dasharray:none"
       d="m 263.06428,696.07408 -23.645,-17.3952" /><path
       inkscape:connector-curvature="0"
       id="path16"
       style="fill:#000000;stroke:#808080;stroke-width:2;stroke-linecap:butt;stroke-linejoin:miter;stroke-miterlimit:10;stroke-opacity:1;stroke-dasharray:none"
       d="m 239.40128,679.12258 -49.89439,-19.5082" /><path
       inkscape:connector-curvature="0"
       id="path18"
       style="fill:#000000;stroke:#808080;stroke-width:2;stroke-linecap:butt;stroke-linejoin:miter;stroke-miterlimit:8.35847378;stroke-opacity:1;stroke-dasharray:none"
       d="m 151.49749,686.32848 0.084,27.7226" /><path
       inkscape:connector-curvature="0"
       id="path20"
       style="fill:#000000;stroke:#808080;stroke-width:2;stroke-linecap:butt;stroke-linejoin:miter;stroke-miterlimit:8.35847378;stroke-opacity:1;stroke-dasharray:none"
       d="m 151.49749,686.32848 -38.18243,19.7826" /><path
       inkscape:connector-curvature="0"
       id="path22"
       style="fill:#000000;stroke:#808080;stroke-width:2;stroke-linecap:butt;stroke-linejoin:miter;stroke-miterlimit:8.35847378;stroke-opacity:1;stroke-dasharray:none"
       d="m 131.15649,722.60208 20.4261,-8.551" /><path
       inkscape:connector-curvature="0"
       id="path24"
       style="fill:#000000;stroke:#808080;stroke-width:2;stroke-linecap:butt;stroke-linejoin:miter;stroke-miterlimit:8.35847378;stroke-opacity:1;stroke-dasharray:none"
       d="m 113.31506,706.11108 17.84143,16.491" /><path
       inkscape:connector-curvature="0"
       id="path26"
       style="fill:#000000;stroke:#808080;stroke-width:2;stroke-linecap:butt;stroke-linejoin:miter;stroke-miterlimit:8.35847378;stroke-opacity:1;stroke-dasharray:none"
       d="m 151.49749,686.32968 -16.1281,-25.0114" /><path
       inkscape:connector-curvature="0"
       id="path28"
       style="fill:#000000;stroke:#808080;stroke-width:2;stroke-linecap:butt;stroke-linejoin:miter;stroke-miterlimit:8.35847378;stroke-opacity:1;stroke-dasharray:none"
       d="m 135.36939,661.31828 14.6004,-24.8234" /><path
       inkscape:connector-curvature="0"
       id="path30"
       style="fill:#000000;stroke:#808080;stroke-width:2;stroke-linecap:butt;stroke-linejoin:miter;stroke-miterlimit:10;stroke-opacity:1;stroke-dasharray:none"
       d="m 149.96979,636.49528 -1.0071,-16.9629" /><path
       inkscape:connector-curvature="0"
       id="path32"
       style="fill:#000000;stroke:#808080;stroke-width:2;stroke-linecap:butt;stroke-linejoin:miter;stroke-miterlimit:10;stroke-opacity:1;stroke-dasharray:none"
       d="m 148.96269,619.53238 -18.6285,-21.44999" /><path
       inkscape:connector-curvature="0"
       id="path34"
       style="fill:#000000;stroke:#808080;stroke-width:2;stroke-linecap:butt;stroke-linejoin:miter;stroke-miterlimit:10;stroke-opacity:1;stroke-dasharray:none"
       d="m 148.96269,619.53238 16.5117,-22.0203" /><path
       inkscape:connector-curvature="0"
       id="path36"
       style="fill:#000000;stroke:#808080;stroke-width:2;stroke-linecap:butt;stroke-linejoin:miter;stroke-miterlimit:10;stroke-opacity:1;stroke-dasharray:none"
       d="m 148.96269,619.53238 15.2375,-0.9644" /><path
       inkscape:connector-curvature="0"
       id="path38"
       style="fill:#000000;stroke:#808080;stroke-width:2;stroke-linecap:butt;stroke-linejoin:miter;stroke-miterlimit:10;stroke-opacity:1;stroke-dasharray:none"
       d="m 164.20059,618.56758 -14.2308,17.9277" /><path
       inkscape:connector-curvature="0"
       id="path40"
       style="fill:#000000;stroke:#808080;stroke-width:2;stroke-linecap:butt;stroke-linejoin:miter;stroke-miterlimit:10;stroke-opacity:1;stroke-dasharray:none"
       d="m 189.50689,659.61438 43.9034,-21.464" /><path
       inkscape:connector-curvature="0"
       id="path42"
       style="fill:#000000;stroke:#808080;stroke-width:1.6;stroke-linecap:butt;stroke-linejoin:miter;stroke-miterlimit:10;stroke-opacity:1;stroke-dasharray:none"
       d="m 233.68729,637.92688 -2.319,-18.0101" /><path
       inkscape:connector-curvature="0"
       id="path44"
       style="fill:#000000;stroke:#808080;stroke-width:1.6;stroke-linecap:butt;stroke-linejoin:miter;stroke-miterlimit:10;stroke-opacity:1;stroke-dasharray:none"
       d="m 231.54429,619.44488 -16.967,-20.52225" /><path
       inkscape:connector-curvature="0"
       id="path46"
       style="fill:#000000;stroke:#808080;stroke-width:1.6;stroke-linecap:butt;stroke-linejoin:miter;stroke-miterlimit:10;stroke-opacity:1;stroke-dasharray:none"
       d="m 231.36829,619.91758 7.70999,-20.65238" /><path
       inkscape:connector-curvature="0"
       id="path50"
       style="fill:#000000;stroke:#808080;stroke-width:1.6;stroke-linecap:butt;stroke-linejoin:miter;stroke-miterlimit:10;stroke-opacity:1;stroke-dasharray:none"
       d="m 253.09828,618.58438 8.449,-19.07113" /><path
       inkscape:connector-curvature="0"
       id="path52"
       style="fill:#000000;stroke:#808080;stroke-width:2;stroke-linecap:butt;stroke-linejoin:miter;stroke-miterlimit:10;stroke-opacity:1;stroke-dasharray:none"
       d="m 252.78628,618.89408 20.845,-19.60739" /><path
       inkscape:connector-curvature="0"
       id="path54"
       style="fill:#000000;stroke:#808080;stroke-width:1.6;stroke-linecap:butt;stroke-linejoin:miter;stroke-miterlimit:10;stroke-opacity:1;stroke-dasharray:none"
       d="m 253.09728,618.58478 -19.41099,19.3421" /><path
       inkscape:connector-curvature="0"
       id="path56"
       style="fill:#000000;stroke:#808080;stroke-width:1.6;stroke-linecap:butt;stroke-linejoin:miter;stroke-miterlimit:10;stroke-opacity:1;stroke-dasharray:none"
       d="m 233.41029,638.15038 32.28599,14.5004" /><path
       inkscape:connector-curvature="0"
       id="path58"
       style="fill:#000000;stroke:#808080;stroke-width:2;stroke-linecap:butt;stroke-linejoin:miter;stroke-miterlimit:10;stroke-opacity:1;stroke-dasharray:none"
       d="m 265.69628,652.65078 -26.295,26.4718" /><path
       inkscape:connector-curvature="0"
       id="path60"
       style="fill:#000000;stroke:#808080;stroke-width:2;stroke-linecap:butt;stroke-linejoin:miter;stroke-miterlimit:8.35847378;stroke-opacity:1;stroke-dasharray:none"
       d="m 151.49749,686.32968 38.0094,-26.7153" /><path
       inkscape:connector-curvature="0"
       id="path62"
       style="fill:#000000;stroke:#808080;stroke-width:2;stroke-linecap:butt;stroke-linejoin:miter;stroke-miterlimit:10;stroke-opacity:1;stroke-dasharray:none"
       d="m 263.04728,696.51808 16.967,8.382" /><path
       inkscape:connector-curvature="0"
       id="path64"
       style="fill:#000000;stroke:#808080;stroke-width:2;stroke-linecap:butt;stroke-linejoin:miter;stroke-miterlimit:10;stroke-opacity:1;stroke-dasharray:none"
       d="m 263.04728,696.51808 1.349,18.886" /><path
       inkscape:connector-curvature="0"
       id="path94"
       style="fill:#000000;stroke:#808080;stroke-width:2;stroke-linecap:butt;stroke-linejoin:miter;stroke-miterlimit:8.35847378;stroke-opacity:1;stroke-dasharray:none"
       d="m 113.31506,706.11108 18.36053,0.786" /><path
       inkscape:connector-curvature="0"
       id="path102"
       style="fill:#000000;stroke:#808080;stroke-width:2;stroke-linecap:butt;stroke-linejoin:miter;stroke-miterlimit:8.35847378;stroke-opacity:1;stroke-dasharray:none"
       d="m 149.96979,636.49488 39.5375,23.1195" /><path
       inkscape:connector-curvature="0"
       id="path182-8"
       style="fill:#231f20;fill-opacity:1;fill-rule:evenodd;stroke:none"
       d="m 275.3654,598.21687 c -0.6907,-0.90766 -1.98758,-1.08301 -2.89604,-0.39102 -0.90686,0.6907 -1.08237,1.98709 -0.39168,2.89492 0.6907,0.90781 1.98758,1.08236 2.89606,0.39101 0.90847,-0.6907 1.08236,-1.98709 0.39166,-2.89491" /><path
       d="m 263.18649,598.13529 c -0.6907,-0.90766 -1.98758,-1.08301 -2.89604,-0.39102 -0.90686,0.6907 -1.08237,1.98709 -0.39168,2.89492 0.6907,0.90781 1.98758,1.08236 2.89606,0.39101 0.90847,-0.6907 1.08236,-1.98709 0.39166,-2.89491"
       style="fill:#231f20;fill-opacity:1;fill-rule:evenodd;stroke:none"
       id="path3857"
       inkscape:connector-curvature="0" /><path
       inkscape:connector-curvature="0"
       id="path3859"
       style="fill:#231f20;fill-opacity:1;fill-rule:evenodd;stroke:none"
       d="m 240.78649,598.13529 c -0.6907,-0.90766 -1.98758,-1.08301 -2.89604,-0.39102 -0.90686,0.6907 -1.08237,1.98709 -0.39168,2.89492 0.6907,0.90781 1.98758,1.08236 2.89606,0.39101 0.90847,-0.6907 1.08236,-1.98709 0.39166,-2.89491" /><path
       d="m 216.78649,598.13529 c -0.6907,-0.90766 -1.98758,-1.08301 -2.89604,-0.39102 -0.90686,0.6907 -1.08237,1.98709 -0.39168,2.89492 0.6907,0.90781 1.98758,1.08236 2.89606,0.39101 0.90847,-0.6907 1.08236,-1.98709 0.39166,-2.89491"
       style="fill:#231f20;fill-opacity:1;fill-rule:evenodd;stroke:none"
       id="path3861"
       inkscape:connector-curvature="0" /><path
       d="m 254.44653,617.25471 c -0.6907,-0.90766 -1.98758,-1.08301 -2.89604,-0.39102 -0.90686,0.6907 -1.08237,1.98709 -0.39168,2.89492 0.6907,0.90781 1.98758,1.08236 2.89606,0.39101 0.90847,-0.6907 1.08236,-1.98709 0.39166,-2.89491"
       style="fill:#231f20;fill-opacity:1;fill-rule:evenodd;stroke:none"
       id="path3861-6"
       inkscape:connector-curvature="0" /><path
       d="m 233.1553,618.15205 c -0.6907,-0.90766 -1.98758,-1.08301 -2.89604,-0.39102 -0.90686,0.6907 -1.08237,1.98709 -0.39168,2.89492 0.6907,0.90781 1.98758,1.08236 2.89606,0.39101 0.90847,-0.6907 1.08236,-1.98709 0.39166,-2.89491"
       style="fill:#231f20;fill-opacity:1;fill-rule:evenodd;stroke:none"
       id="path3861-6-2"
       inkscape:connector-curvature="0" /><path
       d="m 235.1131,636.50657 c -0.6907,-0.90766 -1.98758,-1.08301 -2.89604,-0.39102 -0.90686,0.6907 -1.08237,1.98709 -0.39168,2.89492 0.6907,0.90781 1.98758,1.08236 2.89606,0.39101 0.90847,-0.6907 1.08236,-1.98709 0.39166,-2.89491"
       style="fill:#231f20;fill-opacity:1;fill-rule:evenodd;stroke:none"
       id="path3861-6-2-5"
       inkscape:connector-curvature="0" /><path
       d="m 266.80661,651.15944 c -0.6907,-0.90766 -1.98758,-1.08301 -2.89604,-0.39102 -0.90686,0.6907 -1.08237,1.98709 -0.39168,2.89492 0.6907,0.90781 1.98758,1.08236 2.89606,0.39101 0.90847,-0.6907 1.08236,-1.98709 0.39166,-2.89491"
       style="fill:#231f20;fill-opacity:1;fill-rule:evenodd;stroke:none"
       id="path3861-6-2-5-5"
       inkscape:connector-curvature="0" /><path
       d="m 241.04489,677.87075 c -0.6907,-0.90766 -1.98758,-1.08301 -2.89604,-0.39102 -0.90686,0.6907 -1.08237,1.98709 -0.39168,2.89492 0.6907,0.90781 1.98758,1.08236 2.89606,0.39101 0.90847,-0.6907 1.08236,-1.98709 0.39166,-2.89491"
       style="fill:#231f20;fill-opacity:1;fill-rule:evenodd;stroke:none"
       id="path3861-6-2-5-5-2"
       inkscape:connector-curvature="0" /><path
       d="m 264.69963,695.38852 c -0.6907,-0.90766 -1.98758,-1.08301 -2.89604,-0.39102 -0.90686,0.6907 -1.08237,1.98709 -0.39168,2.89492 0.6907,0.90781 1.98758,1.08236 2.89606,0.39101 0.90847,-0.6907 1.08236,-1.98709 0.39166,-2.89491"
       style="fill:#231f20;fill-opacity:1;fill-rule:evenodd;stroke:none"
       id="path3861-6-2-5-5-9"
       inkscape:connector-curvature="0" /><path
       d="m 266.01809,713.84697 c -0.6907,-0.90766 -1.98758,-1.08301 -2.89604,-0.39102 -0.90686,0.6907 -1.08237,1.98709 -0.39168,2.89492 0.6907,0.90781 1.98758,1.08236 2.89606,0.39101 0.90847,-0.6907 1.08236,-1.98709 0.39166,-2.89491"
       style="fill:#231f20;fill-opacity:1;fill-rule:evenodd;stroke:none"
       id="path3861-6-2-5-5-9-6"
       inkscape:connector-curvature="0" /><path
       d="m 281.65789,703.64825 c -0.6907,-0.90766 -1.98758,-1.08301 -2.89604,-0.39102 -0.90686,0.6907 -1.08237,1.98709 -0.39168,2.89492 0.6907,0.90781 1.98758,1.08236 2.89606,0.39101 0.90847,-0.6907 1.08236,-1.98709 0.39166,-2.89491"
       style="fill:#231f20;fill-opacity:1;fill-rule:evenodd;stroke:none"
       id="path3861-6-2-5-5-9-5"
       inkscape:connector-curvature="0" /><path
       d="m 190.59781,658.75101 c -0.6907,-0.90766 -1.98758,-1.08301 -2.89604,-0.39102 -0.90686,0.6907 -1.08237,1.98709 -0.39168,2.89492 0.6907,0.90781 1.98758,1.08236 2.89606,0.39101 0.90847,-0.6907 1.08236,-1.98709 0.39166,-2.89491"
       style="fill:#231f20;fill-opacity:1;fill-rule:evenodd;stroke:none"
       id="path3861-6-2-5-6"
       inkscape:connector-curvature="0" /><path
       inkscape:connector-curvature="0"
       id="path4003"
       style="fill:#231f20;fill-opacity:1;fill-rule:evenodd;stroke:none"
       d="m 137.013,660.06645 c -0.6907,-0.90766 -1.98758,-1.08301 -2.89604,-0.39102 -0.90686,0.6907 -1.08237,1.98709 -0.39168,2.89492 0.6907,0.90781 1.98758,1.08236 2.89606,0.39101 0.90847,-0.6907 1.08236,-1.98709 0.39166,-2.89491" /><path
       inkscape:connector-curvature="0"
       id="path4003-9"
       style="fill:#231f20;fill-opacity:1;fill-rule:evenodd;stroke:none"
       d="m 152.9654,684.80536 c -0.6907,-0.90766 -1.98758,-1.08301 -2.89604,-0.39102 -0.90686,0.6907 -1.08237,1.98709 -0.39168,2.89492 0.6907,0.90781 1.98758,1.08236 2.89606,0.39101 0.90847,-0.6907 1.08236,-1.98709 0.39166,-2.89491" /><path
       inkscape:connector-curvature="0"
       id="path4003-9-2"
       style="fill:#231f20;fill-opacity:1;fill-rule:evenodd;stroke:none"
       d="m 153.2262,712.79925 c -0.6907,-0.90766 -1.98758,-1.08301 -2.89604,-0.39102 -0.90686,0.6907 -1.08237,1.98709 -0.39168,2.89492 0.6907,0.90781 1.98758,1.08236 2.89606,0.39101 0.90847,-0.6907 1.08236,-1.98709 0.39166,-2.89491" /><path
       inkscape:connector-curvature="0"
       id="path4003-9-2-8"
       style="fill:#231f20;fill-opacity:1;fill-rule:evenodd;stroke:none"
       d="m 133.15223,721.20283 c -0.6907,-0.90766 -1.98758,-1.08301 -2.89604,-0.39102 -0.90686,0.6907 -1.08237,1.98709 -0.39168,2.89492 0.6907,0.90781 1.98758,1.08236 2.89606,0.39101 0.90847,-0.6907 1.08236,-1.98709 0.39166,-2.89491" /><path
       inkscape:connector-curvature="0"
       id="path4003-9-2-8-8"
       style="fill:#231f20;fill-opacity:1;fill-rule:evenodd;stroke:none"
       d="m 115.08433,704.97539 c -0.6907,-0.90766 -1.98758,-1.08301 -2.89604,-0.39102 -0.90686,0.6907 -1.08237,1.98709 -0.39168,2.89492 0.6907,0.90781 1.98758,1.08236 2.89606,0.39101 0.90847,-0.6907 1.08236,-1.98709 0.39166,-2.89491" /><path
       inkscape:connector-curvature="0"
       id="path4003-9-2-8-8-8"
       style="fill:#231f20;fill-opacity:1;fill-rule:evenodd;stroke:none"
       d="m 133.3192,705.64525 c -0.6907,-0.90766 -1.98758,-1.08301 -2.89604,-0.39102 -0.90686,0.6907 -1.08237,1.98709 -0.39168,2.89492 0.6907,0.90781 1.98758,1.08236 2.89606,0.39101 0.90847,-0.6907 1.08236,-1.98709 0.39166,-2.89491" /><path
       inkscape:connector-curvature="0"
       id="path4003-2"
       style="fill:#231f20;fill-opacity:1;fill-rule:evenodd;stroke:none"
       d="m 152.00592,635.47257 c -0.6907,-0.90766 -1.98758,-1.08301 -2.89604,-0.39102 -0.90686,0.6907 -1.08237,1.98709 -0.39168,2.89492 0.6907,0.90781 1.98758,1.08236 2.89606,0.39101 0.90847,-0.6907 1.08236,-1.98709 0.39166,-2.89491" /><path
       inkscape:connector-curvature="0"
       id="path4003-2-8"
       style="fill:#231f20;fill-opacity:1;fill-rule:evenodd;stroke:none"
       d="m 150.52116,618.18251 c -0.6907,-0.90766 -1.98758,-1.08301 -2.89604,-0.39102 -0.90686,0.6907 -1.08237,1.98709 -0.39168,2.89492 0.6907,0.90781 1.98758,1.08236 2.89606,0.39101 0.90847,-0.6907 1.08236,-1.98709 0.39166,-2.89491" /><path
       inkscape:connector-curvature="0"
       id="path4003-2-8-0"
       style="fill:#231f20;fill-opacity:1;fill-rule:evenodd;stroke:none"
       d="m 165.8442,617.31575 c -0.6907,-0.90766 -1.98758,-1.08301 -2.89604,-0.39102 -0.90686,0.6907 -1.08237,1.98709 -0.39168,2.89492 0.6907,0.90781 1.98758,1.08236 2.89606,0.39101 0.90847,-0.6907 1.08236,-1.98709 0.39166,-2.89491" /><path
       inkscape:connector-curvature="0"
       id="path4003-2-8-0-7"
       style="fill:#231f20;fill-opacity:1;fill-rule:evenodd;stroke:none"
       d="m 167.118,596.26025 c -0.6907,-0.90766 -1.98758,-1.08301 -2.89604,-0.39102 -0.90686,0.6907 -1.08237,1.98709 -0.39168,2.89492 0.6907,0.90781 1.98758,1.08236 2.89606,0.39101 0.90847,-0.6907 1.08236,-1.98709 0.39166,-2.89491" /><path
       inkscape:connector-curvature="0"
       id="path4003-2-8-0-7-2"
       style="fill:#231f20;fill-opacity:1;fill-rule:evenodd;stroke:none"
       d="m 131.9778,596.83056 c -0.6907,-0.90766 -1.98758,-1.08301 -2.89604,-0.39102 -0.90686,0.6907 -1.08237,1.98709 -0.39168,2.89492 0.6907,0.90781 1.98758,1.08236 2.89606,0.39101 0.90847,-0.6907 1.08236,-1.98709 0.39166,-2.89491" /></g></svg>