<?xml version="1.0" encoding="UTF-8" standalone="no"?>
<!-- Created with Inkscape (http://www.inkscape.org/) -->

<svg
   xmlns:dc="http://purl.org/dc/elements/1.1/"
   xmlns:cc="http://creativecommons.org/ns#"
   xmlns:rdf="http://www.w3.org/1999/02/22-rdf-syntax-ns#"
   xmlns:svg="http://www.w3.org/2000/svg"
   xmlns="http://www.w3.org/2000/svg"
   xmlns:sodipodi="http://sodipodi.sourceforge.net/DTD/sodipodi-0.dtd"
   xmlns:inkscape="http://www.inkscape.org/namespaces/inkscape"
   width="744.09448819"
   height="1052.3622047"
   id="svg3778"
   version="1.1"
   inkscape:version="0.48.3.1 r9886"
   sodipodi:docname="blackboardframedlinks.svg">
  <defs
     id="defs3780" />
  <sodipodi:namedview
     id="base"
     pagecolor="#ffffff"
     bordercolor="#666666"
     borderopacity="1.0"
     inkscape:pageopacity="0.0"
     inkscape:pageshadow="2"
     inkscape:zoom="1.3928917"
     inkscape:cx="312.36581"
     inkscape:cy="603.69281"
     inkscape:document-units="px"
     inkscape:current-layer="layer1"
     showgrid="false"
     inkscape:window-width="1855"
     inkscape:window-height="1056"
     inkscape:window-x="65"
     inkscape:window-y="24"
     inkscape:window-maximized="1" />
  <metadata
     id="metadata3783">
    <rdf:RDF>
      <cc:Work
         rdf:about="">
        <dc:format>image/svg+xml</dc:format>
        <dc:type
           rdf:resource="http://purl.org/dc/dcmitype/StillImage" />
        <dc:title></dc:title>
      </cc:Work>
    </rdf:RDF>
  </metadata>
  <g
     inkscape:label="Layer 1"
     inkscape:groupmode="layer"
     id="layer1">
    <path
       inkscape:connector-curvature="0"
       d="m 199.49496,512.74186 8.62875,3.7575 m 0,0 6.8625,3.88125 m 0,0 5.265,3.9375 m 0,0 3.83625,3.9375 m 0,0 2.57625,3.87 m 0,0 1.485,3.72375 m 0,0 0.54,3.52125 m 0,0 -0.21375,3.2625 m 0,0 -0.8325,2.93625 m 0,0 -1.3725,2.61 m 0,0 -1.83375,2.30625 m 0,0 -2.26125,2.0025 m 0,0 -2.59875,1.72125 m 0,0 -2.88,1.44 m 0,0 -3.105,1.17 m 0,0 -3.25125,0.9225 m 0,0 -3.375,0.675 m 0,0 -3.465,0.41625 m 0,0 -3.6,0.14625 m 0,0 -3.72375,-0.12375 m 0,0 -3.85875,-0.405 m 0,0 -4.01625,-0.70875 m 0,0 -4.185,-1.02375 m 0,0 -4.365,-1.33875 m 0,0 -4.51125,-1.6875 m 0,0 -4.46625,-2.19375 m 0,0 -4.2075,-2.8575 m 0,0 -3.70125,-3.67875 m 0,0 -2.98125,-4.6575 m 0,0 -2.025,-5.81625 m 0,0 -0.84375,-7.14375 m 0,0 0.57375,-8.6175 m 30.65625,-8.08875 -7.7625,-0.2025 m 0,0 -7.54875,0.405 m 0,0 -7.27875,0.945 m 0,0 -6.96375,1.4175 m 0,0 -6.62625,1.78875 m 0,0 -6.22125,2.10375 m 0,0 -5.77125,2.34 m 0,0 -5.29875,2.4975 m 0,0 -4.77,2.5875 m 0,0 -4.21875,2.64375 m 0,0 -3.6225,2.71125 m 0,0 -3.015,2.745 m 0,0 -2.3625,2.7675 m 0,0 -1.69875,2.77875 m 0,0 -0.97875,2.77875 m 0,0 -0.2475,2.75625 m 0,0 0.50625,2.7225 m 0,0 1.2375,2.64375 m 0,0 1.9125,2.55375 m 0,0 2.55375,2.43 m 0,0 3.16125,2.26125 m 0,0 3.7125,2.07 m 0,0 4.24125,1.845 m 0,0 4.7025,1.58625 m 0,0 5.13,1.29375 m 0,0 5.38875,0.945 m 0,0 5.5125,0.5625 m 0,0 5.445,0.12375 m 0,0 5.2425,-0.3825 m 0,0 4.86,-0.91125 m 0,0 4.32,-1.5075 m 0,0 3.6225,-2.14875"
       style="fill:none;stroke:#000000;stroke-width:2;stroke-linecap:round;stroke-linejoin:miter;stroke-miterlimit:10;stroke-opacity:1;stroke-dasharray:none"
       id="path54" />
    <path
       inkscape:connector-curvature="0"
       d="m 180.34746,551.57686 2.59875,-3.51 m 0,0 2.30625,-4.365 m 0,0 1.98,-5.00625 m 0,0 1.62,-5.445 m 0,0 1.24875,-5.70375 m 0,0 0.84375,-5.72625 m 0,0 0.405,-5.5575 m 0,0 -0.045,-5.18625 m 0,0 -0.5175,-4.64625 m 0,0 -0.9675,-4.0725 m 0,0 -1.3725,-3.465 m 0,0 -1.755,-2.8575 m 0,0 -2.0925,-2.23875 m 0,0 -2.385,-1.5975 m 0,0 -2.66625,-0.9675 m 0,0 -2.89125,-0.30375 m 0,0 -3.06,0.3375 m 0,0 -3.13875,0.95625 m 0,0 -3.06,1.49625 m 0,0 -2.84625,1.96875 m 0,0 -2.52,2.385 m 0,0 -2.03625,2.745 m 0,0 -1.4175,3.04875 m 0,0 -0.68625,3.2625 m 74.9475,20.0025 53.15625,0 m 0,0 -10.60875,5.29875 m 10.60875,-5.29875 -10.305,-5.1525 m -42.85125,1.40625 0,10.305 m 162.495,-29.8125 2.50875,0.48375 m 0,0 3.5775,1.06875 m 0,0 4.41,1.60875 m 0,0 5.00625,2.08125 m 0,0 5.36625,2.48625 m 0,0 5.47875,2.84625 m 0,0 5.34375,3.13875 m 0,0 4.98375,3.375 m 0,0 4.41,3.555 m 0,0 3.78,3.6675 m 0,0 3.09375,3.7575 m 0,0 2.41875,3.78 m 0,0 1.6875,3.74625 m 0,0 0.9225,3.65625 m 0,0 0.1575,3.52125 m 0,0 -0.66375,3.33 m 0,0 -1.485,3.105 m 0,0 -2.2275,2.8575 m 0,0 -2.88,2.59875 m 0,0 -3.4425,2.34 m 0,0 -3.90375,2.07 m 0,0 -4.28625,1.8 m 0,0 -4.55625,1.51875 m 0,0 -4.73625,1.2375 m 0,0 -4.84875,0.93375 m 0,0 -4.95,0.61875 m 0,0 -5.085,0.27 m 0,0 -5.22,-0.10125 m 0,0 -5.38875,-0.495 m 0,0 -5.58,-0.93375 m 0,0 -5.77125,-1.38375 m 0,0 -5.985,-1.8675 m 0,0 -6.17625,-2.39625 m 0,0 -6.12,-3.11625 m 0,0 -5.76,-4.05 m 0,0 -5.1075,-5.16375"
       style="fill:none;stroke:#000000;stroke-width:2;stroke-linecap:round;stroke-linejoin:miter;stroke-miterlimit:10;stroke-opacity:1;stroke-dasharray:none"
       id="path56" />
    <path
       inkscape:connector-curvature="0"
       d="m 354.30621,549.82186 -4.1625,-6.5025 m 0,0 -2.925,-8.04375 m 0,0 -1.395,-9.7875 m 0,0 0.45,-11.75625 m 49.635,-3.15 8.71875,3.825 m 0,0 7.09875,4.01625 m 0,0 5.625,4.14 m 0,0 4.2525,4.1625 m 0,0 3.00375,4.12875 m 0,0 1.89,3.9825 m 0,0 0.88875,3.76875 m 0,0 0.0113,3.465 m 0,0 -0.75375,3.09375 m 0,0 -1.42875,2.7225 m 0,0 -2.0025,2.385 m 0,0 -2.50875,2.05875 m 0,0 -2.925,1.74375 m 0,0 -3.24,1.4625 m 0,0 -3.4875,1.20375 m 0,0 -3.645,0.95625 m 0,0 -3.72375,0.72 m 0,0 -3.81375,0.4725 m 0,0 -3.915,0.21375 m 0,0 -4.01625,-0.0787 m 0,0 -4.15125,-0.39375 m 0,0 -4.28625,-0.70875 m 0,0 -4.44375,-1.06875 m 0,0 -4.60125,-1.44 m 0,0 -4.7475,-1.85625 m 0,0 -4.7025,-2.46375 m 0,0 -4.41,-3.285 m 0,0 -3.8925,-4.33125 m 0,0 -3.13875,-5.58 m 0,0 -2.14875,-7.05375 m 0,0 -0.9225,-8.7525 m 0,0 0.5175,-10.65375 m 23.59125,52.5825 -1.47375,1.3275 m 0,0 -1.81125,1.49625 m 0,0 -2.14875,1.58625 m 0,0 -2.48625,1.63125 m 0,0 -2.835,1.60875 m 0,0 -3.16125,1.51875 m 0,0 -3.52125,1.3725 m 0,0 -3.85875,1.1475 m 0,0 -4.19625,0.88875 m 0,0 -4.4775,0.585 m 0,0 -4.7025,0.27 m 0,0 -4.87125,-0.0788 m 0,0 -4.98375,-0.4275 m 0,0 -5.0175,-0.81 m 0,0 -5.00625,-1.20375 m 0,0 -4.91625,-1.62 m 0,0 -4.78125,-2.05875 m 0,0 -4.5225,-2.44125 m 0,0 -4.1625,-2.77875 m 0,0 -3.70125,-3.07125 m 0,0 -3.105,-3.31875 m 0,0 -2.41875,-3.49875 m 0,0 -1.60875,-3.65625 m 0,0 -0.68625,-3.735 m 0,0 0.315,-3.78 m 0,0 1.305,-3.81375 m 0,0 2.26125,-3.81375 m 0,0 3.195,-3.8025"
       style="fill:none;stroke:#000000;stroke-width:2;stroke-linecap:round;stroke-linejoin:miter;stroke-miterlimit:10;stroke-opacity:1;stroke-dasharray:none"
       id="path58" />
    <path
       inkscape:connector-curvature="0"
       d="m 297.22371,533.54311 4.095,-3.78 m 0,0 4.95,-3.735 m 0,0 5.7825,-3.65625 m 0,0 6.55875,-3.58875 m 0,0 7.3125,-3.465 m 0,0 7.93125,-3.2625 m 0,0 8.40375,-2.93625 m 0,0 8.74125,-2.50875"
       style="fill:none;stroke:#000000;stroke-width:2;stroke-linecap:round;stroke-linejoin:miter;stroke-miterlimit:10;stroke-opacity:1;stroke-dasharray:none"
       id="path60" />
    <path
       inkscape:connector-curvature="0"
       d="m 350.99871,506.61061 8.9325,-1.96875 m 0,0 8.9775,-1.3275 m 0,0 8.89875,-0.5625 m 0,0 8.67375,0.30375 m -20.12625,57.04875 -3.2625,2.025 m 0,0 -3.96,1.45125 m 0,0 -4.5,0.91125 m 0,0 -4.89375,0.405 m 0,0 -5.13,-0.0563 m 0,0 -5.22,-0.48375 m 0,0 -5.16375,-0.9 m 0,0 -4.93875,-1.26 m 0,0 -4.60125,-1.58625 m 0,0 -4.1625,-1.89 m 0,0 -3.70125,-2.14875 m 0,0 -3.1725,-2.37375 m 0,0 -2.59875,-2.55375 m 0,0 -1.9575,-2.7 m 0,0 -1.27125,-2.80125 m 0,0 -0.54,-2.86875 m 0,0 0.23625,-2.91375 m 0,0 1.0125,-2.93625 m 0,0 1.74375,-2.93625 m 0,0 2.46375,-2.925 m 0,0 3.13875,-2.9025 m 0,0 3.81375,-2.86875 m 0,0 4.44375,-2.82375 m 0,0 5.05125,-2.75625 m 0,0 5.63625,-2.66625 m 0,0 6.1875,-2.4975 m 0,0 6.69375,-2.23875 m 0,0 7.16625,-1.89 m 0,0 7.61625,-1.45125 m 0,0 8.0325,-0.91125 m 0,0 8.3925,-0.2925 m 0,0 8.73,0.4275 m -40.71375,-0.68625 1.3725,-6.9525 m 0,0 2.295,-6.03 m 0,0 3.07125,-5.11875 m 0,0 3.65625,-4.19625 m 0,0 4.05,-3.27375 m 0,0 4.2975,-2.34 m 0,0 4.3425,-1.40625 m 0,0 4.23,-0.4725 m 0,0 3.97125,0.46125 m 0,0 3.6225,1.38375 m 0,0 3.25125,2.2725 m 0,0 2.84625,3.1275 m 0,0 2.385,3.94875 m 0,0 1.89,4.77 m 0,0 1.36125,5.535 m 0,0 0.7875,6.28875 m 0,0 0.19125,6.975 m 0,0 -0.39375,7.4025 m 0,0 -0.95625,7.54875 m 0,0 -1.47375,7.425 m 0,0 -1.98,6.98625 m 0,0 -2.44125,6.28875 m 0,0 -2.89125,5.2875 m 0,0 -3.29625,4.005 m -29.4525,-52.16625 0.82125,-3.3075 m 0,0 1.5975,-3.11625 m 0,0 2.23875,-2.84625 m 0,0 2.7225,-2.48625"
       style="fill:none;stroke:#000000;stroke-width:2;stroke-linecap:round;stroke-linejoin:miter;stroke-miterlimit:10;stroke-opacity:1;stroke-dasharray:none"
       id="path62" />
    <path
       inkscape:connector-curvature="0"
       d="m 359.04246,493.99936 3.07125,-2.07 m 0,0 3.27375,-1.575 m 0,0 3.33,-1.00125 m 0,0 3.2625,-0.34875 m 0,0 3.0375,0.36 m 0,0 2.79,1.06875 m 0,0 2.50875,1.74375 m 0,0 2.1825,2.39625 m 0,0 1.83375,3.04875 m 0,0 1.4625,3.6675 m 0,0 1.04625,4.26375 m 0,0 0.6075,4.8375 m 0,0 0.135,5.36625 m 0,0 -0.37125,5.74875 m 0,0 -0.9,5.97375 m 0,0 -1.47375,6.03 m 0,0 -2.08125,5.90625 m 0,0 -2.7225,5.6025 m 0,0 -3.38625,5.16375 m 0,0 -4.08375,4.53375 m 23.9175,-44.0775 -2.0025,-0.50625"
       style="fill:none;stroke:#000000;stroke-width:2;stroke-linecap:round;stroke-linejoin:miter;stroke-miterlimit:10;stroke-opacity:1;stroke-dasharray:none"
       id="path64" />
  </g>
</svg>
