<?xml version="1.0" encoding="UTF-8" standalone="no"?>
<!-- Created with Inkscape (http://www.inkscape.org/) -->

<svg
   xmlns:ns0="http://www.iki.fi/pav/software/textext/"
   xmlns:dc="http://purl.org/dc/elements/1.1/"
   xmlns:cc="http://creativecommons.org/ns#"
   xmlns:rdf="http://www.w3.org/1999/02/22-rdf-syntax-ns#"
   xmlns:svg="http://www.w3.org/2000/svg"
   xmlns="http://www.w3.org/2000/svg"
   xmlns:xlink="http://www.w3.org/1999/xlink"
   xmlns:sodipodi="http://sodipodi.sourceforge.net/DTD/sodipodi-0.dtd"
   xmlns:inkscape="http://www.inkscape.org/namespaces/inkscape"
   width="744.09448819"
   height="1052.3622047"
   id="svg3267"
   version="1.1"
   inkscape:version="0.48.3.1 r9886"
   sodipodi:docname="eusclieans.svg">
  <sodipodi:namedview
     id="base"
     pagecolor="#ffffff"
     bordercolor="#666666"
     borderopacity="1.0"
     inkscape:pageopacity="0.0"
     inkscape:pageshadow="2"
     inkscape:zoom="3.1302992"
     inkscape:cx="354.87376"
     inkscape:cy="814.65417"
     inkscape:document-units="px"
     inkscape:current-layer="layer1"
     showgrid="false"
     inkscape:window-width="1855"
     inkscape:window-height="1056"
     inkscape:window-x="65"
     inkscape:window-y="24"
     inkscape:window-maximized="1"
     inkscape:snap-global="true"
     inkscape:snap-bbox="true"
     inkscape:snap-nodes="true"
     inkscape:object-paths="true"
     inkscape:snap-midpoints="true"
     inkscape:snap-object-midpoints="true"
     inkscape:snap-center="true" />
  <defs
     id="defs3269" />
  <metadata
     id="metadata3272">
    <rdf:RDF>
      <cc:Work
         rdf:about="">
        <dc:format>image/svg+xml</dc:format>
        <dc:type
           rdf:resource="http://purl.org/dc/dcmitype/StillImage" />
        <dc:title />
      </cc:Work>
    </rdf:RDF>
  </metadata>
  <g
     inkscape:label="Layer 1"
     inkscape:groupmode="layer"
     id="layer1">
    <g
       ns0:text="EUCLID$_0$"
       ns0:preamble=""
       transform="matrix(0.86586743,0,0,0.86586743,-2.15273,64.89672)"
       id="g4774">
      <defs
         id="defs4776">
        <g
           id="g4778">
          <symbol
             style="overflow:visible"
             overflow="visible"
             id="textext-391b8603-0">
            <path
               inkscape:connector-curvature="0"
               style="stroke:none"
               d=""
               id="path4781" />
          </symbol>
          <symbol
             style="overflow:visible"
             overflow="visible"
             id="textext-391b8603-1">
            <path
               inkscape:connector-curvature="0"
               style="stroke:none"
               d="m 1.359375,-0.78125 c 0,0.359375 -0.03125,0.46875 -0.796875,0.46875 l -0.234375,0 0,0.3125 5.75,0 L 6.5,-2.578125 l -0.25,0 C 6,-1.03125 5.765625,-0.3125 4.0625,-0.3125 l -1.328125,0 C 2.265625,-0.3125 2.25,-0.375 2.25,-0.703125 l 0,-2.671875 0.890625,0 c 0.96875,0 1.078125,0.328125 1.078125,1.171875 l 0.25,0 0,-2.640625 -0.25,0 c 0,0.859375 -0.109375,1.171875 -1.078125,1.171875 l -0.890625,0 0,-2.40625 c 0,-0.328125 0.015625,-0.390625 0.484375,-0.390625 l 1.28125,0 c 1.53125,0 1.796875,0.546875 1.953125,1.9375 l 0.25,0 -0.28125,-2.25 -5.609375,0 0,0.3125 0.234375,0 c 0.765625,0 0.796875,0.109375 0.796875,0.46875 z"
               id="path4784" />
          </symbol>
          <symbol
             style="overflow:visible"
             overflow="visible"
             id="textext-391b8603-2">
            <path
               inkscape:connector-curvature="0"
               style="stroke:none"
               d="m 5.796875,-2.296875 c 0,1.40625 -0.96875,2.203125 -1.90625,2.203125 -0.46875,0 -1.640625,-0.25 -1.640625,-2.140625 l 0,-3.796875 C 2.25,-6.390625 2.265625,-6.5 3.03125,-6.5 l 0.234375,0 0,-0.3125 c -0.34375,0.03125 -1.078125,0.03125 -1.46875,0.03125 -0.375,0 -1.125,0 -1.46875,-0.03125 l 0,0.3125 0.234375,0 c 0.765625,0 0.796875,0.109375 0.796875,0.46875 l 0,3.765625 c 0,1.390625 1.15625,2.484375 2.515625,2.484375 1.140625,0 2.03125,-0.921875 2.203125,-2.0625 0.03125,-0.203125 0.03125,-0.296875 0.03125,-0.6875 l 0,-3.1875 c 0,-0.328125 0,-0.78125 1.03125,-0.78125 l 0,-0.3125 c -0.359375,0.015625 -0.84375,0.03125 -1.171875,0.03125 -0.359375,0 -0.828125,-0.015625 -1.1875,-0.03125 l 0,0.3125 c 1.015625,0 1.015625,0.46875 1.015625,0.734375 z"
               id="path4787" />
          </symbol>
          <symbol
             style="overflow:visible"
             overflow="visible"
             id="textext-391b8603-3">
            <path
               inkscape:connector-curvature="0"
               style="stroke:none"
               d="m 0.5625,-3.40625 c 0,2.0625 1.609375,3.625 3.46875,3.625 1.625,0 2.59375,-1.390625 2.59375,-2.546875 C 6.625,-2.421875 6.625,-2.5 6.5,-2.5 6.390625,-2.5 6.390625,-2.4375 6.375,-2.328125 6.296875,-0.90625 5.234375,-0.09375 4.140625,-0.09375 c -0.609375,0 -2.5625,-0.328125 -2.5625,-3.3125 0,-2.96875 1.953125,-3.3125 2.5625,-3.3125 1.078125,0 1.96875,0.90625 2.171875,2.359375 0.015625,0.140625 0.015625,0.171875 0.15625,0.171875 0.15625,0 0.15625,-0.03125 0.15625,-0.234375 l 0,-2.359375 c 0,-0.171875 0,-0.25 -0.109375,-0.25 -0.03125,0 -0.078125,0 -0.15625,0.125 l -0.5,0.734375 C 5.5,-6.53125 4.984375,-7.03125 4.03125,-7.03125 c -1.875,0 -3.46875,1.59375 -3.46875,3.625 z"
               id="path4790" />
          </symbol>
          <symbol
             style="overflow:visible"
             overflow="visible"
             id="textext-391b8603-4">
            <path
               inkscape:connector-curvature="0"
               style="stroke:none"
               d="m 5.796875,-2.578125 -0.25,0 c -0.109375,1.015625 -0.25,2.265625 -2,2.265625 l -0.8125,0 C 2.265625,-0.3125 2.25,-0.375 2.25,-0.703125 l 0,-5.3125 C 2.25,-6.359375 2.25,-6.5 3.1875,-6.5 l 0.328125,0 0,-0.3125 C 3.15625,-6.78125 2.25,-6.78125 1.84375,-6.78125 c -0.390625,0 -1.171875,0 -1.515625,-0.03125 l 0,0.3125 0.234375,0 c 0.765625,0 0.796875,0.109375 0.796875,0.46875 l 0,5.25 c 0,0.359375 -0.03125,0.46875 -0.796875,0.46875 l -0.234375,0 0,0.3125 5.1875,0 z"
               id="path4793" />
          </symbol>
          <symbol
             style="overflow:visible"
             overflow="visible"
             id="textext-391b8603-5">
            <path
               inkscape:connector-curvature="0"
               style="stroke:none"
               d="M 2.25,-6.03125 C 2.25,-6.390625 2.265625,-6.5 3.0625,-6.5 l 0.25,0 0,-0.3125 c -0.34375,0.03125 -1.125,0.03125 -1.515625,0.03125 -0.375,0 -1.171875,0 -1.515625,-0.03125 l 0,0.3125 0.25,0 c 0.796875,0 0.828125,0.109375 0.828125,0.46875 l 0,5.25 c 0,0.359375 -0.03125,0.46875 -0.828125,0.46875 l -0.25,0 0,0.3125 c 0.34375,-0.03125 1.140625,-0.03125 1.515625,-0.03125 0.390625,0 1.171875,0 1.515625,0.03125 l 0,-0.3125 -0.25,0 C 2.265625,-0.3125 2.25,-0.421875 2.25,-0.78125 z"
               id="path4796" />
          </symbol>
          <symbol
             style="overflow:visible"
             overflow="visible"
             id="textext-391b8603-6">
            <path
               inkscape:connector-curvature="0"
               style="stroke:none"
               d="m 0.34375,-6.8125 0,0.3125 0.25,0 c 0.765625,0 0.78125,0.109375 0.78125,0.46875 l 0,5.25 c 0,0.359375 -0.015625,0.46875 -0.78125,0.46875 l -0.25,0 0,0.3125 L 4,0 C 5.671875,0 7.046875,-1.46875 7.046875,-3.34375 7.046875,-5.25 5.703125,-6.8125 4,-6.8125 z m 2.375,6.5 C 2.25,-0.3125 2.234375,-0.375 2.234375,-0.703125 l 0,-5.390625 C 2.234375,-6.4375 2.25,-6.5 2.71875,-6.5 l 1,0 c 0.625,0 1.3125,0.21875 1.8125,0.921875 0.4375,0.59375 0.515625,1.453125 0.515625,2.234375 0,1.09375 -0.1875,1.703125 -0.546875,2.1875 -0.203125,0.265625 -0.765625,0.84375 -1.765625,0.84375 z"
               id="path4799" />
          </symbol>
          <symbol
             style="overflow:visible"
             overflow="visible"
             id="textext-391b8603-7">
            <path
               inkscape:connector-curvature="0"
               style="stroke:none"
               d=""
               id="path4802" />
          </symbol>
          <symbol
             style="overflow:visible"
             overflow="visible"
             id="textext-391b8603-8">
            <path
               inkscape:connector-curvature="0"
               style="stroke:none"
               d="M 3.59375,-2.21875 C 3.59375,-2.984375 3.5,-3.546875 3.1875,-4.03125 2.96875,-4.34375 2.53125,-4.625 1.984375,-4.625 c -1.625,0 -1.625,1.90625 -1.625,2.40625 0,0.5 0,2.359375 1.625,2.359375 1.609375,0 1.609375,-1.859375 1.609375,-2.359375 z M 1.984375,-0.0625 c -0.328125,0 -0.75,-0.1875 -0.890625,-0.75 C 1,-1.21875 1,-1.796875 1,-2.3125 1,-2.828125 1,-3.359375 1.09375,-3.734375 1.25,-4.28125 1.6875,-4.4375 1.984375,-4.4375 c 0.375,0 0.734375,0.234375 0.859375,0.640625 0.109375,0.375 0.125,0.875 0.125,1.484375 0,0.515625 0,1.03125 -0.09375,1.46875 -0.140625,0.640625 -0.609375,0.78125 -0.890625,0.78125 z"
               id="path4805" />
          </symbol>
        </g>
      </defs>
      <g
         id="textext-391b8603-9">
        <g
           style="fill:#000000;fill-opacity:1"
           id="g4808">
          <use
             height="1052.3622"
             width="744.09448"
             xlink:href="#textext-391b8603-1"
             x="223.43201"
             y="134.765"
             id="use4810" />
          <use
             height="1052.3622"
             width="744.09448"
             xlink:href="#textext-391b8603-2"
             x="230.21254"
             y="134.765"
             id="use4812" />
          <use
             height="1052.3622"
             width="744.09448"
             xlink:href="#textext-391b8603-3"
             x="237.68449"
             y="134.765"
             id="use4814" />
          <use
             height="1052.3622"
             width="744.09448"
             xlink:href="#textext-391b8603-4"
             x="244.87949"
             y="134.765"
             id="use4816" />
          <use
             height="1052.3622"
             width="744.09448"
             xlink:href="#textext-391b8603-5"
             x="251.10611"
             y="134.765"
             id="use4818" />
          <use
             height="1052.3622"
             width="744.09448"
             xlink:href="#textext-391b8603-6"
             x="254.7036"
             y="134.765"
             id="use4820" />
        </g>
        <g
           style="fill:#000000;fill-opacity:1"
           id="g4822">
          <use
             height="1052.3622"
             width="744.09448"
             xlink:href="#textext-391b8603-8"
             x="262.314"
             y="136.259"
             id="use4824" />
        </g>
      </g>
    </g>
    <g
       id="g5314"
       transform="matrix(0.86586743,0,0,0.86586743,44.750282,64.993686)"
       ns0:preamble=""
       ns0:text="EUCLID$_2$">
      <defs
         id="defs5316">
        <g
           id="g5318">
          <symbol
             id="textext-f45d0745-0"
             overflow="visible"
             style="overflow:visible">
            <path
               id="path5321"
               d=""
               style="stroke:none"
               inkscape:connector-curvature="0" />
          </symbol>
          <symbol
             id="textext-f45d0745-1"
             overflow="visible"
             style="overflow:visible">
            <path
               id="path5324"
               d="m 1.359375,-0.78125 c 0,0.359375 -0.03125,0.46875 -0.796875,0.46875 l -0.234375,0 0,0.3125 5.75,0 L 6.5,-2.578125 l -0.25,0 C 6,-1.03125 5.765625,-0.3125 4.0625,-0.3125 l -1.328125,0 C 2.265625,-0.3125 2.25,-0.375 2.25,-0.703125 l 0,-2.671875 0.890625,0 c 0.96875,0 1.078125,0.328125 1.078125,1.171875 l 0.25,0 0,-2.640625 -0.25,0 c 0,0.859375 -0.109375,1.171875 -1.078125,1.171875 l -0.890625,0 0,-2.40625 c 0,-0.328125 0.015625,-0.390625 0.484375,-0.390625 l 1.28125,0 c 1.53125,0 1.796875,0.546875 1.953125,1.9375 l 0.25,0 -0.28125,-2.25 -5.609375,0 0,0.3125 0.234375,0 c 0.765625,0 0.796875,0.109375 0.796875,0.46875 z"
               style="stroke:none"
               inkscape:connector-curvature="0" />
          </symbol>
          <symbol
             id="textext-f45d0745-2"
             overflow="visible"
             style="overflow:visible">
            <path
               id="path5327"
               d="m 5.796875,-2.296875 c 0,1.40625 -0.96875,2.203125 -1.90625,2.203125 -0.46875,0 -1.640625,-0.25 -1.640625,-2.140625 l 0,-3.796875 C 2.25,-6.390625 2.265625,-6.5 3.03125,-6.5 l 0.234375,0 0,-0.3125 c -0.34375,0.03125 -1.078125,0.03125 -1.46875,0.03125 -0.375,0 -1.125,0 -1.46875,-0.03125 l 0,0.3125 0.234375,0 c 0.765625,0 0.796875,0.109375 0.796875,0.46875 l 0,3.765625 c 0,1.390625 1.15625,2.484375 2.515625,2.484375 1.140625,0 2.03125,-0.921875 2.203125,-2.0625 0.03125,-0.203125 0.03125,-0.296875 0.03125,-0.6875 l 0,-3.1875 c 0,-0.328125 0,-0.78125 1.03125,-0.78125 l 0,-0.3125 c -0.359375,0.015625 -0.84375,0.03125 -1.171875,0.03125 -0.359375,0 -0.828125,-0.015625 -1.1875,-0.03125 l 0,0.3125 c 1.015625,0 1.015625,0.46875 1.015625,0.734375 z"
               style="stroke:none"
               inkscape:connector-curvature="0" />
          </symbol>
          <symbol
             id="textext-f45d0745-3"
             overflow="visible"
             style="overflow:visible">
            <path
               id="path5330"
               d="m 0.5625,-3.40625 c 0,2.0625 1.609375,3.625 3.46875,3.625 1.625,0 2.59375,-1.390625 2.59375,-2.546875 C 6.625,-2.421875 6.625,-2.5 6.5,-2.5 6.390625,-2.5 6.390625,-2.4375 6.375,-2.328125 6.296875,-0.90625 5.234375,-0.09375 4.140625,-0.09375 c -0.609375,0 -2.5625,-0.328125 -2.5625,-3.3125 0,-2.96875 1.953125,-3.3125 2.5625,-3.3125 1.078125,0 1.96875,0.90625 2.171875,2.359375 0.015625,0.140625 0.015625,0.171875 0.15625,0.171875 0.15625,0 0.15625,-0.03125 0.15625,-0.234375 l 0,-2.359375 c 0,-0.171875 0,-0.25 -0.109375,-0.25 -0.03125,0 -0.078125,0 -0.15625,0.125 l -0.5,0.734375 C 5.5,-6.53125 4.984375,-7.03125 4.03125,-7.03125 c -1.875,0 -3.46875,1.59375 -3.46875,3.625 z"
               style="stroke:none"
               inkscape:connector-curvature="0" />
          </symbol>
          <symbol
             id="textext-f45d0745-4"
             overflow="visible"
             style="overflow:visible">
            <path
               id="path5333"
               d="m 5.796875,-2.578125 -0.25,0 c -0.109375,1.015625 -0.25,2.265625 -2,2.265625 l -0.8125,0 C 2.265625,-0.3125 2.25,-0.375 2.25,-0.703125 l 0,-5.3125 C 2.25,-6.359375 2.25,-6.5 3.1875,-6.5 l 0.328125,0 0,-0.3125 C 3.15625,-6.78125 2.25,-6.78125 1.84375,-6.78125 c -0.390625,0 -1.171875,0 -1.515625,-0.03125 l 0,0.3125 0.234375,0 c 0.765625,0 0.796875,0.109375 0.796875,0.46875 l 0,5.25 c 0,0.359375 -0.03125,0.46875 -0.796875,0.46875 l -0.234375,0 0,0.3125 5.1875,0 z"
               style="stroke:none"
               inkscape:connector-curvature="0" />
          </symbol>
          <symbol
             id="textext-f45d0745-5"
             overflow="visible"
             style="overflow:visible">
            <path
               id="path5336"
               d="M 2.25,-6.03125 C 2.25,-6.390625 2.265625,-6.5 3.0625,-6.5 l 0.25,0 0,-0.3125 c -0.34375,0.03125 -1.125,0.03125 -1.515625,0.03125 -0.375,0 -1.171875,0 -1.515625,-0.03125 l 0,0.3125 0.25,0 c 0.796875,0 0.828125,0.109375 0.828125,0.46875 l 0,5.25 c 0,0.359375 -0.03125,0.46875 -0.828125,0.46875 l -0.25,0 0,0.3125 c 0.34375,-0.03125 1.140625,-0.03125 1.515625,-0.03125 0.390625,0 1.171875,0 1.515625,0.03125 l 0,-0.3125 -0.25,0 C 2.265625,-0.3125 2.25,-0.421875 2.25,-0.78125 z"
               style="stroke:none"
               inkscape:connector-curvature="0" />
          </symbol>
          <symbol
             id="textext-f45d0745-6"
             overflow="visible"
             style="overflow:visible">
            <path
               id="path5339"
               d="m 0.34375,-6.8125 0,0.3125 0.25,0 c 0.765625,0 0.78125,0.109375 0.78125,0.46875 l 0,5.25 c 0,0.359375 -0.015625,0.46875 -0.78125,0.46875 l -0.25,0 0,0.3125 L 4,0 C 5.671875,0 7.046875,-1.46875 7.046875,-3.34375 7.046875,-5.25 5.703125,-6.8125 4,-6.8125 z m 2.375,6.5 C 2.25,-0.3125 2.234375,-0.375 2.234375,-0.703125 l 0,-5.390625 C 2.234375,-6.4375 2.25,-6.5 2.71875,-6.5 l 1,0 c 0.625,0 1.3125,0.21875 1.8125,0.921875 0.4375,0.59375 0.515625,1.453125 0.515625,2.234375 0,1.09375 -0.1875,1.703125 -0.546875,2.1875 -0.203125,0.265625 -0.765625,0.84375 -1.765625,0.84375 z"
               style="stroke:none"
               inkscape:connector-curvature="0" />
          </symbol>
          <symbol
             id="textext-f45d0745-7"
             overflow="visible"
             style="overflow:visible">
            <path
               id="path5342"
               d=""
               style="stroke:none"
               inkscape:connector-curvature="0" />
          </symbol>
          <symbol
             id="textext-f45d0745-8"
             overflow="visible"
             style="overflow:visible">
            <path
               id="path5345"
               d="m 3.515625,-1.265625 -0.234375,0 c -0.015625,0.15625 -0.09375,0.5625 -0.1875,0.625 -0.046875,0.046875 -0.578125,0.046875 -0.6875,0.046875 l -1.28125,0 c 0.734375,-0.640625 0.984375,-0.84375 1.390625,-1.171875 0.515625,-0.40625 1,-0.84375 1,-1.5 0,-0.84375 -0.734375,-1.359375 -1.625,-1.359375 -0.859375,0 -1.453125,0.609375 -1.453125,1.25 0,0.34375 0.296875,0.390625 0.375,0.390625 0.15625,0 0.359375,-0.125 0.359375,-0.375 0,-0.125 -0.046875,-0.375 -0.40625,-0.375 C 0.984375,-4.21875 1.453125,-4.375 1.78125,-4.375 c 0.703125,0 1.0625,0.546875 1.0625,1.109375 0,0.609375 -0.4375,1.078125 -0.65625,1.328125 L 0.515625,-0.265625 C 0.4375,-0.203125 0.4375,-0.1875 0.4375,0 l 2.875,0 z"
               style="stroke:none"
               inkscape:connector-curvature="0" />
          </symbol>
        </g>
      </defs>
      <g
         id="textext-f45d0745-9">
        <g
           id="g5348"
           style="fill:#000000;fill-opacity:1">
          <use
             id="use5350"
             y="134.765"
             x="223.43201"
             xlink:href="#textext-f45d0745-1"
             width="744.09448"
             height="1052.3622" />
          <use
             id="use5352"
             y="134.765"
             x="230.21254"
             xlink:href="#textext-f45d0745-2"
             width="744.09448"
             height="1052.3622" />
          <use
             id="use5354"
             y="134.765"
             x="237.68449"
             xlink:href="#textext-f45d0745-3"
             width="744.09448"
             height="1052.3622" />
          <use
             id="use5356"
             y="134.765"
             x="244.87949"
             xlink:href="#textext-f45d0745-4"
             width="744.09448"
             height="1052.3622" />
          <use
             id="use5358"
             y="134.765"
             x="251.10611"
             xlink:href="#textext-f45d0745-5"
             width="744.09448"
             height="1052.3622" />
          <use
             id="use5360"
             y="134.765"
             x="254.7036"
             xlink:href="#textext-f45d0745-6"
             width="744.09448"
             height="1052.3622" />
        </g>
        <g
           id="g5362"
           style="fill:#000000;fill-opacity:1">
          <use
             id="use5364"
             y="136.259"
             x="262.314"
             xlink:href="#textext-f45d0745-8"
             width="744.09448"
             height="1052.3622" />
        </g>
      </g>
    </g>
    <g
       ns0:text="EUCLID$_3$"
       ns0:preamble=""
       transform="matrix(0.86586743,0,0,0.86586743,91.592429,65.351795)"
       id="g5777">
      <defs
         id="defs5779">
        <g
           id="g5781">
          <symbol
             overflow="visible"
             id="textext-68dd1b5e-0"
             style="overflow:visible">
            <path
               style="stroke:none"
               d=""
               id="path5784"
               inkscape:connector-curvature="0" />
          </symbol>
          <symbol
             overflow="visible"
             id="textext-68dd1b5e-1"
             style="overflow:visible">
            <path
               style="stroke:none"
               d="m 1.359375,-0.78125 c 0,0.359375 -0.03125,0.46875 -0.796875,0.46875 l -0.234375,0 0,0.3125 5.75,0 L 6.5,-2.578125 l -0.25,0 C 6,-1.03125 5.765625,-0.3125 4.0625,-0.3125 l -1.328125,0 C 2.265625,-0.3125 2.25,-0.375 2.25,-0.703125 l 0,-2.671875 0.890625,0 c 0.96875,0 1.078125,0.328125 1.078125,1.171875 l 0.25,0 0,-2.640625 -0.25,0 c 0,0.859375 -0.109375,1.171875 -1.078125,1.171875 l -0.890625,0 0,-2.40625 c 0,-0.328125 0.015625,-0.390625 0.484375,-0.390625 l 1.28125,0 c 1.53125,0 1.796875,0.546875 1.953125,1.9375 l 0.25,0 -0.28125,-2.25 -5.609375,0 0,0.3125 0.234375,0 c 0.765625,0 0.796875,0.109375 0.796875,0.46875 z"
               id="path5787"
               inkscape:connector-curvature="0" />
          </symbol>
          <symbol
             overflow="visible"
             id="textext-68dd1b5e-2"
             style="overflow:visible">
            <path
               style="stroke:none"
               d="m 5.796875,-2.296875 c 0,1.40625 -0.96875,2.203125 -1.90625,2.203125 -0.46875,0 -1.640625,-0.25 -1.640625,-2.140625 l 0,-3.796875 C 2.25,-6.390625 2.265625,-6.5 3.03125,-6.5 l 0.234375,0 0,-0.3125 c -0.34375,0.03125 -1.078125,0.03125 -1.46875,0.03125 -0.375,0 -1.125,0 -1.46875,-0.03125 l 0,0.3125 0.234375,0 c 0.765625,0 0.796875,0.109375 0.796875,0.46875 l 0,3.765625 c 0,1.390625 1.15625,2.484375 2.515625,2.484375 1.140625,0 2.03125,-0.921875 2.203125,-2.0625 0.03125,-0.203125 0.03125,-0.296875 0.03125,-0.6875 l 0,-3.1875 c 0,-0.328125 0,-0.78125 1.03125,-0.78125 l 0,-0.3125 c -0.359375,0.015625 -0.84375,0.03125 -1.171875,0.03125 -0.359375,0 -0.828125,-0.015625 -1.1875,-0.03125 l 0,0.3125 c 1.015625,0 1.015625,0.46875 1.015625,0.734375 z"
               id="path5790"
               inkscape:connector-curvature="0" />
          </symbol>
          <symbol
             overflow="visible"
             id="textext-68dd1b5e-3"
             style="overflow:visible">
            <path
               style="stroke:none"
               d="m 0.5625,-3.40625 c 0,2.0625 1.609375,3.625 3.46875,3.625 1.625,0 2.59375,-1.390625 2.59375,-2.546875 C 6.625,-2.421875 6.625,-2.5 6.5,-2.5 6.390625,-2.5 6.390625,-2.4375 6.375,-2.328125 6.296875,-0.90625 5.234375,-0.09375 4.140625,-0.09375 c -0.609375,0 -2.5625,-0.328125 -2.5625,-3.3125 0,-2.96875 1.953125,-3.3125 2.5625,-3.3125 1.078125,0 1.96875,0.90625 2.171875,2.359375 0.015625,0.140625 0.015625,0.171875 0.15625,0.171875 0.15625,0 0.15625,-0.03125 0.15625,-0.234375 l 0,-2.359375 c 0,-0.171875 0,-0.25 -0.109375,-0.25 -0.03125,0 -0.078125,0 -0.15625,0.125 l -0.5,0.734375 C 5.5,-6.53125 4.984375,-7.03125 4.03125,-7.03125 c -1.875,0 -3.46875,1.59375 -3.46875,3.625 z"
               id="path5793"
               inkscape:connector-curvature="0" />
          </symbol>
          <symbol
             overflow="visible"
             id="textext-68dd1b5e-4"
             style="overflow:visible">
            <path
               style="stroke:none"
               d="m 5.796875,-2.578125 -0.25,0 c -0.109375,1.015625 -0.25,2.265625 -2,2.265625 l -0.8125,0 C 2.265625,-0.3125 2.25,-0.375 2.25,-0.703125 l 0,-5.3125 C 2.25,-6.359375 2.25,-6.5 3.1875,-6.5 l 0.328125,0 0,-0.3125 C 3.15625,-6.78125 2.25,-6.78125 1.84375,-6.78125 c -0.390625,0 -1.171875,0 -1.515625,-0.03125 l 0,0.3125 0.234375,0 c 0.765625,0 0.796875,0.109375 0.796875,0.46875 l 0,5.25 c 0,0.359375 -0.03125,0.46875 -0.796875,0.46875 l -0.234375,0 0,0.3125 5.1875,0 z"
               id="path5796"
               inkscape:connector-curvature="0" />
          </symbol>
          <symbol
             overflow="visible"
             id="textext-68dd1b5e-5"
             style="overflow:visible">
            <path
               style="stroke:none"
               d="M 2.25,-6.03125 C 2.25,-6.390625 2.265625,-6.5 3.0625,-6.5 l 0.25,0 0,-0.3125 c -0.34375,0.03125 -1.125,0.03125 -1.515625,0.03125 -0.375,0 -1.171875,0 -1.515625,-0.03125 l 0,0.3125 0.25,0 c 0.796875,0 0.828125,0.109375 0.828125,0.46875 l 0,5.25 c 0,0.359375 -0.03125,0.46875 -0.828125,0.46875 l -0.25,0 0,0.3125 c 0.34375,-0.03125 1.140625,-0.03125 1.515625,-0.03125 0.390625,0 1.171875,0 1.515625,0.03125 l 0,-0.3125 -0.25,0 C 2.265625,-0.3125 2.25,-0.421875 2.25,-0.78125 z"
               id="path5799"
               inkscape:connector-curvature="0" />
          </symbol>
          <symbol
             overflow="visible"
             id="textext-68dd1b5e-6"
             style="overflow:visible">
            <path
               style="stroke:none"
               d="m 0.34375,-6.8125 0,0.3125 0.25,0 c 0.765625,0 0.78125,0.109375 0.78125,0.46875 l 0,5.25 c 0,0.359375 -0.015625,0.46875 -0.78125,0.46875 l -0.25,0 0,0.3125 L 4,0 C 5.671875,0 7.046875,-1.46875 7.046875,-3.34375 7.046875,-5.25 5.703125,-6.8125 4,-6.8125 z m 2.375,6.5 C 2.25,-0.3125 2.234375,-0.375 2.234375,-0.703125 l 0,-5.390625 C 2.234375,-6.4375 2.25,-6.5 2.71875,-6.5 l 1,0 c 0.625,0 1.3125,0.21875 1.8125,0.921875 0.4375,0.59375 0.515625,1.453125 0.515625,2.234375 0,1.09375 -0.1875,1.703125 -0.546875,2.1875 -0.203125,0.265625 -0.765625,0.84375 -1.765625,0.84375 z"
               id="path5802"
               inkscape:connector-curvature="0" />
          </symbol>
          <symbol
             overflow="visible"
             id="textext-68dd1b5e-7"
             style="overflow:visible">
            <path
               style="stroke:none"
               d=""
               id="path5805"
               inkscape:connector-curvature="0" />
          </symbol>
          <symbol
             overflow="visible"
             id="textext-68dd1b5e-8"
             style="overflow:visible">
            <path
               style="stroke:none"
               d="m 1.90625,-2.328125 c 0.546875,0 0.9375,0.375 0.9375,1.125 0,0.859375 -0.515625,1.125 -0.90625,1.125 -0.28125,0 -0.90625,-0.078125 -1.1875,-0.5 0.328125,0 0.40625,-0.234375 0.40625,-0.390625 0,-0.21875 -0.171875,-0.375 -0.390625,-0.375 -0.1875,0 -0.390625,0.125 -0.390625,0.40625 0,0.65625 0.71875,1.078125 1.5625,1.078125 0.96875,0 1.640625,-0.65625 1.640625,-1.34375 0,-0.546875 -0.4375,-1.09375 -1.203125,-1.25 0.71875,-0.265625 0.984375,-0.78125 0.984375,-1.21875 0,-0.546875 -0.625,-0.953125 -1.40625,-0.953125 -0.765625,0 -1.359375,0.375 -1.359375,0.9375 0,0.234375 0.15625,0.359375 0.359375,0.359375 0.21875,0 0.359375,-0.15625 0.359375,-0.34375 0,-0.203125 -0.140625,-0.359375 -0.359375,-0.375 0.25,-0.296875 0.71875,-0.375 0.984375,-0.375 0.3125,0 0.75,0.15625 0.75,0.75 0,0.296875 -0.09375,0.625 -0.28125,0.828125 -0.21875,0.265625 -0.421875,0.28125 -0.765625,0.3125 -0.171875,0.015625 -0.1875,0.015625 -0.21875,0.015625 -0.015625,0 -0.078125,0.015625 -0.078125,0.09375 0,0.09375 0.0625,0.09375 0.1875,0.09375 z"
               id="path5808"
               inkscape:connector-curvature="0" />
          </symbol>
        </g>
      </defs>
      <g
         id="textext-68dd1b5e-9">
        <g
           style="fill:#000000;fill-opacity:1"
           id="g5811">
          <use
             xlink:href="#textext-68dd1b5e-1"
             x="223.43201"
             y="134.765"
             id="use5813"
             width="744.09448"
             height="1052.3622" />
          <use
             xlink:href="#textext-68dd1b5e-2"
             x="230.21254"
             y="134.765"
             id="use5815"
             width="744.09448"
             height="1052.3622" />
          <use
             xlink:href="#textext-68dd1b5e-3"
             x="237.68449"
             y="134.765"
             id="use5817"
             width="744.09448"
             height="1052.3622" />
          <use
             xlink:href="#textext-68dd1b5e-4"
             x="244.87949"
             y="134.765"
             id="use5819"
             width="744.09448"
             height="1052.3622" />
          <use
             xlink:href="#textext-68dd1b5e-5"
             x="251.10611"
             y="134.765"
             id="use5821"
             width="744.09448"
             height="1052.3622" />
          <use
             xlink:href="#textext-68dd1b5e-6"
             x="254.7036"
             y="134.765"
             id="use5823"
             width="744.09448"
             height="1052.3622" />
        </g>
        <g
           style="fill:#000000;fill-opacity:1"
           id="g5825">
          <use
             xlink:href="#textext-68dd1b5e-8"
             x="262.314"
             y="136.259"
             id="use5827"
             width="744.09448"
             height="1052.3622" />
        </g>
      </g>
    </g>
    <g
       id="g6328"
       transform="matrix(0.86586743,0,0,0.86586743,138.41427,65.439641)"
       ns0:preamble=""
       ns0:text="EUCLID$_4$">
      <defs
         id="defs6330">
        <g
           id="g6332">
          <symbol
             id="textext-944f7fb3-0"
             overflow="visible"
             style="overflow:visible">
            <path
               id="path6335"
               d=""
               style="stroke:none"
               inkscape:connector-curvature="0" />
          </symbol>
          <symbol
             id="textext-944f7fb3-1"
             overflow="visible"
             style="overflow:visible">
            <path
               id="path6338"
               d="m 1.359375,-0.78125 c 0,0.359375 -0.03125,0.46875 -0.796875,0.46875 l -0.234375,0 0,0.3125 5.75,0 L 6.5,-2.578125 l -0.25,0 C 6,-1.03125 5.765625,-0.3125 4.0625,-0.3125 l -1.328125,0 C 2.265625,-0.3125 2.25,-0.375 2.25,-0.703125 l 0,-2.671875 0.890625,0 c 0.96875,0 1.078125,0.328125 1.078125,1.171875 l 0.25,0 0,-2.640625 -0.25,0 c 0,0.859375 -0.109375,1.171875 -1.078125,1.171875 l -0.890625,0 0,-2.40625 c 0,-0.328125 0.015625,-0.390625 0.484375,-0.390625 l 1.28125,0 c 1.53125,0 1.796875,0.546875 1.953125,1.9375 l 0.25,0 -0.28125,-2.25 -5.609375,0 0,0.3125 0.234375,0 c 0.765625,0 0.796875,0.109375 0.796875,0.46875 z"
               style="stroke:none"
               inkscape:connector-curvature="0" />
          </symbol>
          <symbol
             id="textext-944f7fb3-2"
             overflow="visible"
             style="overflow:visible">
            <path
               id="path6341"
               d="m 5.796875,-2.296875 c 0,1.40625 -0.96875,2.203125 -1.90625,2.203125 -0.46875,0 -1.640625,-0.25 -1.640625,-2.140625 l 0,-3.796875 C 2.25,-6.390625 2.265625,-6.5 3.03125,-6.5 l 0.234375,0 0,-0.3125 c -0.34375,0.03125 -1.078125,0.03125 -1.46875,0.03125 -0.375,0 -1.125,0 -1.46875,-0.03125 l 0,0.3125 0.234375,0 c 0.765625,0 0.796875,0.109375 0.796875,0.46875 l 0,3.765625 c 0,1.390625 1.15625,2.484375 2.515625,2.484375 1.140625,0 2.03125,-0.921875 2.203125,-2.0625 0.03125,-0.203125 0.03125,-0.296875 0.03125,-0.6875 l 0,-3.1875 c 0,-0.328125 0,-0.78125 1.03125,-0.78125 l 0,-0.3125 c -0.359375,0.015625 -0.84375,0.03125 -1.171875,0.03125 -0.359375,0 -0.828125,-0.015625 -1.1875,-0.03125 l 0,0.3125 c 1.015625,0 1.015625,0.46875 1.015625,0.734375 z"
               style="stroke:none"
               inkscape:connector-curvature="0" />
          </symbol>
          <symbol
             id="textext-944f7fb3-3"
             overflow="visible"
             style="overflow:visible">
            <path
               id="path6344"
               d="m 0.5625,-3.40625 c 0,2.0625 1.609375,3.625 3.46875,3.625 1.625,0 2.59375,-1.390625 2.59375,-2.546875 C 6.625,-2.421875 6.625,-2.5 6.5,-2.5 6.390625,-2.5 6.390625,-2.4375 6.375,-2.328125 6.296875,-0.90625 5.234375,-0.09375 4.140625,-0.09375 c -0.609375,0 -2.5625,-0.328125 -2.5625,-3.3125 0,-2.96875 1.953125,-3.3125 2.5625,-3.3125 1.078125,0 1.96875,0.90625 2.171875,2.359375 0.015625,0.140625 0.015625,0.171875 0.15625,0.171875 0.15625,0 0.15625,-0.03125 0.15625,-0.234375 l 0,-2.359375 c 0,-0.171875 0,-0.25 -0.109375,-0.25 -0.03125,0 -0.078125,0 -0.15625,0.125 l -0.5,0.734375 C 5.5,-6.53125 4.984375,-7.03125 4.03125,-7.03125 c -1.875,0 -3.46875,1.59375 -3.46875,3.625 z"
               style="stroke:none"
               inkscape:connector-curvature="0" />
          </symbol>
          <symbol
             id="textext-944f7fb3-4"
             overflow="visible"
             style="overflow:visible">
            <path
               id="path6347"
               d="m 5.796875,-2.578125 -0.25,0 c -0.109375,1.015625 -0.25,2.265625 -2,2.265625 l -0.8125,0 C 2.265625,-0.3125 2.25,-0.375 2.25,-0.703125 l 0,-5.3125 C 2.25,-6.359375 2.25,-6.5 3.1875,-6.5 l 0.328125,0 0,-0.3125 C 3.15625,-6.78125 2.25,-6.78125 1.84375,-6.78125 c -0.390625,0 -1.171875,0 -1.515625,-0.03125 l 0,0.3125 0.234375,0 c 0.765625,0 0.796875,0.109375 0.796875,0.46875 l 0,5.25 c 0,0.359375 -0.03125,0.46875 -0.796875,0.46875 l -0.234375,0 0,0.3125 5.1875,0 z"
               style="stroke:none"
               inkscape:connector-curvature="0" />
          </symbol>
          <symbol
             id="textext-944f7fb3-5"
             overflow="visible"
             style="overflow:visible">
            <path
               id="path6350"
               d="M 2.25,-6.03125 C 2.25,-6.390625 2.265625,-6.5 3.0625,-6.5 l 0.25,0 0,-0.3125 c -0.34375,0.03125 -1.125,0.03125 -1.515625,0.03125 -0.375,0 -1.171875,0 -1.515625,-0.03125 l 0,0.3125 0.25,0 c 0.796875,0 0.828125,0.109375 0.828125,0.46875 l 0,5.25 c 0,0.359375 -0.03125,0.46875 -0.828125,0.46875 l -0.25,0 0,0.3125 c 0.34375,-0.03125 1.140625,-0.03125 1.515625,-0.03125 0.390625,0 1.171875,0 1.515625,0.03125 l 0,-0.3125 -0.25,0 C 2.265625,-0.3125 2.25,-0.421875 2.25,-0.78125 z"
               style="stroke:none"
               inkscape:connector-curvature="0" />
          </symbol>
          <symbol
             id="textext-944f7fb3-6"
             overflow="visible"
             style="overflow:visible">
            <path
               id="path6353"
               d="m 0.34375,-6.8125 0,0.3125 0.25,0 c 0.765625,0 0.78125,0.109375 0.78125,0.46875 l 0,5.25 c 0,0.359375 -0.015625,0.46875 -0.78125,0.46875 l -0.25,0 0,0.3125 L 4,0 C 5.671875,0 7.046875,-1.46875 7.046875,-3.34375 7.046875,-5.25 5.703125,-6.8125 4,-6.8125 z m 2.375,6.5 C 2.25,-0.3125 2.234375,-0.375 2.234375,-0.703125 l 0,-5.390625 C 2.234375,-6.4375 2.25,-6.5 2.71875,-6.5 l 1,0 c 0.625,0 1.3125,0.21875 1.8125,0.921875 0.4375,0.59375 0.515625,1.453125 0.515625,2.234375 0,1.09375 -0.1875,1.703125 -0.546875,2.1875 -0.203125,0.265625 -0.765625,0.84375 -1.765625,0.84375 z"
               style="stroke:none"
               inkscape:connector-curvature="0" />
          </symbol>
          <symbol
             id="textext-944f7fb3-7"
             overflow="visible"
             style="overflow:visible">
            <path
               id="path6356"
               d=""
               style="stroke:none"
               inkscape:connector-curvature="0" />
          </symbol>
          <symbol
             id="textext-944f7fb3-8"
             overflow="visible"
             style="overflow:visible">
            <path
               id="path6359"
               d="m 3.6875,-1.140625 0,-0.25 -0.78125,0 0,-3.109375 c 0,-0.140625 0,-0.203125 -0.140625,-0.203125 -0.09375,0 -0.125,0 -0.1875,0.109375 l -2.3125,3.203125 0,0.25 2.0625,0 0,0.5625 c 0,0.25 0,0.328125 -0.578125,0.328125 l -0.1875,0 0,0.25 C 1.921875,-0.015625 2.359375,-0.03125 2.609375,-0.03125 2.875,-0.03125 3.3125,-0.015625 3.671875,0 l 0,-0.25 -0.1875,0 C 2.90625,-0.25 2.90625,-0.328125 2.90625,-0.578125 l 0,-0.5625 z M 2.375,-3.9375 l 0,2.546875 -1.84375,0 z"
               style="stroke:none"
               inkscape:connector-curvature="0" />
          </symbol>
        </g>
      </defs>
      <g
         id="textext-944f7fb3-9">
        <g
           id="g6362"
           style="fill:#000000;fill-opacity:1">
          <use
             id="use6364"
             y="134.765"
             x="223.43201"
             xlink:href="#textext-944f7fb3-1"
             width="744.09448"
             height="1052.3622" />
          <use
             id="use6366"
             y="134.765"
             x="230.21254"
             xlink:href="#textext-944f7fb3-2"
             width="744.09448"
             height="1052.3622" />
          <use
             id="use6368"
             y="134.765"
             x="237.68449"
             xlink:href="#textext-944f7fb3-3"
             width="744.09448"
             height="1052.3622" />
          <use
             id="use6370"
             y="134.765"
             x="244.87949"
             xlink:href="#textext-944f7fb3-4"
             width="744.09448"
             height="1052.3622" />
          <use
             id="use6372"
             y="134.765"
             x="251.10611"
             xlink:href="#textext-944f7fb3-5"
             width="744.09448"
             height="1052.3622" />
          <use
             id="use6374"
             y="134.765"
             x="254.7036"
             xlink:href="#textext-944f7fb3-6"
             width="744.09448"
             height="1052.3622" />
        </g>
        <g
           id="g6376"
           style="fill:#000000;fill-opacity:1">
          <use
             id="use6378"
             y="136.259"
             x="262.314"
             xlink:href="#textext-944f7fb3-8"
             width="744.09448"
             height="1052.3622" />
        </g>
      </g>
    </g>
    <g
       id="g9023"
       transform="translate(-0.80059169,0)">
      <path
         inkscape:connector-curvature="0"
         d="m 222.16595,210.10778 c 8.38675,-8.30088 -0.17225,-23.09963 -11.52487,-20.0005"
         style="fill:none;stroke:#000000;stroke-width:2;stroke-linecap:butt;stroke-linejoin:miter;stroke-miterlimit:10;stroke-opacity:1;stroke-dasharray:none"
         id="path14" />
      <path
         inkscape:connector-curvature="0"
         d="m 210.64108,190.10728 c -11.3613,-3.09913 -19.89793,11.69962 -11.53415,20.0005"
         style="fill:none;stroke:#000000;stroke-width:2;stroke-linecap:butt;stroke-linejoin:miter;stroke-miterlimit:10;stroke-opacity:1;stroke-dasharray:none"
         id="path16" />
      <path
         inkscape:connector-curvature="0"
         d="m 199.10693,210.10778 c 2.98632,11.38422 20.08202,11.38422 23.05902,0"
         style="fill:none;stroke:#000000;stroke-width:2;stroke-linecap:butt;stroke-linejoin:miter;stroke-miterlimit:10;stroke-opacity:1;stroke-dasharray:none"
         id="path18" />
      <path
         inkscape:connector-curvature="0"
         d="m 199.10693,210.10778 c 5.36376,-3.11038 8.55665,-4.94538 11.53415,-6.67"
         style="fill:none;stroke:#000000;stroke-width:2;stroke-linecap:butt;stroke-linejoin:miter;stroke-miterlimit:10;stroke-opacity:1;stroke-dasharray:none"
         id="path20" />
      <path
         inkscape:connector-curvature="0"
         d="m 210.64108,203.43778 c 2.96925,1.72462 6.16212,3.55962 11.52487,6.67"
         style="fill:none;stroke:#000000;stroke-width:2;stroke-linecap:butt;stroke-linejoin:miter;stroke-miterlimit:10;stroke-opacity:1;stroke-dasharray:none"
         id="path22" />
      <path
         inkscape:connector-curvature="0"
         d="m 210.64108,203.43778 c 0,-3.437 0,-7.10888 0,-13.3305"
         style="fill:none;stroke:#000000;stroke-width:2;stroke-linecap:butt;stroke-linejoin:miter;stroke-miterlimit:10;stroke-opacity:1;stroke-dasharray:none"
         id="path24" />
      <path
         inkscape:connector-curvature="0"
         d="m 212.97897,189.38036 c 0,1.148 -0.90595,2.09732 -2.05589,2.09732 -1.16496,0 -2.07188,-0.94932 -2.07188,-2.09732 0,-1.12839 0.90692,-2.07286 2.07188,-2.07286 1.14994,0 2.05589,0.94447 2.05589,2.07286"
         style="fill:#ffffff;fill-opacity:1;fill-rule:evenodd;stroke:#000000;stroke-width:0.30000001;stroke-miterlimit:4;stroke-dasharray:none"
         id="path28" />
      <path
         id="path7532"
         style="fill:#ffffff;fill-opacity:1;fill-rule:evenodd;stroke:#000000;stroke-width:0.30000001;stroke-miterlimit:4;stroke-dasharray:none"
         d="m 212.97897,203.38036 c 0,1.148 -0.90595,2.09732 -2.05589,2.09732 -1.16496,0 -2.07188,-0.94932 -2.07188,-2.09732 0,-1.12839 0.90692,-2.07286 2.07188,-2.07286 1.14994,0 2.05589,0.94447 2.05589,2.07286"
         inkscape:connector-curvature="0" />
      <path
         inkscape:connector-curvature="0"
         d="m 201.29878,210.15776 c 0,1.148 -0.90595,2.09732 -2.05589,2.09732 -1.16496,0 -2.07188,-0.94932 -2.07188,-2.09732 0,-1.12839 0.90692,-2.07286 2.07188,-2.07286 1.14994,0 2.05589,0.94447 2.05589,2.07286"
         style="fill:#ffffff;fill-opacity:1;fill-rule:evenodd;stroke:#000000;stroke-width:0.30000001;stroke-miterlimit:4;stroke-dasharray:none"
         id="path7534" />
      <path
         id="path7536"
         style="fill:#ffffff;fill-opacity:1;fill-rule:evenodd;stroke:#000000;stroke-width:0.30000001;stroke-miterlimit:4;stroke-dasharray:none"
         d="m 224.20882,210.17485 c 0,1.148 -0.90594,2.09732 -2.05589,2.09732 -1.16496,0 -2.07188,-0.94932 -2.07188,-2.09732 0,-1.12839 0.90692,-2.07286 2.07188,-2.07286 1.14995,0 2.05589,0.94447 2.05589,2.07286"
         inkscape:connector-curvature="0" />
    </g>
    <g
       ns0:text="EUCLID$_5$"
       ns0:preamble=""
       transform="matrix(0.86586743,0,0,0.86586743,191.40666,65.57406)"
       id="g7729">
      <defs
         id="defs7731">
        <g
           id="g7733">
          <symbol
             style="overflow:visible"
             overflow="visible"
             id="textext-7601df62-0">
            <path
               inkscape:connector-curvature="0"
               style="stroke:none"
               d=""
               id="path7736" />
          </symbol>
          <symbol
             style="overflow:visible"
             overflow="visible"
             id="textext-7601df62-1">
            <path
               inkscape:connector-curvature="0"
               style="stroke:none"
               d="m 1.359375,-0.78125 c 0,0.359375 -0.03125,0.46875 -0.796875,0.46875 l -0.234375,0 0,0.3125 5.75,0 L 6.5,-2.578125 l -0.25,0 C 6,-1.03125 5.765625,-0.3125 4.0625,-0.3125 l -1.328125,0 C 2.265625,-0.3125 2.25,-0.375 2.25,-0.703125 l 0,-2.671875 0.890625,0 c 0.96875,0 1.078125,0.328125 1.078125,1.171875 l 0.25,0 0,-2.640625 -0.25,0 c 0,0.859375 -0.109375,1.171875 -1.078125,1.171875 l -0.890625,0 0,-2.40625 c 0,-0.328125 0.015625,-0.390625 0.484375,-0.390625 l 1.28125,0 c 1.53125,0 1.796875,0.546875 1.953125,1.9375 l 0.25,0 -0.28125,-2.25 -5.609375,0 0,0.3125 0.234375,0 c 0.765625,0 0.796875,0.109375 0.796875,0.46875 z"
               id="path7739" />
          </symbol>
          <symbol
             style="overflow:visible"
             overflow="visible"
             id="textext-7601df62-2">
            <path
               inkscape:connector-curvature="0"
               style="stroke:none"
               d="m 5.796875,-2.296875 c 0,1.40625 -0.96875,2.203125 -1.90625,2.203125 -0.46875,0 -1.640625,-0.25 -1.640625,-2.140625 l 0,-3.796875 C 2.25,-6.390625 2.265625,-6.5 3.03125,-6.5 l 0.234375,0 0,-0.3125 c -0.34375,0.03125 -1.078125,0.03125 -1.46875,0.03125 -0.375,0 -1.125,0 -1.46875,-0.03125 l 0,0.3125 0.234375,0 c 0.765625,0 0.796875,0.109375 0.796875,0.46875 l 0,3.765625 c 0,1.390625 1.15625,2.484375 2.515625,2.484375 1.140625,0 2.03125,-0.921875 2.203125,-2.0625 0.03125,-0.203125 0.03125,-0.296875 0.03125,-0.6875 l 0,-3.1875 c 0,-0.328125 0,-0.78125 1.03125,-0.78125 l 0,-0.3125 c -0.359375,0.015625 -0.84375,0.03125 -1.171875,0.03125 -0.359375,0 -0.828125,-0.015625 -1.1875,-0.03125 l 0,0.3125 c 1.015625,0 1.015625,0.46875 1.015625,0.734375 z"
               id="path7742" />
          </symbol>
          <symbol
             style="overflow:visible"
             overflow="visible"
             id="textext-7601df62-3">
            <path
               inkscape:connector-curvature="0"
               style="stroke:none"
               d="m 0.5625,-3.40625 c 0,2.0625 1.609375,3.625 3.46875,3.625 1.625,0 2.59375,-1.390625 2.59375,-2.546875 C 6.625,-2.421875 6.625,-2.5 6.5,-2.5 6.390625,-2.5 6.390625,-2.4375 6.375,-2.328125 6.296875,-0.90625 5.234375,-0.09375 4.140625,-0.09375 c -0.609375,0 -2.5625,-0.328125 -2.5625,-3.3125 0,-2.96875 1.953125,-3.3125 2.5625,-3.3125 1.078125,0 1.96875,0.90625 2.171875,2.359375 0.015625,0.140625 0.015625,0.171875 0.15625,0.171875 0.15625,0 0.15625,-0.03125 0.15625,-0.234375 l 0,-2.359375 c 0,-0.171875 0,-0.25 -0.109375,-0.25 -0.03125,0 -0.078125,0 -0.15625,0.125 l -0.5,0.734375 C 5.5,-6.53125 4.984375,-7.03125 4.03125,-7.03125 c -1.875,0 -3.46875,1.59375 -3.46875,3.625 z"
               id="path7745" />
          </symbol>
          <symbol
             style="overflow:visible"
             overflow="visible"
             id="textext-7601df62-4">
            <path
               inkscape:connector-curvature="0"
               style="stroke:none"
               d="m 5.796875,-2.578125 -0.25,0 c -0.109375,1.015625 -0.25,2.265625 -2,2.265625 l -0.8125,0 C 2.265625,-0.3125 2.25,-0.375 2.25,-0.703125 l 0,-5.3125 C 2.25,-6.359375 2.25,-6.5 3.1875,-6.5 l 0.328125,0 0,-0.3125 C 3.15625,-6.78125 2.25,-6.78125 1.84375,-6.78125 c -0.390625,0 -1.171875,0 -1.515625,-0.03125 l 0,0.3125 0.234375,0 c 0.765625,0 0.796875,0.109375 0.796875,0.46875 l 0,5.25 c 0,0.359375 -0.03125,0.46875 -0.796875,0.46875 l -0.234375,0 0,0.3125 5.1875,0 z"
               id="path7748" />
          </symbol>
          <symbol
             style="overflow:visible"
             overflow="visible"
             id="textext-7601df62-5">
            <path
               inkscape:connector-curvature="0"
               style="stroke:none"
               d="M 2.25,-6.03125 C 2.25,-6.390625 2.265625,-6.5 3.0625,-6.5 l 0.25,0 0,-0.3125 c -0.34375,0.03125 -1.125,0.03125 -1.515625,0.03125 -0.375,0 -1.171875,0 -1.515625,-0.03125 l 0,0.3125 0.25,0 c 0.796875,0 0.828125,0.109375 0.828125,0.46875 l 0,5.25 c 0,0.359375 -0.03125,0.46875 -0.828125,0.46875 l -0.25,0 0,0.3125 c 0.34375,-0.03125 1.140625,-0.03125 1.515625,-0.03125 0.390625,0 1.171875,0 1.515625,0.03125 l 0,-0.3125 -0.25,0 C 2.265625,-0.3125 2.25,-0.421875 2.25,-0.78125 z"
               id="path7751" />
          </symbol>
          <symbol
             style="overflow:visible"
             overflow="visible"
             id="textext-7601df62-6">
            <path
               inkscape:connector-curvature="0"
               style="stroke:none"
               d="m 0.34375,-6.8125 0,0.3125 0.25,0 c 0.765625,0 0.78125,0.109375 0.78125,0.46875 l 0,5.25 c 0,0.359375 -0.015625,0.46875 -0.78125,0.46875 l -0.25,0 0,0.3125 L 4,0 C 5.671875,0 7.046875,-1.46875 7.046875,-3.34375 7.046875,-5.25 5.703125,-6.8125 4,-6.8125 z m 2.375,6.5 C 2.25,-0.3125 2.234375,-0.375 2.234375,-0.703125 l 0,-5.390625 C 2.234375,-6.4375 2.25,-6.5 2.71875,-6.5 l 1,0 c 0.625,0 1.3125,0.21875 1.8125,0.921875 0.4375,0.59375 0.515625,1.453125 0.515625,2.234375 0,1.09375 -0.1875,1.703125 -0.546875,2.1875 -0.203125,0.265625 -0.765625,0.84375 -1.765625,0.84375 z"
               id="path7754" />
          </symbol>
          <symbol
             style="overflow:visible"
             overflow="visible"
             id="textext-7601df62-7">
            <path
               inkscape:connector-curvature="0"
               style="stroke:none"
               d=""
               id="path7757" />
          </symbol>
          <symbol
             style="overflow:visible"
             overflow="visible"
             id="textext-7601df62-8">
            <path
               inkscape:connector-curvature="0"
               style="stroke:none"
               d="m 1.078125,-3.890625 c 0.359375,0.09375 0.5625,0.09375 0.671875,0.09375 0.921875,0 1.46875,-0.625 1.46875,-0.734375 0,-0.078125 -0.046875,-0.09375 -0.078125,-0.09375 -0.015625,0 -0.03125,0 -0.0625,0.015625 -0.171875,0.0625 -0.53125,0.203125 -1.046875,0.203125 -0.203125,0 -0.5625,-0.015625 -1.015625,-0.1875 C 0.9375,-4.625 0.921875,-4.625 0.921875,-4.625 c -0.09375,0 -0.09375,0.078125 -0.09375,0.1875 l 0,2.046875 c 0,0.125 0,0.203125 0.109375,0.203125 0.0625,0 0.078125,0 0.140625,-0.09375 0.296875,-0.375 0.734375,-0.4375 0.96875,-0.4375 0.421875,0 0.609375,0.328125 0.640625,0.390625 0.125,0.234375 0.171875,0.5 0.171875,0.90625 0,0.203125 0,0.609375 -0.21875,0.921875 -0.171875,0.25 -0.46875,0.421875 -0.8125,0.421875 -0.453125,0 -0.921875,-0.25 -1.09375,-0.71875 0.265625,0.015625 0.40625,-0.15625 0.40625,-0.34375 0,-0.296875 -0.265625,-0.34375 -0.359375,-0.34375 0,0 -0.34375,0 -0.34375,0.375 0,0.625 0.578125,1.25 1.40625,1.25 0.890625,0 1.671875,-0.65625 1.671875,-1.546875 0,-0.78125 -0.59375,-1.5 -1.453125,-1.5 -0.3125,0 -0.671875,0.0625 -0.984375,0.328125 z"
               id="path7760" />
          </symbol>
        </g>
      </defs>
      <g
         id="textext-7601df62-9">
        <g
           style="fill:#000000;fill-opacity:1"
           id="g7763">
          <use
             height="1052.3622"
             width="744.09448"
             xlink:href="#textext-7601df62-1"
             x="223.43201"
             y="134.765"
             id="use7765" />
          <use
             height="1052.3622"
             width="744.09448"
             xlink:href="#textext-7601df62-2"
             x="230.21254"
             y="134.765"
             id="use7767" />
          <use
             height="1052.3622"
             width="744.09448"
             xlink:href="#textext-7601df62-3"
             x="237.68449"
             y="134.765"
             id="use7769" />
          <use
             height="1052.3622"
             width="744.09448"
             xlink:href="#textext-7601df62-4"
             x="244.87949"
             y="134.765"
             id="use7771" />
          <use
             height="1052.3622"
             width="744.09448"
             xlink:href="#textext-7601df62-5"
             x="251.10611"
             y="134.765"
             id="use7773" />
          <use
             height="1052.3622"
             width="744.09448"
             xlink:href="#textext-7601df62-6"
             x="254.7036"
             y="134.765"
             id="use7775" />
        </g>
        <g
           style="fill:#000000;fill-opacity:1"
           id="g7777">
          <use
             height="1052.3622"
             width="744.09448"
             xlink:href="#textext-7601df62-8"
             x="262.314"
             y="136.259"
             id="use7779" />
        </g>
      </g>
    </g>
    <g
       id="g9035"
       transform="translate(-4.2619136,0)">
      <path
         inkscape:connector-curvature="0"
         d="m 268.45652,208.45643 c 13.14625,-8.24263 5.0275,-22.266 -7.48625,-17.1435"
         style="fill:none;stroke:#000000;stroke-width:2;stroke-linecap:butt;stroke-linejoin:miter;stroke-miterlimit:10;stroke-opacity:1;stroke-dasharray:none"
         id="path68" />
      <path
         inkscape:connector-curvature="0"
         d="m 260.97027,191.31293 c -12.525,-5.1225 -20.62375,8.90087 -7.47625,17.1435"
         style="fill:none;stroke:#000000;stroke-width:2;stroke-linecap:butt;stroke-linejoin:miter;stroke-miterlimit:10;stroke-opacity:1;stroke-dasharray:none"
         id="path70" />
      <path
         inkscape:connector-curvature="0"
         d="m 253.49402,208.45643 c -0.59,14.61529 15.54375,14.61529 14.9625,0"
         style="fill:none;stroke:#808080;stroke-width:2;stroke-linecap:butt;stroke-linejoin:miter;stroke-miterlimit:10;stroke-opacity:1;stroke-dasharray:none"
         id="path72" />
      <path
         inkscape:connector-curvature="0"
         d="m 253.49402,208.45643 c 6.8325,6.07912 8.10875,6.07912 14.9625,0"
         style="fill:none;stroke:#808080;stroke-width:2;stroke-linecap:butt;stroke-linejoin:miter;stroke-miterlimit:10;stroke-opacity:1;stroke-dasharray:none"
         id="path74" />
      <path
         inkscape:connector-curvature="0"
         d="m 253.49402,208.45643 c 6.62875,-2.46875 8.3325,-2.46875 14.9625,0"
         style="fill:none;stroke:#808080;stroke-width:2;stroke-linecap:butt;stroke-linejoin:miter;stroke-miterlimit:10;stroke-opacity:1;stroke-dasharray:none"
         id="path76" />
      <path
         inkscape:connector-curvature="0"
         d="m 253.49402,208.45643 c 0.27625,-9.94425 1.61125,-12.00538 7.47625,-17.1435"
         style="fill:none;stroke:#000000;stroke-width:2;stroke-linecap:butt;stroke-linejoin:miter;stroke-miterlimit:10;stroke-opacity:1;stroke-dasharray:none"
         id="path78" />
      <path
         inkscape:connector-curvature="0"
         d="m 260.97027,191.31293 c 5.85375,5.13812 7.20125,7.19925 7.48625,17.1435"
         style="fill:none;stroke:#000000;stroke-width:2;stroke-linecap:butt;stroke-linejoin:miter;stroke-miterlimit:10;stroke-opacity:1;stroke-dasharray:none"
         id="path80" />
      <path
         inkscape:connector-curvature="0"
         d="m 255.58259,208.44084 c 0,1.148 -0.90595,2.09732 -2.05589,2.09732 -1.16496,0 -2.07188,-0.94932 -2.07188,-2.09732 0,-1.12839 0.90692,-2.07286 2.07188,-2.07286 1.14994,0 2.05589,0.94447 2.05589,2.07286"
         style="fill:#ffffff;fill-opacity:1;fill-rule:evenodd;stroke:#000000;stroke-width:0.30000001;stroke-miterlimit:4;stroke-dasharray:none"
         id="path7538" />
      <path
         id="path7999"
         style="fill:#ffffff;fill-opacity:1;fill-rule:evenodd;stroke:#000000;stroke-width:0.30000001;stroke-miterlimit:4;stroke-dasharray:none"
         d="m 270.42834,208.52579 c 0,1.148 -0.90595,2.09732 -2.05589,2.09732 -1.16496,0 -2.07188,-0.94932 -2.07188,-2.09732 0,-1.12839 0.90692,-2.07286 2.07188,-2.07286 1.14994,0 2.05589,0.94447 2.05589,2.07286"
         inkscape:connector-curvature="0" />
      <path
         inkscape:connector-curvature="0"
         d="m 263.31398,191.18905 c 0,1.148 -0.90595,2.09732 -2.05589,2.09732 -1.16496,0 -2.07188,-0.94932 -2.07188,-2.09732 0,-1.12839 0.90692,-2.07286 2.07188,-2.07286 1.14994,0 2.05589,0.94447 2.05589,2.07286"
         style="fill:#ffffff;fill-opacity:1;fill-rule:evenodd;stroke:#000000;stroke-width:0.30000001;stroke-miterlimit:4;stroke-dasharray:none"
         id="path8001" />
    </g>
    <g
       id="g9047"
       transform="translate(2.3548783,0)">
      <path
         inkscape:connector-curvature="0"
         d="m 308.02277,210.68055 c 12.9625,-8.92575 4.50625,-23.42762 -6.80375,-21.01075"
         style="fill:none;stroke:#000000;stroke-width:2;stroke-linecap:butt;stroke-linejoin:miter;stroke-miterlimit:10;stroke-opacity:1;stroke-dasharray:none"
         id="path126" />
      <path
         inkscape:connector-curvature="0"
         d="m 301.21902,189.6698 c -11.30125,-2.41687 -19.75375,12.085 -6.79125,21.01075"
         style="fill:none;stroke:#000000;stroke-width:2;stroke-linecap:butt;stroke-linejoin:miter;stroke-miterlimit:10;stroke-opacity:1;stroke-dasharray:none"
         id="path128" />
      <path
         inkscape:connector-curvature="0"
         d="m 294.42777,210.68055 c -1.28375,13.9107 14.85875,13.9107 13.595,0"
         style="fill:none;stroke:#808080;stroke-width:2;stroke-linecap:butt;stroke-linejoin:miter;stroke-miterlimit:10;stroke-opacity:1;stroke-dasharray:none"
         id="path130" />
      <path
         inkscape:connector-curvature="0"
         d="m 294.42777,210.68055 c 6.18,5.98638 7.41375,5.98638 13.595,0"
         style="fill:none;stroke:#808080;stroke-width:2;stroke-linecap:butt;stroke-linejoin:miter;stroke-miterlimit:10;stroke-opacity:1;stroke-dasharray:none"
         id="path132" />
      <path
         inkscape:connector-curvature="0"
         d="m 294.42777,210.68055 c 6.23125,-1.94087 7.3625,-1.94087 13.595,0"
         style="fill:none;stroke:#808080;stroke-width:2;stroke-linecap:butt;stroke-linejoin:miter;stroke-miterlimit:10;stroke-opacity:1;stroke-dasharray:none"
         id="path134" />
      <path
         inkscape:connector-curvature="0"
         d="m 294.42777,210.68055 c 1.84375,-9.05662 4.3225,-10.32075 6.79125,-11.43262"
         style="fill:none;stroke:#000000;stroke-width:2;stroke-linecap:butt;stroke-linejoin:miter;stroke-miterlimit:10;stroke-opacity:1;stroke-dasharray:none"
         id="path136" />
      <path
         inkscape:connector-curvature="0"
         d="m 301.21902,199.24793 c 2.4575,1.11187 4.9575,2.376 6.80375,11.43262"
         style="fill:none;stroke:#000000;stroke-width:2;stroke-linecap:butt;stroke-linejoin:miter;stroke-miterlimit:10;stroke-opacity:1;stroke-dasharray:none"
         id="path138" />
      <path
         inkscape:connector-curvature="0"
         d="m 301.21902,199.24793 c 0,-2.2245 0,-4.73575 0,-9.57813"
         style="fill:none;stroke:#000000;stroke-width:2;stroke-linecap:butt;stroke-linejoin:miter;stroke-miterlimit:10;stroke-opacity:1;stroke-dasharray:none"
         id="path140" />
      <path
         inkscape:connector-curvature="0"
         d="m 296.45056,211.2018 c 0,1.148 -0.90595,2.09732 -2.05589,2.09732 -1.16496,0 -2.07188,-0.94932 -2.07188,-2.09732 0,-1.12839 0.90692,-2.07286 2.07188,-2.07286 1.14994,0 2.05589,0.94447 2.05589,2.07286"
         style="fill:#ffffff;fill-opacity:1;fill-rule:evenodd;stroke:#000000;stroke-width:0.30000001;stroke-miterlimit:4;stroke-dasharray:none"
         id="path8003" />
      <path
         id="path8005"
         style="fill:#ffffff;fill-opacity:1;fill-rule:evenodd;stroke:#000000;stroke-width:0.30000001;stroke-miterlimit:4;stroke-dasharray:none"
         d="m 310.11934,211.08089 c 0,1.148 -0.90595,2.09732 -2.05589,2.09732 -1.16496,0 -2.07188,-0.94932 -2.07188,-2.09732 0,-1.12839 0.90692,-2.07286 2.07188,-2.07286 1.14994,0 2.05589,0.94447 2.05589,2.07286"
         inkscape:connector-curvature="0" />
      <path
         inkscape:connector-curvature="0"
         d="m 303.24185,199.25421 c 0,1.148 -0.90595,2.09732 -2.05589,2.09732 -1.16496,0 -2.07188,-0.94932 -2.07188,-2.09732 0,-1.12839 0.90692,-2.07286 2.07188,-2.07286 1.14994,0 2.05589,0.94447 2.05589,2.07286"
         style="fill:#ffffff;fill-opacity:1;fill-rule:evenodd;stroke:#000000;stroke-width:0.30000001;stroke-miterlimit:4;stroke-dasharray:none"
         id="path8007" />
      <path
         id="path8009"
         style="fill:#ffffff;fill-opacity:1;fill-rule:evenodd;stroke:#000000;stroke-width:0.30000001;stroke-miterlimit:4;stroke-dasharray:none"
         d="m 303.02865,189.60595 c 0,1.148 -0.90595,2.09732 -2.05589,2.09732 -1.16496,0 -2.07188,-0.94932 -2.07188,-2.09732 0,-1.12839 0.90692,-2.07286 2.07188,-2.07286 1.14994,0 2.05589,0.94447 2.05589,2.07286"
         inkscape:connector-curvature="0" />
    </g>
    <g
       id="g9061"
       transform="translate(1.8674774,0)">
      <path
         id="path6714"
         style="fill:none;stroke:#2eb442;stroke-width:0.91830873;stroke-linecap:butt;stroke-linejoin:miter;stroke-miterlimit:10;stroke-opacity:1;stroke-dasharray:none"
         d="m 361.41603,200.39625 c -3.6948,-11.82122 -21.20554,-12.17612 -25.36611,-0.51887"
         inkscape:connector-curvature="0" />
      <path
         id="path6716"
         style="fill:none;stroke:#2eb442;stroke-width:0.91830873;stroke-linecap:butt;stroke-linejoin:miter;stroke-miterlimit:10;stroke-opacity:1;stroke-dasharray:none"
         d="m 336.04992,199.87738 c -8.30684,7.43036 -0.45145,21.67258 12.37843,14.74944"
         inkscape:connector-curvature="0" />
      <path
         id="path6718"
         style="fill:none;stroke:#2eb442;stroke-width:0.91830873;stroke-linecap:butt;stroke-linejoin:miter;stroke-miterlimit:10;stroke-opacity:1;stroke-dasharray:none"
         d="m 348.42835,214.62682 c 12.543,7.44757 20.97077,-6.48122 12.98768,-14.23057"
         inkscape:connector-curvature="0" />
      <path
         id="path6720"
         style="fill:none;stroke:#2eb442;stroke-width:0.91830873;stroke-linecap:butt;stroke-linejoin:miter;stroke-miterlimit:10;stroke-opacity:1;stroke-dasharray:none"
         d="m 348.42835,214.62682 c 6.58543,-7.05621 8.6684,-10.14529 12.98768,-14.23057"
         inkscape:connector-curvature="0" />
      <path
         id="path6722"
         style="fill:none;stroke:#2eb442;stroke-width:0.91830873;stroke-linecap:butt;stroke-linejoin:miter;stroke-miterlimit:10;stroke-opacity:1;stroke-dasharray:none"
         d="m 348.42835,214.62682 c -6.28076,-7.32857 -8.25061,-10.51326 -12.37843,-14.74944"
         inkscape:connector-curvature="0" />
      <path
         inkscape:connector-curvature="0"
         d="m 361.41603,200.39625 c -3.6948,-11.82122 -21.20554,-12.17612 -25.36611,-0.51887"
         style="fill:none;stroke:#000000;stroke-width:2;stroke-linecap:butt;stroke-linejoin:miter;stroke-miterlimit:10;stroke-opacity:1;stroke-dasharray:none"
         id="path6730" />
      <path
         inkscape:connector-curvature="0"
         d="m 336.04992,199.87738 c -8.30684,7.43036 -0.45145,21.67258 12.37843,14.74944"
         style="fill:none;stroke:#000000;stroke-width:2;stroke-linecap:butt;stroke-linejoin:miter;stroke-miterlimit:10;stroke-opacity:1;stroke-dasharray:none"
         id="path6732" />
      <path
         inkscape:connector-curvature="0"
         d="m 348.42835,214.62682 c 12.543,7.44757 20.97077,-6.48122 12.98768,-14.23057"
         style="fill:none;stroke:#000000;stroke-width:2;stroke-linecap:butt;stroke-linejoin:miter;stroke-miterlimit:10;stroke-opacity:1;stroke-dasharray:none"
         id="path6734" />
      <path
         inkscape:connector-curvature="0"
         d="m 348.42835,214.62682 c 6.58543,-7.05621 8.6684,-10.14529 12.98768,-14.23057"
         style="fill:none;stroke:#000000;stroke-width:2;stroke-linecap:butt;stroke-linejoin:miter;stroke-miterlimit:10;stroke-opacity:1;stroke-dasharray:none"
         id="path6736" />
      <path
         inkscape:connector-curvature="0"
         d="m 348.42835,214.62682 c -6.28076,-7.32857 -8.25061,-10.51326 -12.37843,-14.74944"
         style="fill:none;stroke:#000000;stroke-width:2;stroke-linecap:butt;stroke-linejoin:miter;stroke-miterlimit:10;stroke-opacity:1;stroke-dasharray:none"
         id="path6738" />
      <path
         id="path8005-9"
         style="fill:#ffffff;fill-opacity:1;fill-rule:evenodd;stroke:#000000;stroke-width:0.30000001;stroke-miterlimit:4;stroke-dasharray:none"
         d="m 337.92773,200.03524 c 0,1.148 -0.90595,2.09732 -2.05589,2.09732 -1.16496,0 -2.07188,-0.94932 -2.07188,-2.09732 0,-1.12839 0.90692,-2.07286 2.07188,-2.07286 1.14994,0 2.05589,0.94447 2.05589,2.07286"
         inkscape:connector-curvature="0" />
      <path
         inkscape:connector-curvature="0"
         d="m 363.92773,200.03524 c 0,1.148 -0.90595,2.09732 -2.05589,2.09732 -1.16496,0 -2.07188,-0.94932 -2.07188,-2.09732 0,-1.12839 0.90692,-2.07286 2.07188,-2.07286 1.14994,0 2.05589,0.94447 2.05589,2.07286"
         style="fill:#ffffff;fill-opacity:1;fill-rule:evenodd;stroke:#000000;stroke-width:0.30000001;stroke-miterlimit:4;stroke-dasharray:none"
         id="path8045" />
      <path
         id="path8047"
         style="fill:#ffffff;fill-opacity:1;fill-rule:evenodd;stroke:#000000;stroke-width:0.30000001;stroke-miterlimit:4;stroke-dasharray:none"
         d="m 350.96176,214.88453 c 0,1.148 -0.90595,2.09732 -2.05589,2.09732 -1.16496,0 -2.07188,-0.94932 -2.07188,-2.09732 0,-1.12839 0.90692,-2.07286 2.07188,-2.07286 1.14994,0 2.05589,0.94447 2.05589,2.07286"
         inkscape:connector-curvature="0" />
    </g>
    <g
       id="g9076">
      <path
         inkscape:connector-curvature="0"
         d="m 423.82492,206.40895 c -0.15993,-7.39649 -10.29532,-16.77529 -20.65537,-9.00228"
         style="fill:none;stroke:#808080;stroke-width:2;stroke-linecap:butt;stroke-linejoin:miter;stroke-miterlimit:10;stroke-opacity:1;stroke-dasharray:none"
         id="path192" />
      <path
         inkscape:connector-curvature="0"
         d="m 403.16955,197.40667 c -10.69866,-7.31697 -20.42041,2.50163 -20.26068,9.89767"
         style="fill:none;stroke:#000000;stroke-width:2;stroke-linecap:butt;stroke-linejoin:miter;stroke-miterlimit:10;stroke-opacity:1;stroke-dasharray:none"
         id="path194" />
      <path
         inkscape:connector-curvature="0"
         d="m 382.90887,207.30434 c 0.17031,7.40148 10.30195,16.77174 20.66308,8.98877"
         style="fill:none;stroke:#000000;stroke-width:2;stroke-linecap:butt;stroke-linejoin:miter;stroke-miterlimit:10;stroke-opacity:1;stroke-dasharray:none"
         id="path196" />
      <path
         inkscape:connector-curvature="0"
         d="m 403.57195,216.29311 c 10.68599,7.31923 20.41387,-2.50097 20.25297,-9.88416"
         style="fill:none;stroke:#808080;stroke-width:2;stroke-linecap:butt;stroke-linejoin:miter;stroke-miterlimit:10;stroke-opacity:1;stroke-dasharray:none"
         id="path198" />
      <path
         inkscape:connector-curvature="0"
         d="m 403.57195,216.29311 c 4.35421,-7.64401 4.27213,-11.42928 -0.4024,-18.88644"
         style="fill:none;stroke:#000000;stroke-width:2;stroke-linecap:butt;stroke-linejoin:miter;stroke-miterlimit:10;stroke-opacity:1;stroke-dasharray:none"
         id="path200" />
      <path
         inkscape:connector-curvature="0"
         d="m 403.57195,216.29311 c -4.69716,-7.42479 -4.78428,-11.24322 -0.4024,-18.88644"
         style="fill:none;stroke:#000000;stroke-width:2;stroke-linecap:butt;stroke-linejoin:miter;stroke-miterlimit:10;stroke-opacity:1;stroke-dasharray:none"
         id="path202" />
      <path
         id="path8071"
         style="fill:#ffffff;fill-opacity:1;fill-rule:evenodd;stroke:#000000;stroke-width:0.30000001;stroke-miterlimit:4;stroke-dasharray:none"
         d="m 384.97084,207.13295 c 0,1.148 -0.90595,2.09732 -2.05589,2.09732 -1.16496,0 -2.07188,-0.94932 -2.07188,-2.09732 0,-1.12839 0.90692,-2.07286 2.07188,-2.07286 1.14994,0 2.05589,0.94447 2.05589,2.07286"
         inkscape:connector-curvature="0" />
      <path
         inkscape:connector-curvature="0"
         d="m 384.97084,207.13295 c 0,1.148 -0.90595,2.09732 -2.05589,2.09732 -1.16496,0 -2.07188,-0.94932 -2.07188,-2.09732 0,-1.12839 0.90692,-2.07286 2.07188,-2.07286 1.14994,0 2.05589,0.94447 2.05589,2.07286"
         style="fill:#ffffff;fill-opacity:1;fill-rule:evenodd;stroke:#000000;stroke-width:0.30000001;stroke-miterlimit:4;stroke-dasharray:none"
         id="path8084" />
      <path
         id="path8071-8"
         style="fill:#ffffff;fill-opacity:1;fill-rule:evenodd;stroke:#000000;stroke-width:0.30000001;stroke-miterlimit:4;stroke-dasharray:none"
         d="m 425.89007,206.46969 c 0,1.148 -0.90595,2.09732 -2.05589,2.09732 -1.16496,0 -2.07188,-0.94932 -2.07188,-2.09732 0,-1.12839 0.90692,-2.07286 2.07188,-2.07286 1.14994,0 2.05589,0.94447 2.05589,2.07286"
         inkscape:connector-curvature="0" />
      <path
         id="path8071-3"
         style="fill:#ffffff;fill-opacity:1;fill-rule:evenodd;stroke:#000000;stroke-width:0.30000001;stroke-miterlimit:4;stroke-dasharray:none"
         d="m 405.19732,197.45752 c 0,1.148 -0.90595,2.09732 -2.05589,2.09732 -1.16496,0 -2.07188,-0.94932 -2.07188,-2.09732 0,-1.12839 0.90692,-2.07286 2.07188,-2.07286 1.14994,0 2.05589,0.94447 2.05589,2.07286"
         inkscape:connector-curvature="0" />
      <path
         id="path8071-9"
         style="fill:#ffffff;fill-opacity:1;fill-rule:evenodd;stroke:#000000;stroke-width:0.30000001;stroke-miterlimit:4;stroke-dasharray:none"
         d="m 405.55549,216.3409 c 0,1.148 -0.90595,2.09732 -2.05589,2.09732 -1.16496,0 -2.07188,-0.94932 -2.07188,-2.09732 0,-1.12839 0.90692,-2.07286 2.07188,-2.07286 1.14994,0 2.05589,0.94447 2.05589,2.07286"
         inkscape:connector-curvature="0" />
    </g>
    <path
       id="path8157"
       style="fill:none;stroke:#000000;stroke-width:2;stroke-linecap:butt;stroke-linejoin:miter;stroke-miterlimit:10;stroke-opacity:1;stroke-dasharray:none"
       d="M 311.56362,270.9587 300.46735,251.0316"
       inkscape:connector-curvature="0"
       sodipodi:nodetypes="cc" />
    <path
       sodipodi:nodetypes="cc"
       inkscape:connector-curvature="0"
       d="m 289.20508,270.89232 11.09627,-19.9271"
       style="fill:none;stroke:#000000;stroke-width:2;stroke-linecap:butt;stroke-linejoin:miter;stroke-miterlimit:10;stroke-opacity:1;stroke-dasharray:none"
       id="path8159" />
    <path
       inkscape:connector-curvature="0"
       d="M 311.56362,270.9587 289.2798,270.75814"
       style="fill:none;stroke:#000000;stroke-width:2;stroke-linecap:butt;stroke-linejoin:miter;stroke-miterlimit:10;stroke-opacity:1;stroke-dasharray:none"
       id="path8179"
       sodipodi:nodetypes="cc" />
    <path
       id="path8183"
       style="fill:none;stroke:#000000;stroke-width:2;stroke-linecap:butt;stroke-linejoin:miter;stroke-miterlimit:10;stroke-opacity:1;stroke-dasharray:none"
       d="m 289.20508,270.89232 c -1.96186,-8.97321 -1.28609,-16.86034 11.09627,-19.9271"
       inkscape:connector-curvature="0"
       sodipodi:nodetypes="cc" />
    <path
       sodipodi:nodetypes="cc"
       inkscape:connector-curvature="0"
       d="m 311.14561,270.9587 c 1.96186,-8.97321 1.28609,-16.86034 -11.09627,-19.9271"
       style="fill:none;stroke:#000000;stroke-width:2;stroke-linecap:butt;stroke-linejoin:miter;stroke-miterlimit:10;stroke-opacity:1;stroke-dasharray:none"
       id="path8185" />
    <path
       id="path8183-1"
       style="fill:none;stroke:#000000;stroke-width:2;stroke-linecap:butt;stroke-linejoin:miter;stroke-miterlimit:10;stroke-opacity:1;stroke-dasharray:none"
       d="m 311.56362,270.9587 c -6.99795,5.94945 -14.2771,9.06031 -22.80425,-0.42734"
       inkscape:connector-curvature="0"
       sodipodi:nodetypes="cc" />
    <path
       inkscape:connector-curvature="0"
       d="m 300.05439,251.40873 -0.13828,-16.07181"
       style="fill:none;stroke:#000000;stroke-width:2;stroke-linecap:butt;stroke-linejoin:miter;stroke-miterlimit:10;stroke-opacity:1;stroke-dasharray:none"
       id="path8179-6"
       sodipodi:nodetypes="cc" />
    <path
       sodipodi:nodetypes="cc"
       id="path8255"
       style="fill:none;stroke:#000000;stroke-width:2;stroke-linecap:butt;stroke-linejoin:miter;stroke-miterlimit:10;stroke-opacity:1;stroke-dasharray:none"
       d="m 300.05439,251.40873 -8.04447,-13.92584"
       inkscape:connector-curvature="0" />
    <path
       inkscape:connector-curvature="0"
       d="m 300.05439,251.40873 8.04447,-13.92584"
       style="fill:none;stroke:#000000;stroke-width:2;stroke-linecap:butt;stroke-linejoin:miter;stroke-miterlimit:10;stroke-opacity:1;stroke-dasharray:none"
       id="path8257"
       sodipodi:nodetypes="cc" />
    <path
       inkscape:connector-curvature="0"
       d="m 302.11827,251.3965 c 0,1.148 -0.90595,2.09732 -2.05589,2.09732 -1.16496,0 -2.07188,-0.94932 -2.07188,-2.09732 0,-1.12839 0.90692,-2.07286 2.07188,-2.07286 1.14994,0 2.05589,0.94447 2.05589,2.07286"
       style="fill:#ffffff;fill-opacity:1;fill-rule:evenodd;stroke:#000000;stroke-width:0.30000001;stroke-miterlimit:4;stroke-dasharray:none"
       id="path8129-8" />
    <path
       id="path8259"
       style="fill:#ffffff;fill-opacity:1;fill-rule:evenodd;stroke:#000000;stroke-width:0.30000001;stroke-miterlimit:4;stroke-dasharray:none"
       d="m 294.46537,238.1485 c 0,1.148 -0.90595,2.09732 -2.05589,2.09732 -1.16496,0 -2.07188,-0.94932 -2.07188,-2.09732 0,-1.12839 0.90692,-2.07286 2.07188,-2.07286 1.14994,0 2.05589,0.94447 2.05589,2.07286"
       inkscape:connector-curvature="0" />
    <path
       id="path8261"
       style="fill:#ffffff;fill-opacity:1;fill-rule:evenodd;stroke:#000000;stroke-width:0.30000001;stroke-miterlimit:4;stroke-dasharray:none"
       d="m 301.98129,235.47527 c 0,1.148 -0.90595,2.09732 -2.05589,2.09732 -1.16496,0 -2.07188,-0.94932 -2.07188,-2.09732 0,-1.12839 0.90692,-2.07286 2.07188,-2.07286 1.14994,0 2.05589,0.94447 2.05589,2.07286"
       inkscape:connector-curvature="0" />
    <path
       id="path8263"
       style="fill:#ffffff;fill-opacity:1;fill-rule:evenodd;stroke:#000000;stroke-width:0.30000001;stroke-miterlimit:4;stroke-dasharray:none"
       d="m 310.16274,237.47066 c 0,1.148 -0.90595,2.09732 -2.05589,2.09732 -1.16496,0 -2.07188,-0.94932 -2.07188,-2.09732 0,-1.12839 0.90692,-2.07286 2.07188,-2.07286 1.14994,0 2.05589,0.94447 2.05589,2.07286"
       inkscape:connector-curvature="0" />
    <g
       transform="matrix(-0.5,-0.8660254,0.8660254,-0.5,271.75653,732.11313)"
       id="g8326">
      <path
         inkscape:connector-curvature="0"
         d="m 390.59851,245.65848 -0.13828,-16.07181"
         style="fill:none;stroke:#000000;stroke-width:2;stroke-linecap:butt;stroke-linejoin:miter;stroke-miterlimit:10;stroke-opacity:1;stroke-dasharray:none"
         id="path8298"
         sodipodi:nodetypes="cc" />
      <path
         sodipodi:nodetypes="cc"
         id="path8300"
         style="fill:none;stroke:#000000;stroke-width:2;stroke-linecap:butt;stroke-linejoin:miter;stroke-miterlimit:10;stroke-opacity:1;stroke-dasharray:none"
         d="m 390.59851,245.65848 -8.04447,-13.92584"
         inkscape:connector-curvature="0" />
      <path
         inkscape:connector-curvature="0"
         d="m 390.59851,245.65848 8.04447,-13.92584"
         style="fill:none;stroke:#000000;stroke-width:2;stroke-linecap:butt;stroke-linejoin:miter;stroke-miterlimit:10;stroke-opacity:1;stroke-dasharray:none"
         id="path8302"
         sodipodi:nodetypes="cc" />
      <path
         inkscape:connector-curvature="0"
         d="m 392.66239,245.64625 c 0,1.148 -0.90595,2.09732 -2.05589,2.09732 -1.16496,0 -2.07188,-0.94932 -2.07188,-2.09732 0,-1.12839 0.90692,-2.07286 2.07188,-2.07286 1.14994,0 2.05589,0.94447 2.05589,2.07286"
         style="fill:#ffffff;fill-opacity:1;fill-rule:evenodd;stroke:#000000;stroke-width:0.30000001;stroke-miterlimit:4;stroke-dasharray:none"
         id="path8304" />
      <path
         id="path8306"
         style="fill:#ffffff;fill-opacity:1;fill-rule:evenodd;stroke:#000000;stroke-width:0.30000001;stroke-miterlimit:4;stroke-dasharray:none"
         d="m 385.00949,232.39825 c 0,1.148 -0.90595,2.09732 -2.05589,2.09732 -1.16496,0 -2.07188,-0.94932 -2.07188,-2.09732 0,-1.12839 0.90692,-2.07286 2.07188,-2.07286 1.14994,0 2.05589,0.94447 2.05589,2.07286"
         inkscape:connector-curvature="0" />
      <path
         id="path8308"
         style="fill:#ffffff;fill-opacity:1;fill-rule:evenodd;stroke:#000000;stroke-width:0.30000001;stroke-miterlimit:4;stroke-dasharray:none"
         d="m 392.52541,229.72502 c 0,1.148 -0.90595,2.09732 -2.05589,2.09732 -1.16496,0 -2.07188,-0.94932 -2.07188,-2.09732 0,-1.12839 0.90692,-2.07286 2.07188,-2.07286 1.14994,0 2.05589,0.94447 2.05589,2.07286"
         inkscape:connector-curvature="0" />
      <path
         id="path8310"
         style="fill:#ffffff;fill-opacity:1;fill-rule:evenodd;stroke:#000000;stroke-width:0.30000001;stroke-miterlimit:4;stroke-dasharray:none"
         d="m 400.70686,231.72041 c 0,1.148 -0.90595,2.09732 -2.05589,2.09732 -1.16496,0 -2.07188,-0.94932 -2.07188,-2.09732 0,-1.12839 0.90692,-2.07286 2.07188,-2.07286 1.14994,0 2.05589,0.94447 2.05589,2.07286"
         inkscape:connector-curvature="0" />
    </g>
    <g
       transform="matrix(-0.5,0.8660254,-0.8660254,-0.5,735.38561,27.804882)"
       id="g8335">
      <path
         sodipodi:nodetypes="cc"
         id="path8312"
         style="fill:none;stroke:#000000;stroke-width:2;stroke-linecap:butt;stroke-linejoin:miter;stroke-miterlimit:10;stroke-opacity:1;stroke-dasharray:none"
         d="m 422.59851,245.65848 -0.13828,-16.07181"
         inkscape:connector-curvature="0" />
      <path
         inkscape:connector-curvature="0"
         d="m 422.59851,245.65848 -8.04447,-13.92584"
         style="fill:none;stroke:#000000;stroke-width:2;stroke-linecap:butt;stroke-linejoin:miter;stroke-miterlimit:10;stroke-opacity:1;stroke-dasharray:none"
         id="path8314"
         sodipodi:nodetypes="cc" />
      <path
         sodipodi:nodetypes="cc"
         id="path8316"
         style="fill:none;stroke:#000000;stroke-width:2;stroke-linecap:butt;stroke-linejoin:miter;stroke-miterlimit:10;stroke-opacity:1;stroke-dasharray:none"
         d="m 422.59851,245.65848 8.04447,-13.92584"
         inkscape:connector-curvature="0" />
      <path
         id="path8318"
         style="fill:#ffffff;fill-opacity:1;fill-rule:evenodd;stroke:#000000;stroke-width:0.30000001;stroke-miterlimit:4;stroke-dasharray:none"
         d="m 424.66239,245.64625 c 0,1.148 -0.90595,2.09732 -2.05589,2.09732 -1.16496,0 -2.07188,-0.94932 -2.07188,-2.09732 0,-1.12839 0.90692,-2.07286 2.07188,-2.07286 1.14994,0 2.05589,0.94447 2.05589,2.07286"
         inkscape:connector-curvature="0" />
      <path
         inkscape:connector-curvature="0"
         d="m 417.00949,232.39825 c 0,1.148 -0.90595,2.09732 -2.05589,2.09732 -1.16496,0 -2.07188,-0.94932 -2.07188,-2.09732 0,-1.12839 0.90692,-2.07286 2.07188,-2.07286 1.14994,0 2.05589,0.94447 2.05589,2.07286"
         style="fill:#ffffff;fill-opacity:1;fill-rule:evenodd;stroke:#000000;stroke-width:0.30000001;stroke-miterlimit:4;stroke-dasharray:none"
         id="path8320" />
      <path
         inkscape:connector-curvature="0"
         d="m 424.52541,229.72502 c 0,1.148 -0.90595,2.09732 -2.05589,2.09732 -1.16496,0 -2.07188,-0.94932 -2.07188,-2.09732 0,-1.12839 0.90692,-2.07286 2.07188,-2.07286 1.14994,0 2.05589,0.94447 2.05589,2.07286"
         style="fill:#ffffff;fill-opacity:1;fill-rule:evenodd;stroke:#000000;stroke-width:0.30000001;stroke-miterlimit:4;stroke-dasharray:none"
         id="path8322" />
      <path
         inkscape:connector-curvature="0"
         d="m 432.70686,231.72041 c 0,1.148 -0.90595,2.09732 -2.05589,2.09732 -1.16496,0 -2.07188,-0.94932 -2.07188,-2.09732 0,-1.12839 0.90692,-2.07286 2.07188,-2.07286 1.14994,0 2.05589,0.94447 2.05589,2.07286"
         style="fill:#ffffff;fill-opacity:1;fill-rule:evenodd;stroke:#000000;stroke-width:0.30000001;stroke-miterlimit:4;stroke-dasharray:none"
         id="path8324" />
    </g>
    <g
       id="g8697"
       transform="matrix(0.86586743,0,0,0.86586743,88.297049,180.57436)"
       ns0:preamble=""
       ns0:text="EUCLID$_1$">
      <defs
         id="defs8699">
        <g
           id="g8701">
          <symbol
             id="textext-c1efacff-0"
             overflow="visible"
             style="overflow:visible">
            <path
               id="path8704"
               d=""
               style="stroke:none"
               inkscape:connector-curvature="0" />
          </symbol>
          <symbol
             id="textext-c1efacff-1"
             overflow="visible"
             style="overflow:visible">
            <path
               id="path8707"
               d="m 1.359375,-0.78125 c 0,0.359375 -0.03125,0.46875 -0.796875,0.46875 l -0.234375,0 0,0.3125 5.75,0 L 6.5,-2.578125 l -0.25,0 C 6,-1.03125 5.765625,-0.3125 4.0625,-0.3125 l -1.328125,0 C 2.265625,-0.3125 2.25,-0.375 2.25,-0.703125 l 0,-2.671875 0.890625,0 c 0.96875,0 1.078125,0.328125 1.078125,1.171875 l 0.25,0 0,-2.640625 -0.25,0 c 0,0.859375 -0.109375,1.171875 -1.078125,1.171875 l -0.890625,0 0,-2.40625 c 0,-0.328125 0.015625,-0.390625 0.484375,-0.390625 l 1.28125,0 c 1.53125,0 1.796875,0.546875 1.953125,1.9375 l 0.25,0 -0.28125,-2.25 -5.609375,0 0,0.3125 0.234375,0 c 0.765625,0 0.796875,0.109375 0.796875,0.46875 z"
               style="stroke:none"
               inkscape:connector-curvature="0" />
          </symbol>
          <symbol
             id="textext-c1efacff-2"
             overflow="visible"
             style="overflow:visible">
            <path
               id="path8710"
               d="m 5.796875,-2.296875 c 0,1.40625 -0.96875,2.203125 -1.90625,2.203125 -0.46875,0 -1.640625,-0.25 -1.640625,-2.140625 l 0,-3.796875 C 2.25,-6.390625 2.265625,-6.5 3.03125,-6.5 l 0.234375,0 0,-0.3125 c -0.34375,0.03125 -1.078125,0.03125 -1.46875,0.03125 -0.375,0 -1.125,0 -1.46875,-0.03125 l 0,0.3125 0.234375,0 c 0.765625,0 0.796875,0.109375 0.796875,0.46875 l 0,3.765625 c 0,1.390625 1.15625,2.484375 2.515625,2.484375 1.140625,0 2.03125,-0.921875 2.203125,-2.0625 0.03125,-0.203125 0.03125,-0.296875 0.03125,-0.6875 l 0,-3.1875 c 0,-0.328125 0,-0.78125 1.03125,-0.78125 l 0,-0.3125 c -0.359375,0.015625 -0.84375,0.03125 -1.171875,0.03125 -0.359375,0 -0.828125,-0.015625 -1.1875,-0.03125 l 0,0.3125 c 1.015625,0 1.015625,0.46875 1.015625,0.734375 z"
               style="stroke:none"
               inkscape:connector-curvature="0" />
          </symbol>
          <symbol
             id="textext-c1efacff-3"
             overflow="visible"
             style="overflow:visible">
            <path
               id="path8713"
               d="m 0.5625,-3.40625 c 0,2.0625 1.609375,3.625 3.46875,3.625 1.625,0 2.59375,-1.390625 2.59375,-2.546875 C 6.625,-2.421875 6.625,-2.5 6.5,-2.5 6.390625,-2.5 6.390625,-2.4375 6.375,-2.328125 6.296875,-0.90625 5.234375,-0.09375 4.140625,-0.09375 c -0.609375,0 -2.5625,-0.328125 -2.5625,-3.3125 0,-2.96875 1.953125,-3.3125 2.5625,-3.3125 1.078125,0 1.96875,0.90625 2.171875,2.359375 0.015625,0.140625 0.015625,0.171875 0.15625,0.171875 0.15625,0 0.15625,-0.03125 0.15625,-0.234375 l 0,-2.359375 c 0,-0.171875 0,-0.25 -0.109375,-0.25 -0.03125,0 -0.078125,0 -0.15625,0.125 l -0.5,0.734375 C 5.5,-6.53125 4.984375,-7.03125 4.03125,-7.03125 c -1.875,0 -3.46875,1.59375 -3.46875,3.625 z"
               style="stroke:none"
               inkscape:connector-curvature="0" />
          </symbol>
          <symbol
             id="textext-c1efacff-4"
             overflow="visible"
             style="overflow:visible">
            <path
               id="path8716"
               d="m 5.796875,-2.578125 -0.25,0 c -0.109375,1.015625 -0.25,2.265625 -2,2.265625 l -0.8125,0 C 2.265625,-0.3125 2.25,-0.375 2.25,-0.703125 l 0,-5.3125 C 2.25,-6.359375 2.25,-6.5 3.1875,-6.5 l 0.328125,0 0,-0.3125 C 3.15625,-6.78125 2.25,-6.78125 1.84375,-6.78125 c -0.390625,0 -1.171875,0 -1.515625,-0.03125 l 0,0.3125 0.234375,0 c 0.765625,0 0.796875,0.109375 0.796875,0.46875 l 0,5.25 c 0,0.359375 -0.03125,0.46875 -0.796875,0.46875 l -0.234375,0 0,0.3125 5.1875,0 z"
               style="stroke:none"
               inkscape:connector-curvature="0" />
          </symbol>
          <symbol
             id="textext-c1efacff-5"
             overflow="visible"
             style="overflow:visible">
            <path
               id="path8719"
               d="M 2.25,-6.03125 C 2.25,-6.390625 2.265625,-6.5 3.0625,-6.5 l 0.25,0 0,-0.3125 c -0.34375,0.03125 -1.125,0.03125 -1.515625,0.03125 -0.375,0 -1.171875,0 -1.515625,-0.03125 l 0,0.3125 0.25,0 c 0.796875,0 0.828125,0.109375 0.828125,0.46875 l 0,5.25 c 0,0.359375 -0.03125,0.46875 -0.828125,0.46875 l -0.25,0 0,0.3125 c 0.34375,-0.03125 1.140625,-0.03125 1.515625,-0.03125 0.390625,0 1.171875,0 1.515625,0.03125 l 0,-0.3125 -0.25,0 C 2.265625,-0.3125 2.25,-0.421875 2.25,-0.78125 z"
               style="stroke:none"
               inkscape:connector-curvature="0" />
          </symbol>
          <symbol
             id="textext-c1efacff-6"
             overflow="visible"
             style="overflow:visible">
            <path
               id="path8722"
               d="m 0.34375,-6.8125 0,0.3125 0.25,0 c 0.765625,0 0.78125,0.109375 0.78125,0.46875 l 0,5.25 c 0,0.359375 -0.015625,0.46875 -0.78125,0.46875 l -0.25,0 0,0.3125 L 4,0 C 5.671875,0 7.046875,-1.46875 7.046875,-3.34375 7.046875,-5.25 5.703125,-6.8125 4,-6.8125 z m 2.375,6.5 C 2.25,-0.3125 2.234375,-0.375 2.234375,-0.703125 l 0,-5.390625 C 2.234375,-6.4375 2.25,-6.5 2.71875,-6.5 l 1,0 c 0.625,0 1.3125,0.21875 1.8125,0.921875 0.4375,0.59375 0.515625,1.453125 0.515625,2.234375 0,1.09375 -0.1875,1.703125 -0.546875,2.1875 -0.203125,0.265625 -0.765625,0.84375 -1.765625,0.84375 z"
               style="stroke:none"
               inkscape:connector-curvature="0" />
          </symbol>
          <symbol
             id="textext-c1efacff-7"
             overflow="visible"
             style="overflow:visible">
            <path
               id="path8725"
               d=""
               style="stroke:none"
               inkscape:connector-curvature="0" />
          </symbol>
          <symbol
             id="textext-c1efacff-8"
             overflow="visible"
             style="overflow:visible">
            <path
               id="path8728"
               d="m 2.328125,-4.4375 c 0,-0.1875 0,-0.1875 -0.203125,-0.1875 -0.453125,0.4375 -1.078125,0.4375 -1.359375,0.4375 l 0,0.25 c 0.15625,0 0.625,0 1,-0.1875 l 0,3.546875 c 0,0.234375 0,0.328125 -0.6875,0.328125 l -0.265625,0 0,0.25 c 0.125,0 0.984375,-0.03125 1.234375,-0.03125 0.21875,0 1.09375,0.03125 1.25,0.03125 l 0,-0.25 -0.265625,0 c -0.703125,0 -0.703125,-0.09375 -0.703125,-0.328125 z"
               style="stroke:none"
               inkscape:connector-curvature="0" />
          </symbol>
        </g>
      </defs>
      <g
         id="textext-c1efacff-9">
        <g
           id="g8731"
           style="fill:#000000;fill-opacity:1">
          <use
             id="use8733"
             y="134.765"
             x="223.43201"
             xlink:href="#textext-c1efacff-1"
             width="744.09448"
             height="1052.3622" />
          <use
             id="use8735"
             y="134.765"
             x="230.21254"
             xlink:href="#textext-c1efacff-2"
             width="744.09448"
             height="1052.3622" />
          <use
             id="use8737"
             y="134.765"
             x="237.68449"
             xlink:href="#textext-c1efacff-3"
             width="744.09448"
             height="1052.3622" />
          <use
             id="use8739"
             y="134.765"
             x="244.87949"
             xlink:href="#textext-c1efacff-4"
             width="744.09448"
             height="1052.3622" />
          <use
             id="use8741"
             y="134.765"
             x="251.10611"
             xlink:href="#textext-c1efacff-5"
             width="744.09448"
             height="1052.3622" />
          <use
             id="use8743"
             y="134.765"
             x="254.7036"
             xlink:href="#textext-c1efacff-6"
             width="744.09448"
             height="1052.3622" />
        </g>
        <g
           id="g8745"
           style="fill:#000000;fill-opacity:1">
          <use
             id="use8747"
             y="136.259"
             x="262.314"
             xlink:href="#textext-c1efacff-8"
             width="744.09448"
             height="1052.3622" />
        </g>
      </g>
    </g>
  </g>
</svg>
