<?xml version="1.0" encoding="UTF-8" standalone="no"?>
<!-- Created with Inkscape (http://www.inkscape.org/) -->

<svg
   xmlns:ns0="http://www.iki.fi/pav/software/textext/"
   xmlns:dc="http://purl.org/dc/elements/1.1/"
   xmlns:cc="http://creativecommons.org/ns#"
   xmlns:rdf="http://www.w3.org/1999/02/22-rdf-syntax-ns#"
   xmlns:svg="http://www.w3.org/2000/svg"
   xmlns="http://www.w3.org/2000/svg"
   xmlns:xlink="http://www.w3.org/1999/xlink"
   xmlns:sodipodi="http://sodipodi.sourceforge.net/DTD/sodipodi-0.dtd"
   xmlns:inkscape="http://www.inkscape.org/namespaces/inkscape"
   width="744.09448819"
   height="1052.3622047"
   id="svg5792"
   version="1.1"
   inkscape:version="0.48.3.1 r9886"
   sodipodi:docname="FennRourkeMove.svg">
  <sodipodi:namedview
     id="base"
     pagecolor="#ffffff"
     bordercolor="#666666"
     borderopacity="1.0"
     inkscape:pageopacity="0.0"
     inkscape:pageshadow="2"
     inkscape:zoom="1.4331081"
     inkscape:cx="90.474167"
     inkscape:cy="657.50965"
     inkscape:document-units="px"
     inkscape:current-layer="layer1"
     showgrid="false"
     inkscape:window-width="1855"
     inkscape:window-height="1056"
     inkscape:window-x="65"
     inkscape:window-y="24"
     inkscape:window-maximized="1" />
  <defs
     id="defs5794" />
  <metadata
     id="metadata5797">
    <rdf:RDF>
      <cc:Work
         rdf:about="">
        <dc:format>image/svg+xml</dc:format>
        <dc:type
           rdf:resource="http://purl.org/dc/dcmitype/StillImage" />
        <dc:title></dc:title>
      </cc:Work>
    </rdf:RDF>
  </metadata>
  <g
     id="layer1"
     inkscape:groupmode="layer"
     inkscape:label="Layer 1">
    <path
       d="m 321.66293,275.25351 24.08215,0"
       style="fill:none;stroke:#000000;stroke-width:0.99179995;stroke-linecap:butt;stroke-linejoin:miter;stroke-miterlimit:4;stroke-opacity:1;stroke-dasharray:none"
       id="path36"
       inkscape:connector-curvature="0" />
    <path
       d="m 351.56656,275.25351 -6.86698,3.97091 0,-7.93811 6.86698,3.9672 z"
       style="fill:#ffffff;fill-opacity:1;fill-rule:evenodd;stroke:#000000;stroke-width:0.99179995;stroke-linecap:butt;stroke-linejoin:miter;stroke-miterlimit:4;stroke-opacity:1;stroke-dasharray:none"
       id="path40"
       inkscape:connector-curvature="0" />
    <path
       d="m 239.86657,298.25087 0,33.22654"
       style="fill:none;stroke:#000000;stroke-width:0.99179995;stroke-linecap:butt;stroke-linejoin:miter;stroke-miterlimit:4;stroke-opacity:1;stroke-dasharray:none"
       id="path44"
       inkscape:connector-curvature="0" />
    <path
       d="m 259.85753,263.29612 c 13.41038,5.20075 15.84649,14.86708 5.43879,21.5704 -10.40274,6.70209 -29.7292,7.92201 -43.13958,2.72125 -13.40418,-5.20075 -15.84525,-14.86707 -5.43878,-21.5704 1.32777,-0.85667 2.59603,-1.51994 4.23746,-2.2266"
       style="fill:none;stroke:#000000;stroke-width:0.99179995;stroke-linecap:butt;stroke-linejoin:miter;stroke-miterlimit:4;stroke-opacity:1;stroke-dasharray:none"
       id="path48"
       inkscape:connector-curvature="0" />
    <path
       d="m 239.86657,238.74287 0,46.61708"
       style="fill:none;stroke:#000000;stroke-width:0.99179995;stroke-linecap:butt;stroke-linejoin:miter;stroke-miterlimit:4;stroke-opacity:1;stroke-dasharray:none"
       id="path56"
       inkscape:connector-curvature="0" />
    <path
       d="m 424.16904,240.66572 0,35.52255"
       style="fill:none;stroke:#000000;stroke-width:0.99179995;stroke-linecap:butt;stroke-linejoin:miter;stroke-miterlimit:4;stroke-opacity:1;stroke-dasharray:none"
       id="path60"
       inkscape:connector-curvature="0" />
    <path
       d="m 434.08704,240.66572 0,35.52255"
       style="fill:none;stroke:#000000;stroke-width:0.99179995;stroke-linecap:butt;stroke-linejoin:miter;stroke-miterlimit:4;stroke-opacity:1;stroke-dasharray:none"
       id="path64"
       inkscape:connector-curvature="0" />
    <path
       d="m 444.00504,240.66572 0,35.52255"
       style="fill:none;stroke:#000000;stroke-width:0.99179995;stroke-linecap:butt;stroke-linejoin:miter;stroke-miterlimit:4;stroke-opacity:1;stroke-dasharray:none"
       id="path68"
       inkscape:connector-curvature="0" />
    <path
       d="m 413.55306,275.8052 43.74955,0 0,20.67902 -43.74955,0 0,-20.67902 z"
       style="fill:#ffffff;fill-opacity:1;fill-rule:nonzero;stroke:#000000;stroke-width:0.99179995;stroke-linecap:butt;stroke-linejoin:miter;stroke-miterlimit:4;stroke-opacity:1;stroke-dasharray:none"
       id="path72"
       inkscape:connector-curvature="0" />
    <path
       d="m 424.16904,296.95408 0,35.52133"
       style="fill:none;stroke:#000000;stroke-width:0.99179995;stroke-linecap:butt;stroke-linejoin:miter;stroke-miterlimit:4;stroke-opacity:1;stroke-dasharray:none"
       id="path76"
       inkscape:connector-curvature="0" />
    <path
       d="m 434.08704,296.95408 0,35.52133"
       style="fill:none;stroke:#000000;stroke-width:0.99179995;stroke-linecap:butt;stroke-linejoin:miter;stroke-miterlimit:4;stroke-opacity:1;stroke-dasharray:none"
       id="path80"
       inkscape:connector-curvature="0" />
    <path
       d="m 444.00504,296.95408 0,35.52133"
       style="fill:none;stroke:#000000;stroke-width:0.99179995;stroke-linecap:butt;stroke-linejoin:miter;stroke-miterlimit:4;stroke-opacity:1;stroke-dasharray:none"
       id="path84"
       inkscape:connector-curvature="0" />
    <path
       d="m 227.96373,296.27098 0,35.20643"
       style="fill:none;stroke:#000000;stroke-width:0.99179995;stroke-linecap:butt;stroke-linejoin:miter;stroke-miterlimit:4;stroke-opacity:1;stroke-dasharray:none"
       id="path92"
       inkscape:connector-curvature="0" />
    <path
       d="m 227.96373,238.74287 0,44.631"
       style="fill:none;stroke:#000000;stroke-width:0.99179995;stroke-linecap:butt;stroke-linejoin:miter;stroke-miterlimit:4;stroke-opacity:1;stroke-dasharray:none"
       id="path96"
       inkscape:connector-curvature="0" />
    <path
       d="m 251.76569,296.27098 0,35.20643"
       style="fill:none;stroke:#000000;stroke-width:0.99179995;stroke-linecap:butt;stroke-linejoin:miter;stroke-miterlimit:4;stroke-opacity:1;stroke-dasharray:none"
       id="path100"
       inkscape:connector-curvature="0" />
    <path
       d="m 251.76569,238.74287 0,44.631"
       style="fill:none;stroke:#000000;stroke-width:0.99179995;stroke-linecap:butt;stroke-linejoin:miter;stroke-miterlimit:4;stroke-opacity:1;stroke-dasharray:none"
       id="path104"
       inkscape:connector-curvature="0" />
    <text
       y="360.26941"
       x="154.76917"
       id="text124"
       style="font-size:15px">
      <tspan
         id="tspan126"
         y="360.26941"
         x="154.76917"
         style="font-size:12.45324993px;font-variant:normal;writing-mode:lr-tb;fill:#000000;fill-opacity:1;fill-rule:nonzero;stroke:none;font-family:Nimbus Roman No9 L;-inkscape-font-specification:NimbusRomNo9L-Regu">F</tspan>
    </text>
    <text
       y="360.26941"
       x="162.31541"
       id="text128"
       style="font-size:15px">
      <tspan
         id="tspan130"
         sodipodi:role="line"
         y="360.26941"
         x="162.31541 166.25064 174.06134 181.87202 189.12483"
         style="font-size:9.96262455px;font-variant:normal;writing-mode:lr-tb;fill:#000000;fill-opacity:1;fill-rule:nonzero;stroke:none;font-family:Nimbus Roman No9 L;-inkscape-font-specification:NimbusRomNo9L-Regu">IGURE</tspan>
    </text>
    <text
       y="360.26941"
       x="200.58415"
       id="text132"
       style="font-size:15px">
      <tspan
         id="tspan134"
         sodipodi:role="line"
         y="360.26941"
         x="200.58415 207.43344 217.08472 230.8331 234.2951 240.52173 246.74837 252.97498 256.43698 262.6636 268.89023 272.35223 277.88147 283.41074 291.62988 297.85648 301.31848 307.23376 316.22501 320.37198 326.5986 332.51389 341.50513 347.73175 359.63702 367.24603 373.47263 383.759 389.98563 396.21228 405.90088 412.1275 417.65674"
         style="font-size:12.45324993px;font-variant:normal;writing-mode:lr-tb;fill:#000000;fill-opacity:1;fill-rule:nonzero;stroke:none;font-family:Nimbus Roman No9 L;-inkscape-font-specification:NimbusRomNo9L-Regu">2.Atopologicalblow-down.Thenumber</tspan>
    </text>
    <text
       y="360.26941"
       x="426.56287"
       id="text136"
       style="font-size:15px">
      <tspan
         id="tspan138"
         y="360.26941"
         x="426.56287"
         style="font-size:12.45324993px;font-variant:normal;writing-mode:lr-tb;fill:#000000;fill-opacity:1;fill-rule:nonzero;stroke:none;font-family:Nimbus Roman No9 L;-inkscape-font-specification:NimbusRomNo9L-ReguItal">n</tspan>
    </text>
    <text
       y="360.26941"
       x="449.83664"
       id="text144"
       style="font-size:15px">
      <tspan
         id="tspan146"
         sodipodi:role="line"
         y="360.26941"
         x="449.83664 460.82043 467.04703 475.95111 481.99094 487.52017 491.66714 495.12912 498.59113 504.12036 509.64963"
         style="font-size:12.45324993px;font-variant:normal;writing-mode:lr-tb;fill:#000000;fill-opacity:1;fill-rule:nonzero;stroke:none;font-family:Nimbus Roman No9 L;-inkscape-font-specification:NimbusRomNo9L-Regu">0ofvertical</tspan>
      <tspan
         id="tspan148"
         sodipodi:role="line"
         y="375.21317"
         x="154.45792 159.30222 162.76424 166.91116 172.4404 178.66704 184.89365 193.86 199.38924 203.53618 209.76279 214.60712 219.45142 222.91344 229.14006 239.48871 242.95071 249.17734 258.82861 265.05521 271.28183 277.50848 283.73508 289.9617 297.54575 301.00772 309.97409 315.50333 319.65027 325.87689 329.33887 332.8009 336.94781 342.47708 346.62399 356.97266 361.11957 367.34619 372.87543 377.0224"
         style="font-size:12.45324993px;font-variant:normal;writing-mode:lr-tb;fill:#000000;fill-opacity:1;fill-rule:nonzero;stroke:none;font-family:Nimbus Roman No9 L;-inkscape-font-specification:NimbusRomNo9L-Regu">strandscrossingtheunknotisarbitrary(here</tspan>
    </text>
    <text
       y="375.21317"
       x="386.67041"
       id="text150"
       style="font-size:15px">
      <tspan
         id="tspan152"
         y="375.21317"
         x="386.67041"
         style="font-size:12.45324993px;font-variant:normal;writing-mode:lr-tb;fill:#000000;fill-opacity:1;fill-rule:nonzero;stroke:none;font-family:Nimbus Roman No9 L;-inkscape-font-specification:NimbusRomNo9L-ReguItal">n</tspan>
    </text>
    <text
       y="375.21317"
       x="396.2254"
       id="text154"
       style="font-size:15px">
      <tspan
         id="tspan156"
         y="375.21317"
         x="396.2254"
         style="font-size:12.45324993px;font-variant:normal;font-weight:normal;writing-mode:lr-tb;fill:#000000;fill-opacity:1;fill-rule:nonzero;stroke:none;font-family:CMR10;-inkscape-font-specification:CMR10">=</tspan>
    </text>
    <text
       y="375.21317"
       x="409.22916"
       id="text158"
       style="font-size:15px">
      <tspan
         id="tspan160"
         sodipodi:role="line"
         y="375.21317"
         x="409.22916 415.45578 419.60269 429.60266 437.21161 443.43823 453.08948 459.31613 465.54276 475.89142 485.58002 491.10928 495.2562 501.35831 506.88754"
         style="font-size:12.45324993px;font-variant:normal;writing-mode:lr-tb;fill:#000000;fill-opacity:1;fill-rule:nonzero;stroke:none;font-family:Nimbus Roman No9 L;-inkscape-font-specification:NimbusRomNo9L-Regu">3).Theboxmarked</tspan>
      <tspan
         id="tspan162"
         sodipodi:role="line"
         y="390.15692"
         x="154.4579 163.44914 166.91115 170.37315"
         style="font-size:12.45324993px;font-variant:normal;writing-mode:lr-tb;fill:#000000;fill-opacity:1;fill-rule:nonzero;stroke:none;font-family:Nimbus Roman No9 L;-inkscape-font-specification:NimbusRomNo9L-Regu">with</tspan>
    </text>
    <text
       y="390.15692"
       x="179.71291"
       id="text164"
       style="font-size:15px">
      <tspan
         id="tspan166"
         y="390.15692"
         x="179.71291"
         style="font-size:12.45324993px;font-variant:normal;font-weight:normal;writing-mode:lr-tb;fill:#000000;fill-opacity:1;fill-rule:nonzero;stroke:none;font-family:CMR10;-inkscape-font-specification:CMR10">+</tspan>
    </text>
    <text
       y="390.15692"
       x="189.38916"
       id="text168"
       style="font-size:15px">
      <tspan
         id="tspan170"
         sodipodi:role="line"
         y="390.15692"
         x="189.38916 198.7291"
         style="font-size:12.45324993px;font-variant:normal;writing-mode:lr-tb;fill:#000000;fill-opacity:1;fill-rule:nonzero;stroke:none;font-family:Nimbus Roman No9 L;-inkscape-font-specification:NimbusRomNo9L-Regu">1(</tspan>
    </text>
    <text
       y="390.15692"
       x="202.87541"
       id="text172"
       style="font-size:15px">
      <tspan
         id="tspan174"
         y="390.15692"
         x="202.87541"
         style="font-size:12.45324993px;font-variant:normal;font-weight:normal;writing-mode:lr-tb;fill:#000000;fill-opacity:1;fill-rule:nonzero;stroke:none;font-family:CMSY10;-inkscape-font-specification:CMSY10">−</tspan>
    </text>
    <text
       y="390.15692"
       x="212.55167"
       id="text176"
       style="font-size:15px">
      <tspan
         id="tspan178"
         sodipodi:role="line"
         y="390.15692"
         x="212.55167 218.77827 226.03851 229.50053 235.72716 241.95378 245.41579 250.94502 256.47427 259.93625 265.46552 273.42313 279.64978 285.8764 294.51892 298.66589 304.89252 308.35449 314.92981 320.45908 326.68567 332.91229 339.13895 342.60095 348.13019 352.2771 357.80637 361.26834 367.495 373.0242 379.25082 388.2421 391.7041 396.54843 405.19095 409.33789 414.86713 418.32916 424.55579 430.08502 436.31165 445.30289 448.76486 453.60919 459.13846 466.39868 469.86069 478.85193 482.31396 487.15823 490.62027"
         style="font-size:12.45324993px;font-variant:normal;writing-mode:lr-tb;fill:#000000;fill-opacity:1;fill-rule:nonzero;stroke:none;font-family:Nimbus Roman No9 L;-inkscape-font-specification:NimbusRomNo9L-Regu">1)indicatesonefullcounterclockwise(clockwise)twist.</tspan>
    </text>
    <g
       id="g6406"
       ns0:preamble=""
       ns0:text="$\\pm 1$"
       transform="matrix(1.2145324,0,0,1.2145324,-1.3159365,127.09241)">
      <defs
         id="defs6408">
        <g
           id="g6410">
          <symbol
             id="textext-915ad5e2-0"
             overflow="visible"
             style="overflow:visible">
            <path
               id="path6413"
               d=""
               style="stroke:none"
               inkscape:connector-curvature="0" />
          </symbol>
          <symbol
             id="textext-915ad5e2-1"
             overflow="visible"
             style="overflow:visible">
            <path
               id="path6416"
               d="m 4.078125,-3.125 2.765625,0 c 0.171875,0 0.359375,0 0.359375,-0.1875 0,-0.203125 -0.1875,-0.203125 -0.359375,-0.203125 l -2.765625,0 0,-2.75 c 0,-0.171875 0,-0.375 -0.203125,-0.375 -0.203125,0 -0.203125,0.1875 -0.203125,0.34375 l 0,2.78125 -2.78125,0 c -0.15625,0 -0.34375,0 -0.34375,0.203125 0,0.1875 0.1875,0.1875 0.34375,0.1875 l 2.78125,0 0,2.71875 -2.78125,0 c -0.15625,0 -0.34375,0 -0.34375,0.203125 C 0.546875,0 0.734375,0 0.890625,0 L 6.84375,0 c 0.171875,0 0.359375,0 0.359375,-0.203125 0,-0.203125 -0.1875,-0.203125 -0.359375,-0.203125 l -2.765625,0 z"
               style="stroke:none"
               inkscape:connector-curvature="0" />
          </symbol>
          <symbol
             id="textext-915ad5e2-2"
             overflow="visible"
             style="overflow:visible">
            <path
               id="path6419"
               d=""
               style="stroke:none"
               inkscape:connector-curvature="0" />
          </symbol>
          <symbol
             id="textext-915ad5e2-3"
             overflow="visible"
             style="overflow:visible">
            <path
               id="path6422"
               d="m 2.9375,-6.375 c 0,-0.25 0,-0.265625 -0.234375,-0.265625 C 2.078125,-6 1.203125,-6 0.890625,-6 l 0,0.3125 c 0.203125,0 0.78125,0 1.296875,-0.265625 l 0,5.171875 c 0,0.359375 -0.03125,0.46875 -0.921875,0.46875 l -0.3125,0 0,0.3125 c 0.34375,-0.03125 1.203125,-0.03125 1.609375,-0.03125 0.390625,0 1.265625,0 1.609375,0.03125 l 0,-0.3125 -0.3125,0 c -0.90625,0 -0.921875,-0.109375 -0.921875,-0.46875 z"
               style="stroke:none"
               inkscape:connector-curvature="0" />
          </symbol>
        </g>
      </defs>
      <g
         id="textext-915ad5e2-4">
        <g
           id="g6425"
           style="fill:#000000;fill-opacity:1">
          <use
             id="use6427"
             y="134.765"
             x="223.43201"
             xlink:href="#textext-915ad5e2-1"
             width="744.09448"
             height="1052.3622" />
        </g>
        <g
           id="g6429"
           style="fill:#000000;fill-opacity:1">
          <use
             id="use6431"
             y="134.765"
             x="231.181"
             xlink:href="#textext-915ad5e2-3"
             width="744.09448"
             height="1052.3622" />
        </g>
      </g>
    </g>
    <g
       ns0:text="$\\mp 1$"
       ns0:preamble=""
       transform="matrix(1.2145324,0,0,1.2145324,156.13171,125.85366)"
       id="g6811">
      <defs
         id="defs6813">
        <g
           id="g6815">
          <symbol
             style="overflow:visible"
             overflow="visible"
             id="textext-006b536e-0">
            <path
               inkscape:connector-curvature="0"
               style="stroke:none"
               d=""
               id="path6818" />
          </symbol>
          <symbol
             style="overflow:visible"
             overflow="visible"
             id="textext-006b536e-1">
            <path
               inkscape:connector-curvature="0"
               style="stroke:none"
               d="m 4.078125,-1.46875 2.765625,0 c 0.171875,0 0.359375,0 0.359375,-0.203125 0,-0.1875 -0.1875,-0.1875 -0.359375,-0.1875 l -2.765625,0 0,-2.71875 2.765625,0 c 0.171875,0 0.359375,0 0.359375,-0.203125 0,-0.203125 -0.1875,-0.203125 -0.359375,-0.203125 l -5.953125,0 c -0.15625,0 -0.34375,0 -0.34375,0.203125 0,0.203125 0.1875,0.203125 0.34375,0.203125 l 2.78125,0 0,2.71875 -2.78125,0 c -0.15625,0 -0.34375,0 -0.34375,0.1875 0,0.203125 0.1875,0.203125 0.34375,0.203125 l 2.78125,0 0,2.78125 c 0,0.15625 0,0.34375 0.203125,0.34375 0.203125,0 0.203125,-0.21875 0.203125,-0.375 z"
               id="path6821" />
          </symbol>
          <symbol
             style="overflow:visible"
             overflow="visible"
             id="textext-006b536e-2">
            <path
               inkscape:connector-curvature="0"
               style="stroke:none"
               d=""
               id="path6824" />
          </symbol>
          <symbol
             style="overflow:visible"
             overflow="visible"
             id="textext-006b536e-3">
            <path
               inkscape:connector-curvature="0"
               style="stroke:none"
               d="m 2.9375,-6.375 c 0,-0.25 0,-0.265625 -0.234375,-0.265625 C 2.078125,-6 1.203125,-6 0.890625,-6 l 0,0.3125 c 0.203125,0 0.78125,0 1.296875,-0.265625 l 0,5.171875 c 0,0.359375 -0.03125,0.46875 -0.921875,0.46875 l -0.3125,0 0,0.3125 c 0.34375,-0.03125 1.203125,-0.03125 1.609375,-0.03125 0.390625,0 1.265625,0 1.609375,0.03125 l 0,-0.3125 -0.3125,0 c -0.90625,0 -0.921875,-0.109375 -0.921875,-0.46875 z"
               id="path6827" />
          </symbol>
        </g>
      </defs>
      <g
         id="textext-006b536e-4">
        <g
           style="fill:#000000;fill-opacity:1"
           id="g6830">
          <use
             height="1052.3622"
             width="744.09448"
             xlink:href="#textext-006b536e-1"
             x="223.43201"
             y="134.765"
             id="use6832" />
        </g>
        <g
           style="fill:#000000;fill-opacity:1"
           id="g6834">
          <use
             height="1052.3622"
             width="744.09448"
             xlink:href="#textext-006b536e-3"
             x="231.181"
             y="134.765"
             id="use6836" />
        </g>
      </g>
    </g>
  </g>
</svg>
