<?xml version="1.0" encoding="UTF-8" standalone="no"?>
<!-- Created with Inkscape (http://www.inkscape.org/) -->

<svg
   xmlns:ns0="http://www.iki.fi/pav/software/textext/"
   xmlns:dc="http://purl.org/dc/elements/1.1/"
   xmlns:cc="http://creativecommons.org/ns#"
   xmlns:rdf="http://www.w3.org/1999/02/22-rdf-syntax-ns#"
   xmlns:svg="http://www.w3.org/2000/svg"
   xmlns="http://www.w3.org/2000/svg"
   xmlns:xlink="http://www.w3.org/1999/xlink"
   xmlns:sodipodi="http://sodipodi.sourceforge.net/DTD/sodipodi-0.dtd"
   xmlns:inkscape="http://www.inkscape.org/namespaces/inkscape"
   width="744.09448819"
   height="1052.3622047"
   id="svg3456"
   version="1.1"
   inkscape:version="0.48.3.1 r9886"
   sodipodi:docname="linkL31.svg">
  <sodipodi:namedview
     id="base"
     pagecolor="#ffffff"
     bordercolor="#666666"
     borderopacity="1.0"
     inkscape:pageopacity="0.0"
     inkscape:pageshadow="2"
     inkscape:zoom="0.99421875"
     inkscape:cx="250.39321"
     inkscape:cy="341.36938"
     inkscape:document-units="px"
     inkscape:current-layer="layer1"
     showgrid="false"
     inkscape:window-width="1855"
     inkscape:window-height="1056"
     inkscape:window-x="65"
     inkscape:window-y="24"
     inkscape:window-maximized="1" />
  <defs
     id="defs3458" />
  <metadata
     id="metadata3461">
    <rdf:RDF>
      <cc:Work
         rdf:about="">
        <dc:format>image/svg+xml</dc:format>
        <dc:type
           rdf:resource="http://purl.org/dc/dcmitype/StillImage" />
        <dc:title />
      </cc:Work>
    </rdf:RDF>
  </metadata>
  <g
     inkscape:label="Layer 1"
     inkscape:groupmode="layer"
     id="layer1">
    <path
       inkscape:connector-curvature="0"
       d="m 296.31463,373.75886 5.9625,-2.77875 m 0,0 5.29875,-2.0475 m 0,0 4.73625,-1.38375 m 0,0 4.275,-0.7875 m 0,0 3.90375,-0.25875 m 0,0 3.61125,0.21375 m 0,0 3.43125,0.61875 m 0,0 3.34125,0.95625 m 0,0 3.3075,1.2375 m 0,0 3.2175,1.4625 m 0,0 3.04875,1.63125 m 0,0 2.79,1.755 m 0,0 2.44125,1.8225 m 0,0 2.01375,1.845 m 0,0 1.485,1.81125 m 0,0 0.88875,1.72125 m 0,0 0.225,1.58625 m 0,0 -0.37125,1.42875 m 0,0 -0.8775,1.22625 m 0,0 -1.2825,1.02375 m 0,0 -1.5975,0.765 m 0,0 -1.81125,0.50625 m 0,0 -1.92375,0.21375 m 0,0 -1.9575,-0.1125 m 0,0 -1.87875,-0.43875 m 0,0 -1.63125,-0.75375 m 0,0 -1.22625,-1.04625 m 0,0 -0.6525,-1.29375 m 0,0 0.10125,-1.5075 m 0,0 1.0125,-1.6875 m 0,0 2.0925,-1.85625 m 0,0 3.36375,-1.96875 m 62.42625,-4.635 5.86125,-2.34 m 0,0 5.985,-1.33875 m 0,0 6.0075,-0.46125 m 0,0 5.94,0.27 m 0,0 5.77125,0.8775 m 0,0 5.50125,1.33875 m 0,0 5.1525,1.67625 m 0,0 4.68,1.87875 m 0,0 4.1625,1.98 m 0,0 3.6,2.025 m 0,0 3.0375,2.08125 m 0,0 2.4975,2.12625 m 0,0 1.935,2.17125 m 0,0 1.38375,2.1825 m 0,0 0.8325,2.205 m 0,0 0.27,2.21625 m 0,0 -0.28125,2.205 m 0,0 -0.91125,2.21625 m 0,0 -1.60875,2.21625 m 0,0 -2.3625,2.21625 m 0,0 -3.195,2.21625 m 0,0 -4.095,2.21625 m 0,0 -5.0625,2.21625 m 0,0 -6.0975,2.205 m 0,0 -7.155,2.21625 m 0,0 -8.01,2.17125 m 0,0 -8.58375,2.10375 m 0,0 -8.92125,2.0025 m 0,0 -8.98875,1.8675 m 0,0 -8.7975,1.6875 m 0,0 -8.3475,1.485 m 0,0 -7.63875,1.2375"
       style="fill:none;stroke:#000000;stroke-width:2;stroke-linecap:round;stroke-linejoin:miter;stroke-miterlimit:10;stroke-opacity:1;stroke-dasharray:none"
       id="path580" />
    <path
       inkscape:connector-curvature="0"
       d="m 376.63963,424.39511 -6.75,0.9675 m 0,0 -6.0525,0.68625 m 0,0 -5.59125,0.41625 m 0,0 -5.41125,0.14625 m 0,0 -5.47875,-0.14625 m 0,0 -5.805,-0.41625 m 0,0 -6.39,-0.68625 m 0,0 -7.23375,-0.9675 m 0,0 -8.2575,-1.2375 m 0,0 -9.07875,-1.485 m 0,0 -9.585,-1.6875 m 0,0 -9.81,-1.8675 m 0,0 -9.7425,-2.0025 m 0,0 -9.3825,-2.10375 m 0,0 -8.71875,-2.17125 m 0,0 -7.77375,-2.21625 m 0,0 -6.5925,-2.205 m 0,0 -5.4225,-2.21625 m 0,0 -4.365,-2.21625 m 0,0 -3.36375,-2.21625 m 0,0 -2.475,-2.21625 m 0,0 -1.65375,-2.21625 m 0,0 -0.93375,-2.21625 m 0,0 -0.2925,-2.205 m 0,0 0.27,-2.21625 m 0,0 0.7875,-2.19375 m 0,0 1.2825,-2.16 m 0,0 1.72125,-2.10375 m 0,0 2.1375,-2.0475 m 0,0 2.52,-1.94625 m 0,0 2.86875,-1.845 m 0,0 3.1725,-1.7325 m 0,0 3.45375,-1.58625 m 0,0 3.67875,-1.4175 m 0,0 3.8475,-1.20375 m 0,0 3.97125,-0.95625 m 0,0 4.03875,-0.68625 m 0,0 4.06125,-0.3825 m 0,0 4.01625,-0.0225 m 0,0 3.9375,0.34875 m 0,0 3.8025,0.75375 m 0,0 3.58875,1.09125 m 0,0 3.3075,1.3725 m 0,0 2.95875,1.58625 m 0,0 2.55375,1.71 m 0,0 2.05875,1.78875 m 0,0 1.51875,1.78875 m 0,0 0.88875,1.72125 m 0,0 0.225,1.58625 m 0,0 -0.3825,1.42875 m 0,0 -0.8775,1.22625 m 0,0 -1.27125,1.02375 m 0,0 -1.5975,0.765 m 0,0 -1.81125,0.50625 m 0,0 -1.92375,0.21375 m 0,0 -1.96875,-0.1125 m 0,0 -1.8675,-0.43875 m 0,0 -1.6425,-0.75375 m 0,0 -1.2375,-1.035 m 0,0 -0.675,-1.2825 m 0,0 0.0562,-1.485 m 0,0 0.95625,-1.665 m 0,0 2.025,-1.81125 m 0,0 3.24,-1.9125"
       style="fill:none;stroke:#000000;stroke-width:2;stroke-linecap:round;stroke-linejoin:miter;stroke-miterlimit:10;stroke-opacity:1;stroke-dasharray:none"
       id="path582" />
    <path
       inkscape:connector-curvature="0"
       d="m 350.20213,373.38761 5.715,-2.655 m 0,0 5.11875,-1.94625 m 0,0 4.6125,-1.3275 m 0,0 4.185,-0.7425 m 0,0 3.8475,-0.23625 m 0,0 3.58875,0.225 m 0,0 3.42,0.63 m 0,0 3.33,0.95625 m 0,0 3.3075,1.2375 m 0,0 3.22875,1.4625 m 0,0 3.04875,1.63125 m 0,0 2.79,1.755 m 0,0 2.44125,1.8225 m 0,0 2.0025,1.845 m 0,0 1.49625,1.81125 m 0,0 0.8775,1.72125 m 0,0 0.225,1.58625 m 0,0 -0.37125,1.42875 m 0,0 -0.8775,1.22625 m 0,0 -1.2825,1.02375 m 0,0 -1.58625,0.765 m 0,0 -1.81125,0.50625 m 0,0 -1.935,0.21375 m 0,0 -1.9575,-0.1125 m 0,0 -1.8675,-0.43875 m 0,0 -1.65375,-0.75375 m 0,0 -1.24875,-1.02375 m 0,0 -0.6975,-1.27125 m 0,0 0.0112,-1.4625 m 0,0 0.88875,-1.63125 m 0,0 1.92375,-1.76625 m 0,0 3.1275,-1.845"
       style="fill:none;stroke:#000000;stroke-width:2;stroke-linecap:round;stroke-linejoin:miter;stroke-miterlimit:10;stroke-opacity:1;stroke-dasharray:none"
       id="path588" />
    <g
       id="g3003"
       transform="matrix(2.3416366,0,0,2.3416366,-139.26546,129.76937)"
       ns0:preamble=""
       ns0:text="$K$">
      <defs
         id="defs3005">
        <g
           id="g3007">
          <symbol
             id="textext-54abf235-0"
             overflow="visible">
            <path
               id="path3010"
               d=""
               style="stroke:none;" />
          </symbol>
          <symbol
             id="textext-54abf235-1"
             overflow="visible">
            <path
               id="path3013"
               d="M 5.078125 -4.03125 C 5.0625 -4.0625 5.03125 -4.140625 5.03125 -4.171875 C 5.03125 -4.171875 5.203125 -4.3125 5.3125 -4.390625 L 7.0625 -5.734375 C 8 -6.4375 8.390625 -6.46875 8.6875 -6.5 C 8.765625 -6.515625 8.859375 -6.515625 8.859375 -6.703125 C 8.859375 -6.734375 8.828125 -6.8125 8.75 -6.8125 C 8.53125 -6.8125 8.28125 -6.78125 8.046875 -6.78125 C 7.6875 -6.78125 7.296875 -6.8125 6.9375 -6.8125 C 6.875 -6.8125 6.75 -6.8125 6.75 -6.609375 C 6.75 -6.546875 6.796875 -6.515625 6.875 -6.5 C 7.09375 -6.484375 7.171875 -6.4375 7.171875 -6.296875 C 7.171875 -6.109375 6.875 -5.875 6.8125 -5.828125 L 2.9375 -2.84375 L 3.734375 -6.046875 C 3.8125 -6.40625 3.84375 -6.5 4.5625 -6.5 C 4.8125 -6.5 4.90625 -6.5 4.90625 -6.703125 C 4.90625 -6.78125 4.828125 -6.8125 4.765625 -6.8125 C 4.484375 -6.8125 3.765625 -6.78125 3.484375 -6.78125 C 3.203125 -6.78125 2.5 -6.8125 2.203125 -6.8125 C 2.140625 -6.8125 2 -6.8125 2 -6.625 C 2 -6.5 2.09375 -6.5 2.296875 -6.5 C 2.421875 -6.5 2.609375 -6.484375 2.71875 -6.484375 C 2.875 -6.453125 2.9375 -6.4375 2.9375 -6.3125 C 2.9375 -6.28125 2.9375 -6.25 2.90625 -6.125 L 1.5625 -0.78125 C 1.46875 -0.390625 1.453125 -0.3125 0.65625 -0.3125 C 0.484375 -0.3125 0.375 -0.3125 0.375 -0.125 C 0.375 0 0.5 0 0.53125 0 C 0.8125 0 1.515625 -0.03125 1.796875 -0.03125 C 2 -0.03125 2.21875 -0.015625 2.4375 -0.015625 C 2.65625 -0.015625 2.875 0 3.078125 0 C 3.15625 0 3.28125 0 3.28125 -0.203125 C 3.28125 -0.3125 3.1875 -0.3125 3 -0.3125 C 2.625 -0.3125 2.359375 -0.3125 2.359375 -0.484375 C 2.359375 -0.5625 2.40625 -0.78125 2.4375 -0.921875 C 2.578125 -1.453125 2.71875 -1.96875 2.84375 -2.5 L 4.328125 -3.65625 L 5.484375 -0.96875 C 5.609375 -0.703125 5.609375 -0.671875 5.609375 -0.625 C 5.609375 -0.3125 5.171875 -0.3125 5.078125 -0.3125 C 4.96875 -0.3125 4.859375 -0.3125 4.859375 -0.109375 C 4.859375 0 4.984375 0 5 0 C 5.40625 0 5.828125 -0.03125 6.21875 -0.03125 C 6.4375 -0.03125 6.984375 0 7.203125 0 C 7.25 0 7.375 0 7.375 -0.203125 C 7.375 -0.3125 7.265625 -0.3125 7.171875 -0.3125 C 6.765625 -0.3125 6.640625 -0.40625 6.484375 -0.75 Z "
               style="stroke:none;" />
          </symbol>
        </g>
      </defs>
      <g
         id="textext-54abf235-2">
        <g
           id="g3016"
           style="fill:rgb(0%,0%,0%);fill-opacity:1;">
          <use
             id="use3018"
             y="134.765"
             x="223.432"
             xlink:href="#textext-54abf235-1" />
        </g>
      </g>
    </g>
  </g>
</svg>
