<?xml version="1.0" encoding="UTF-8" standalone="no"?>
<!-- Created with Inkscape (http://www.inkscape.org/) -->

<svg
   xmlns:dc="http://purl.org/dc/elements/1.1/"
   xmlns:cc="http://creativecommons.org/ns#"
   xmlns:rdf="http://www.w3.org/1999/02/22-rdf-syntax-ns#"
   xmlns:svg="http://www.w3.org/2000/svg"
   xmlns="http://www.w3.org/2000/svg"
   xmlns:sodipodi="http://sodipodi.sourceforge.net/DTD/sodipodi-0.dtd"
   xmlns:inkscape="http://www.inkscape.org/namespaces/inkscape"
   id="svg2"
   version="1.1"
   inkscape:version="0.48.3.1 r9886"
   width="744.09448"
   height="1052.3622"
   xml:space="preserve"
   sodipodi:docname="repdoglikeblink.svg"><metadata
     id="metadata8"><rdf:RDF><cc:Work
         rdf:about=""><dc:format>image/svg+xml</dc:format><dc:type
           rdf:resource="http://purl.org/dc/dcmitype/StillImage" /><dc:title></dc:title></cc:Work></rdf:RDF></metadata><defs
     id="defs6" /><sodipodi:namedview
     pagecolor="#ffffff"
     bordercolor="#666666"
     borderopacity="1"
     objecttolerance="10"
     gridtolerance="10"
     guidetolerance="10"
     inkscape:pageopacity="0"
     inkscape:pageshadow="2"
     inkscape:window-width="1855"
     inkscape:window-height="1056"
     id="namedview4"
     showgrid="false"
     inkscape:zoom="1.7336223"
     inkscape:cx="399.67006"
     inkscape:cy="738.43611"
     inkscape:window-x="65"
     inkscape:window-y="24"
     inkscape:window-maximized="1"
     inkscape:current-layer="g10"
     inkscape:snap-global="true"
     inkscape:snap-bbox="true"
     inkscape:snap-object-midpoints="true"
     inkscape:snap-center="true"
     inkscape:snap-midpoints="true"
     inkscape:snap-smooth-nodes="true"
     inkscape:snap-nodes="true"
     inkscape:object-paths="true" /><g
     id="g10"
     inkscape:groupmode="layer"
     inkscape:label="dog-eps-converted-to"
     transform="matrix(1.25,0,0,-1.25,0,1052.3622)"><path
       inkscape:connector-curvature="0"
       id="path118"
       style="fill:none;stroke:#000000;stroke-width:2;stroke-linecap:butt;stroke-linejoin:miter;stroke-miterlimit:10;stroke-opacity:1;stroke-dasharray:none"
       d="m 396.44628,646.65468 c -15.6785,14.10752 -26.8379,31.96502 -31.068,55.5324"
       sodipodi:nodetypes="cc" /><path
       inkscape:connector-curvature="0"
       id="path120"
       style="fill:none;stroke:#000000;stroke-width:2;stroke-linecap:butt;stroke-linejoin:miter;stroke-miterlimit:10;stroke-opacity:1;stroke-dasharray:none"
       d="m 396.39428,646.75038 c -3.59212,47.69504 -23.38732,49.97095 -31.071,55.5337"
       sodipodi:nodetypes="cc" /><path
       inkscape:connector-curvature="0"
       id="path122"
       style="fill:none;stroke:#000000;stroke-width:2;stroke-linecap:butt;stroke-linejoin:miter;stroke-miterlimit:10;stroke-opacity:1;stroke-dasharray:none"
       d="m 396.39428,646.75038 c -14.94506,47.22189 -29.0388,53.01475 -31.071,55.5337"
       sodipodi:nodetypes="cc" /><path
       inkscape:connector-curvature="0"
       id="path124"
       style="fill:none;stroke:#000000;stroke-width:2;stroke-linecap:butt;stroke-linejoin:miter;stroke-miterlimit:10;stroke-opacity:1;stroke-dasharray:none"
       d="m 396.44628,646.65468 c -10.353,18.5097 -20.712,37.0203 -31.068,55.5324" /><path
       inkscape:connector-curvature="0"
       id="path126"
       style="fill:none;stroke:#808080;stroke-width:2;stroke-linecap:butt;stroke-linejoin:miter;stroke-miterlimit:10;stroke-opacity:1;stroke-dasharray:none"
       d="m 443.75828,695.13808 -46.932,-48.7096" /><path
       inkscape:connector-curvature="0"
       id="path128"
       style="fill:none;stroke:#808080;stroke-width:2;stroke-linecap:butt;stroke-linejoin:miter;stroke-miterlimit:10;stroke-opacity:1;stroke-dasharray:none"
       d="m 452.33728,685.37688 -55.712,-39.1183" /><path
       inkscape:connector-curvature="0"
       id="path130"
       style="fill:none;stroke:#808080;stroke-width:2;stroke-linecap:butt;stroke-linejoin:miter;stroke-miterlimit:10;stroke-opacity:1;stroke-dasharray:none"
       d="m 448.57728,690.39368 -51.995,-44.1765" /><path
       inkscape:connector-curvature="0"
       id="path138"
       style="fill:none;stroke:#000000;stroke-width:2;stroke-linecap:butt;stroke-linejoin:miter;stroke-miterlimit:10;stroke-opacity:1;stroke-dasharray:none"
       d="m 396.37528,647.37028 c 1.701,21.2488 7.738,42.0234 19.525,62.1728" /><path
       inkscape:connector-curvature="0"
       id="path140"
       style="fill:none;stroke:#000000;stroke-width:2;stroke-linecap:butt;stroke-linejoin:miter;stroke-miterlimit:10;stroke-opacity:1;stroke-dasharray:none"
       d="m 396.41028,647.47688 c 24.78091,35.17534 19.26353,52.14814 19.525,62.1722"
       sodipodi:nodetypes="cc" /><path
       inkscape:connector-curvature="0"
       id="path142"
       style="fill:none;stroke:#000000;stroke-width:2;stroke-linecap:butt;stroke-linejoin:miter;stroke-miterlimit:10;stroke-opacity:1;stroke-dasharray:none"
       d="m 396.41128,647.47658 c 7.39507,20.61324 15.44885,41.14414 19.523,62.1725"
       sodipodi:nodetypes="cc" /><path
       inkscape:connector-curvature="0"
       id="path148"
       style="fill:none;stroke:#000000;stroke-width:2;stroke-linecap:butt;stroke-linejoin:miter;stroke-miterlimit:10;stroke-opacity:1;stroke-dasharray:none"
       d="m 421.09171,615.03088 c -4.00754,25.40637 -20.23964,28.12751 -25.666,32.0152"
       sodipodi:nodetypes="cc" /><path
       inkscape:connector-curvature="0"
       id="path150"
       style="fill:none;stroke:#000000;stroke-width:2;stroke-linecap:butt;stroke-linejoin:miter;stroke-miterlimit:10;stroke-opacity:1;stroke-dasharray:none"
       d="m 421.09271,615.03088 c -5.93574,11.54504 -15.18566,21.98536 -25.667,32.0152"
       sodipodi:nodetypes="cc" /><path
       inkscape:connector-curvature="0"
       id="path162"
       style="fill:none;stroke:#808080;stroke-width:2;stroke-linecap:butt;stroke-linejoin:miter;stroke-miterlimit:2.61313009;stroke-opacity:1;stroke-dasharray:none"
       d="m 401.29226,611.14764 c -0.15307,9.33651 -2.99528,22.25853 -4.80855,33.80864 l -4.83222,-33.80864"
       sodipodi:nodetypes="ccc" /><path
       inkscape:connector-curvature="0"
       id="path164"
       style="fill:none;stroke:#808080;stroke-width:2;stroke-linecap:butt;stroke-linejoin:miter;stroke-miterlimit:2.61313009;stroke-opacity:1;stroke-dasharray:none"
       d="m 396.62432,610.97071 -0.15358,35.14217 -11.44689,-33.33048"
       sodipodi:nodetypes="ccc" /><path
       inkscape:connector-curvature="0"
       id="path166"
       style="fill:none;stroke:#808080;stroke-width:2;stroke-linecap:butt;stroke-linejoin:miter;stroke-miterlimit:2.61313009;stroke-opacity:1;stroke-dasharray:none"
       d="m 406.63022,612.34459 -10.66951,33.51679 c -4.924,-10.80775 -10.31075,-21.35843 -17.97457,-30.64406"
       sodipodi:nodetypes="ccc" /><path
       inkscape:connector-curvature="0"
       id="path168"
       style="fill:none;stroke:#808080;stroke-width:2;stroke-linecap:butt;stroke-linejoin:miter;stroke-miterlimit:2.61313009;stroke-opacity:1;stroke-dasharray:none"
       d="M 395.96071,645.86138 411.36813,614.0755"
       sodipodi:nodetypes="cc" /><path
       inkscape:connector-curvature="0"
       id="path184"
       style="fill:none;stroke:#000000;stroke-width:2;stroke-linecap:butt;stroke-linejoin:miter;stroke-miterlimit:2.61313009;stroke-opacity:1;stroke-dasharray:none"
       d="m 396.47071,646.11288 c 116.895,-10.6593 -24.681,-74.4574 -30.805,-25.8851" /><path
       inkscape:connector-curvature="0"
       id="path186"
       style="fill:none;stroke:#000000;stroke-width:2;stroke-linecap:butt;stroke-linejoin:miter;stroke-miterlimit:2.61313009;stroke-opacity:1;stroke-dasharray:none"
       d="m 396.47071,646.11288 c 75.542,28.0176 80.824,-40.0839 11.333,-50.41246 -72.033,-10.70625 -61.854,51.88746 -10.808,50.89886" /><path
       inkscape:connector-curvature="0"
       id="path146"
       style="fill:none;stroke:#000000;stroke-width:2;stroke-linecap:butt;stroke-linejoin:miter;stroke-miterlimit:10;stroke-opacity:1;stroke-dasharray:none"
       d="m 421.13471,614.97508 c -10.516,8.3425 -19.262,18.7855 -25.665,32.016" /><path
       inkscape:connector-curvature="0"
       id="path156"
       style="fill:none;stroke:#000000;stroke-width:2;stroke-linecap:butt;stroke-linejoin:miter;stroke-miterlimit:10;stroke-opacity:1;stroke-dasharray:none"
       d="m 365.66571,620.22778 c 5.91012,12.48535 14.62618,22.72008 31.323,26.509"
       sodipodi:nodetypes="cc" /><path
       inkscape:connector-curvature="0"
       id="path158"
       style="fill:none;stroke:#000000;stroke-width:2;stroke-linecap:butt;stroke-linejoin:miter;stroke-miterlimit:10;stroke-opacity:1;stroke-dasharray:none"
       d="m 365.71971,620.27268 c 23.73043,10.07191 27.54773,21.24095 31.322,26.5082"
       sodipodi:nodetypes="cc" /><path
       inkscape:connector-curvature="0"
       id="path160"
       style="fill:none;stroke:#000000;stroke-width:2;stroke-linecap:butt;stroke-linejoin:miter;stroke-miterlimit:10;stroke-opacity:1;stroke-dasharray:none"
       d="m 365.72071,620.27078 c 9.54322,9.73381 19.82273,18.73133 31.321,26.5101"
       sodipodi:nodetypes="cc" /><path
       d="m 368.00106,618.69295 c -0.90281,-1.1864 -2.59796,-1.4156 -3.78541,-0.5111 -1.18536,0.90281 -1.41477,2.59732 -0.51197,3.78395 0.90282,1.18659 2.59797,1.41475 3.78544,0.51109 1.18747,-0.90282 1.41476,-2.59733 0.51194,-3.78394"
       style="fill:#231f20;fill-opacity:1;fill-rule:evenodd;stroke:none"
       id="path3861-6-2-5-5-7"
       inkscape:connector-curvature="0" /><path
       d="m 423.19992,613.64592 c -0.90281,-1.1864 -2.59796,-1.4156 -3.78541,-0.5111 -1.18536,0.90281 -1.41477,2.59732 -0.51197,3.78395 0.90282,1.18659 2.59797,1.41475 3.78544,0.51109 1.18747,-0.90282 1.41476,-2.59733 0.51194,-3.78394"
       style="fill:#231f20;fill-opacity:1;fill-rule:evenodd;stroke:none"
       id="path3861-6-2-5-5-7-0"
       inkscape:connector-curvature="0" /><path
       d="m 398.87666,644.87509 c -1.23065,-1.61723 -3.54138,-1.92966 -5.16004,-0.6967 -1.61581,1.23066 -1.92852,3.54051 -0.69788,5.15805 1.23067,1.61749 3.54139,1.9285 5.16008,0.69669 1.61869,-1.23067 1.92851,-3.54053 0.69784,-5.15804"
       style="fill:#231f20;fill-opacity:1;fill-rule:evenodd;stroke:none"
       id="path3861-6-2-5-5-7-0-8"
       inkscape:connector-curvature="0" /><path
       inkscape:connector-curvature="0"
       id="path182-8-2"
       style="fill:#231f20;fill-opacity:1;fill-rule:evenodd;stroke:none"
       d="m 379.72606,614.08238 c -0.6907,-0.90766 -1.98758,-1.08301 -2.89604,-0.39102 -0.90686,0.6907 -1.08237,1.98709 -0.39168,2.89492 0.6907,0.90781 1.98758,1.08236 2.89606,0.39101 0.90847,-0.6907 1.08236,-1.98709 0.39166,-2.89491" /><path
       inkscape:connector-curvature="0"
       id="path182-8-2-8"
       style="fill:#231f20;fill-opacity:1;fill-rule:evenodd;stroke:none"
       d="m 386.73385,611.72388 c -0.6907,-0.90766 -1.98758,-1.08301 -2.89604,-0.39102 -0.90686,0.6907 -1.08237,1.98709 -0.39168,2.89492 0.6907,0.90781 1.98758,1.08236 2.89606,0.39101 0.90847,-0.6907 1.08236,-1.98709 0.39166,-2.89491" /><path
       inkscape:connector-curvature="0"
       id="path182-8-2-8-3"
       style="fill:#231f20;fill-opacity:1;fill-rule:evenodd;stroke:none"
       d="m 393.31046,610.00325 c -0.6907,-0.90766 -1.98758,-1.08301 -2.89604,-0.39102 -0.90686,0.6907 -1.08237,1.98709 -0.39168,2.89492 0.6907,0.90781 1.98758,1.08236 2.89606,0.39101 0.90847,-0.6907 1.08236,-1.98709 0.39166,-2.89491" /><path
       inkscape:connector-curvature="0"
       id="path182-8-2-8-3-6"
       style="fill:#231f20;fill-opacity:1;fill-rule:evenodd;stroke:none"
       d="m 398.26692,609.95043 c -0.6907,-0.90766 -1.98758,-1.08301 -2.89604,-0.39102 -0.90686,0.6907 -1.08237,1.98709 -0.39168,2.89492 0.6907,0.90781 1.98758,1.08236 2.89606,0.39101 0.90847,-0.6907 1.08236,-1.98709 0.39166,-2.89491" /><path
       inkscape:connector-curvature="0"
       id="path182-8-2-8-3-6-1"
       style="fill:#231f20;fill-opacity:1;fill-rule:evenodd;stroke:none"
       d="m 402.93587,609.89581 c -0.6907,-0.90766 -1.98758,-1.08301 -2.89604,-0.39102 -0.90686,0.6907 -1.08237,1.98709 -0.39168,2.89492 0.6907,0.90781 1.98758,1.08236 2.89606,0.39101 0.90847,-0.6907 1.08236,-1.98709 0.39166,-2.89491" /><path
       inkscape:connector-curvature="0"
       id="path182-8-2-8-3-6-1-2"
       style="fill:#231f20;fill-opacity:1;fill-rule:evenodd;stroke:none"
       d="m 408.27383,611.09276 c -0.6907,-0.90766 -1.98758,-1.08301 -2.89604,-0.39102 -0.90686,0.6907 -1.08237,1.98709 -0.39168,2.89492 0.6907,0.90781 1.98758,1.08236 2.89606,0.39101 0.90847,-0.6907 1.08236,-1.98709 0.39166,-2.89491" /><path
       inkscape:connector-curvature="0"
       id="path182-8-2-8-3-6-1-2-9"
       style="fill:#231f20;fill-opacity:1;fill-rule:evenodd;stroke:none"
       d="m 412.92162,613.0096 c -0.6907,-0.90766 -1.98758,-1.08301 -2.89604,-0.39102 -0.90686,0.6907 -1.08237,1.98709 -0.39168,2.89492 0.6907,0.90781 1.98758,1.08236 2.89606,0.39101 0.90847,-0.6907 1.08236,-1.98709 0.39166,-2.89491" /><path
       d="m 418.0746,707.40172 c -0.90281,-1.1864 -2.59796,-1.4156 -3.78541,-0.5111 -1.18536,0.90281 -1.41477,2.59732 -0.51197,3.78395 0.90282,1.18659 2.59797,1.41475 3.78544,0.51109 1.18747,-0.90282 1.41476,-2.59733 0.51194,-3.78394"
       style="fill:#231f20;fill-opacity:1;fill-rule:evenodd;stroke:none"
       id="path3861-6-2-5-5-7-0-1"
       inkscape:connector-curvature="0" /><path
       d="m 367.47164,700.64781 c -0.90281,-1.1864 -2.59796,-1.4156 -3.78541,-0.5111 -1.18536,0.90281 -1.41477,2.59732 -0.51197,3.78395 0.90282,1.18659 2.59797,1.41475 3.78544,0.51109 1.18747,-0.90282 1.41476,-2.59733 0.51194,-3.78394"
       style="fill:#231f20;fill-opacity:1;fill-rule:evenodd;stroke:none"
       id="path3861-6-2-5-5-7-0-1-0"
       inkscape:connector-curvature="0" /><path
       d="m 445.10877,692.67372 c -0.90281,-1.1864 -2.59796,-1.4156 -3.78541,-0.5111 -1.18536,0.90281 -1.41477,2.59732 -0.51197,3.78395 0.90282,1.18659 2.59797,1.41475 3.78544,0.51109 1.18747,-0.90282 1.41476,-2.59733 0.51194,-3.78394"
       style="fill:#231f20;fill-opacity:1;fill-rule:evenodd;stroke:none"
       id="path3861-6-2-5-5-7-0-1-7"
       inkscape:connector-curvature="0" /><path
       d="m 449.83222,688.75482 c -0.90281,-1.1864 -2.59796,-1.4156 -3.78541,-0.5111 -1.18536,0.90281 -1.41477,2.59732 -0.51197,3.78395 0.90282,1.18659 2.59797,1.41475 3.78544,0.51109 1.18747,-0.90282 1.41476,-2.59733 0.51194,-3.78394"
       style="fill:#231f20;fill-opacity:1;fill-rule:evenodd;stroke:none"
       id="path3861-6-2-5-5-7-0-1-7-4"
       inkscape:connector-curvature="0" /><path
       d="m 454.25673,683.57988 c -0.90281,-1.1864 -2.59796,-1.4156 -3.78541,-0.5111 -1.18536,0.90281 -1.41477,2.59732 -0.51197,3.78395 0.90282,1.18659 2.59797,1.41475 3.78544,0.51109 1.18747,-0.90282 1.41476,-2.59733 0.51194,-3.78394"
       style="fill:#231f20;fill-opacity:1;fill-rule:evenodd;stroke:none"
       id="path3861-6-2-5-5-7-0-1-7-8"
       inkscape:connector-curvature="0" /></g></svg>