<?xml version="1.0" encoding="UTF-8" standalone="no"?>
<!-- Created with Inkscape (http://www.inkscape.org/) -->

<svg
   xmlns:ns0="http://www.iki.fi/pav/software/textext/"
   xmlns:dc="http://purl.org/dc/elements/1.1/"
   xmlns:cc="http://creativecommons.org/ns#"
   xmlns:rdf="http://www.w3.org/1999/02/22-rdf-syntax-ns#"
   xmlns:svg="http://www.w3.org/2000/svg"
   xmlns="http://www.w3.org/2000/svg"
   xmlns:xlink="http://www.w3.org/1999/xlink"
   xmlns:sodipodi="http://sodipodi.sourceforge.net/DTD/sodipodi-0.dtd"
   xmlns:inkscape="http://www.inkscape.org/namespaces/inkscape"
   width="744.09448819"
   height="1052.3622047"
   id="svg3778"
   version="1.1"
   inkscape:version="0.48.3.1 r9886"
   sodipodi:docname="ribbonmove.svg">
  <sodipodi:namedview
     id="base"
     pagecolor="#ffffff"
     bordercolor="#666666"
     borderopacity="1.0"
     inkscape:pageopacity="0.0"
     inkscape:pageshadow="2"
     inkscape:zoom="2.3934983"
     inkscape:cx="254.22409"
     inkscape:cy="832.51642"
     inkscape:document-units="px"
     inkscape:current-layer="layer1"
     showgrid="false"
     inkscape:window-width="1855"
     inkscape:window-height="1056"
     inkscape:window-x="65"
     inkscape:window-y="24"
     inkscape:window-maximized="1" />
  <defs
     id="defs3780" />
  <metadata
     id="metadata3783">
    <rdf:RDF>
      <cc:Work
         rdf:about="">
        <dc:format>image/svg+xml</dc:format>
        <dc:type
           rdf:resource="http://purl.org/dc/dcmitype/StillImage" />
        <dc:title />
      </cc:Work>
    </rdf:RDF>
  </metadata>
  <g
     inkscape:label="Layer 1"
     inkscape:groupmode="layer"
     id="layer1">
    <g
       id="g3151">
      <path
         id="path78"
         style="fill:none;stroke:#000000;stroke-width:2.2460146;stroke-linecap:round;stroke-linejoin:miter;stroke-miterlimit:10;stroke-opacity:1;stroke-dasharray:none"
         d="m 127.11755,229.04468 2.66574,-6.7212 m 0,0 3.15847,-5.88736 m 0,0 3.5122,-5.10407 m 0,0 3.79015,-4.3713 m 0,0 3.94176,-3.70172 m 0,0 3.96702,-3.09529 m 0,0 3.90385,-2.52676 m 0,0 3.70172,-2.02142 m 0,0 3.4364,-1.56659 m 0,0 3.13319,-1.13705 m 0,0 2.82998,-0.73276 m 0,0 2.5394,-0.34111 m 0,0 2.24882,0.0378 m 0,0 1.93298,0.37902 m 0,0 1.64239,0.73276 m 0,0 1.33919,1.03598 m 0,0 1.04861,1.32655 m 0,0 0.72013,1.56659 m 0,0 0.39164,1.69294 m 0,0 0.0253,1.78137 m 0,0 -0.32848,1.78137 m 0,0 -0.73276,1.70556 m 0,0 -1.13704,1.55397 m 0,0 -1.57923,1.32655 m 0,0 -1.99615,1.03597 m 0,0 -2.40043,0.69486 m 0,0 -2.74154,0.29058 m 0,0 -3.03212,-0.15161 m 0,0 -3.25953,-0.64432 m 0,0 -3.4364,-1.17495 m 0,0 -3.56274,-1.76873 m 0,0 -3.63854,-2.41307 m -5.19251,-3.89122 -3.28479,-3.53747 m 0,0 -2.55204,-2.85524 m 0,0 -2.03405,-2.5015 m 0,0 -1.6803,-2.45097 m 0,0 -1.54132,-2.71627 m 0,0 -1.61713,-3.29743 m 0,0 -1.85719,-4.20707 m 0,0 -2.32462,-5.43254 m 60.21285,28.62826 39.78394,0 m -45.40599,0 10.03126,5.01563 m -4.40921,-5.01563 10.01863,5.01563 m -15.64068,-5.01563 9.91755,-4.9651 m -4.2955,4.9651 9.90493,-4.9651 m 29.87901,4.9651 -10.01863,5.01563 m 15.64068,-5.01563 -10.03126,5.01563 m 4.40921,-5.01563 -9.90493,-4.9651 m 15.52698,4.9651 -9.91755,-4.9651 m 14.57944,33.88394 3.42377,-8.12355 m 0,0 3.92912,-7.03705 m 0,0 4.32077,-6.02634 m 0,0 4.58608,-5.1167 m 0,0 4.72505,-4.27023 m 0,0 4.77559,-3.52484 m 0,0 4.71242,-2.85525 m 0,0 4.51028,-2.27409 m 0,0 4.23233,-1.74347 m 0,0 3.92912,-1.26338 m 0,0 3.58801,-0.75803 m 0,0 3.25953,-0.24004 m 0,0 2.91842,0.24004 m 0,0 2.5394,0.7454 m 0,0 2.17302,1.23811"
         inkscape:connector-curvature="0" />
      <path
         id="path80"
         style="fill:none;stroke:#000000;stroke-width:2.2460146;stroke-linecap:round;stroke-linejoin:miter;stroke-miterlimit:10;stroke-opacity:1;stroke-dasharray:none"
         d="m 295.02119,188.27531 1.794,1.74347 m 0,0 1.38972,2.22355 m 0,0 0.96017,2.58994 m 0,0 0.51799,2.82997 m 0,0 0.0505,2.96896 m 0,0 -0.45481,2.96895 m 0,0 -0.97281,2.82997 m 0,0 -1.51606,2.58994 m 0,0 -2.09721,2.22355 m 0,0 -2.67838,1.73084 m 0,0 -3.22162,1.14968 m 0,0 -3.73962,0.49272 m 0,0 -4.16916,-0.24005 m 0,0 -4.58608,-1.03597 m 0,0 -4.95247,-1.94561 m 0,0 -5.24304,-2.90578 m 0,0 -5.52098,-3.94176 m -16.82826,24.73705 2.67837,-6.73384 m 0,0 3.14582,-5.87473 m 0,0 3.52484,-5.10407 m 0,0 3.79015,-4.3713 m 0,0 3.92912,-3.70171 m 0,0 3.97966,-3.09529 m 0,0 3.89122,-2.52677 m 0,0 3.71435,-2.02141 m 0,0 3.4364,-1.5666 m 0,0 3.13319,-1.13704 m 0,0 2.82998,-0.73277 m 0,0 2.5394,-0.34111 m 0,0 2.23619,0.0378 m 0,0 1.94561,0.37901 m 0,0 1.64239,0.73276 m 0,0 1.33919,1.03598 m 0,0 1.04861,1.32655 m 0,0 0.72013,1.55396 m 0,0 0.37901,1.70557 m 0,0 0.0378,1.78137 m 0,0 -0.34112,1.78137 m 0,0 -0.72013,1.70557 m 0,0 -1.14967,1.55396 m 0,0 -1.5666,1.32655 m 0,0 -2.00878,1.03597 m 0,0 -2.42569,0.65696 m 0,0 -2.79208,0.22741 m 0,0 -3.13319,-0.29058 m 0,0 -3.44904,-0.8591 m 0,0 -3.71434,-1.51606 m 0,0 -3.94176,-2.24882 m 0,0 -4.1439,-3.03212 m -25.15396,26.87216 0.8591,2.22356 m -0.42955,-1.11178 2.45097,-1.11178 m -1.22548,0.55589 1.22548,2.41306 m -0.60643,-1.20021 1.47816,-1.02334 m 0,0 0.87174,1.47816 m 16.22184,-32.91113 -3.08266,-2.41307 m 0,0 -2.40043,-2.02141 m 0,0 -1.9077,-1.94561 m 0,0 -1.61714,-2.16039 m 0,0 -1.49079,-2.66573 m 0,0 -1.57923,-3.46167 m 0,0 -1.85717,-4.56082 m 0,0 -2.31199,-5.95053 m 11.77473,28.51456 -3.23426,-3.14583 m 0,0 -2.51413,-2.58993"
         inkscape:connector-curvature="0" />
      <path
         id="path82"
         style="fill:none;stroke:#000000;stroke-width:2.2460146;stroke-linecap:round;stroke-linejoin:miter;stroke-miterlimit:10;stroke-opacity:1;stroke-dasharray:none"
         d="m 249.77943,194.75646 -2.00878,-2.38779 m 0,0 -1.70556,-2.5015 m 0,0 -1.6045,-2.95632 m 0,0 -1.69293,-3.73961 m 0,0 -2.00878,-4.86403 m 0,0 -2.48887,-6.32955 m -0.27794,56.61221 2.31199,-1.4908 m -1.44026,-54.90663 1.73084,1.49079 m -0.87174,-0.74539 1.16232,-2.22356 m -0.58116,1.11178 2.02141,0.74539 m -1.0107,-0.37901 1.59186,-2.22355 m -0.79593,1.11177 1.66766,0.7454"
         inkscape:connector-curvature="0" />
      <path
         id="path88"
         style="fill:none;stroke:#000000;stroke-width:2.2460146;stroke-linecap:round;stroke-linejoin:miter;stroke-miterlimit:10;stroke-opacity:1;stroke-dasharray:none"
         d="m 327.70491,206.35432 12.7349,19.08972 m -12.21691,6.26638 1.30128,1.66767 m 0,0 1.31392,-2.22356 m 0,0 1.30128,2.22356 m 0,0 2.16039,-2.77945 m 0,0 0.87173,2.22356 m 0,0 1.73084,-2.22356 m 0.44218,0.55589 0.42955,1.66767 m 0.42955,0 2.17302,-1.66767 m -12.67173,0.65696 0,-6.36745 m 12.7349,6.36745 0,-6.36745 m -9.24796,-5.23041 -3.48694,5.23041 m 10.49871,-55.81627 2.17302,-1.66766 m -3.03212,0 0.42955,1.66766 m -2.60257,0 1.73084,-2.22355 m -2.60257,0 0.87173,2.22355 m -3.03212,0.55589 2.16039,-2.77944 m -3.46167,0.55589 1.30128,2.22355 m -2.6152,0 1.31392,-2.22355 m -2.6152,0.55588 1.30128,1.66767 m -1.81927,-2.03405 0,6.36745 m 12.7349,-6.36745 0,6.36745 m -12.7349,31.83726 0,-12.7349 m 12.7349,12.7349 0,-12.7349 m -12.7349,-19.10236 12.7349,19.10236 m 0,-19.10236 -3.71435,5.55889 m -6.10214,9.15953 -2.91841,4.38394 m 12.7349,12.7349 -3.3985,5.09144"
         inkscape:connector-curvature="0" />
      <path
         id="path94"
         style="fill:none;stroke:#000000;stroke-width:2.2460146;stroke-linecap:round;stroke-linejoin:miter;stroke-miterlimit:10;stroke-opacity:1;stroke-dasharray:none"
         d="m 430.74644,171.49758 -3.4364,8.12355 m 0,0 -3.91649,7.03705 m 0,0 -4.32077,6.02634 m 0,0 -4.58608,5.1167 m 0,0 -4.72505,4.27023 m 0,0 -4.77559,3.52484 m 0,0 -4.71242,2.85525 m 0,0 -4.52291,2.26145 m 0,0 -4.23234,1.75611 m 0,0 -3.91648,1.25075 m 0,0 -3.60065,0.75803 m 0,0 -3.25953,0.25267 m 0,0 -2.90578,-0.24004 m 0,0 -2.5394,-0.7454 m 0,0 -2.18565,-1.25075 m 0,0 -1.78137,-1.73083 m 0,0 -1.38972,-2.22356 m 0,0 -0.96017,-2.58993 m 0,0 -0.51799,-2.84261 m 0,0 -0.0505,-2.95632 m 0,0 0.45482,-2.96895 m 0,0 0.97281,-2.82998 m 0,0 1.51606,-2.58993 m 0,0 2.09721,-2.22356 m 0,0 2.67838,-1.73083 m 0,0 3.22162,-1.14968 m 0,0 3.72698,-0.49272 m 0,0 4.1818,0.22741 m 0,0 4.58608,1.0486 m 0,0 4.93983,1.94561 m 0,0 5.25568,2.89315 m 0,0 5.52098,3.95439 m 0.58116,7.39079 3.08265,2.41307 m 0,0 2.40043,2.02141 m 0,0 1.90771,1.94561 m 0,0 1.60449,2.16038 m 0,0 1.50343,2.65311 m 0,0 1.57923,3.46167 m 0,0 1.84454,4.56081 m 0,0 2.31199,5.96317 m -11.7621,-28.52719 3.23426,3.15846 m 0,0 2.51414,2.58993 m 0,0 2.00878,2.3878 m 0,0 1.70556,2.50149 m 0,0 1.6045,2.95632 m 0,0 1.69293,3.73962 m 0,0 2.00878,4.86402 m 0,0 2.5015,6.32955 m -5.50835,-57.30706 -2.66574,6.7212 m 0,0 -3.14582,5.88736 m 0,0 -3.52484,5.10407 m 0,0 -3.79015,4.37131 m 0,0 -3.94176,3.70171 m 0,0 -3.96702,3.08265 m 0,0 -3.90385,2.52677 m 0,0 -3.70172,2.03405 m 0,0 -3.4364,1.56659 m 0,0 -3.13319,1.13705 m 0,0 -2.82998,0.73276 m 0,0 -2.5394,0.34111 m 0,0 -2.24882,-0.0378 m 0,0 -1.93298,-0.37902 m 0,0 -1.64239,-0.73276 m 0,0 -1.33919,-1.03597"
         inkscape:connector-curvature="0" />
      <path
         id="path96"
         style="fill:none;stroke:#000000;stroke-width:2.2460146;stroke-linecap:round;stroke-linejoin:miter;stroke-miterlimit:10;stroke-opacity:1;stroke-dasharray:none"
         d="m 376.63574,206.51856 -1.04861,-1.32655 m 0,0 -0.72013,-1.5666 m 0,0 -0.39165,-1.69293 m 0,0 -0.0253,-1.78137 m 0,0 0.32848,-1.78137 m 0,0 0.73276,-1.70557 m 0,0 1.13704,-1.55396 m 0,0 1.57923,-1.32655 m 0,0 2.00878,-1.03598 m 0,0 2.41306,-0.65696 m 0,0 2.80471,-0.2274 m 0,0 3.13319,0.27794 m 0,0 3.44904,0.87173 m 0,0 3.71435,1.51606 m 0,0 3.94175,2.23619 m 0,0 4.1439,3.03212 m 25.44454,28.79251 -1.73084,-1.4908 m 0.87174,0.7454 -1.16232,2.22355 m 0.58116,-1.11177 -2.02141,-0.7454 m 1.0107,0.37902 -1.59186,2.22355 m 0.79593,-1.11178 -1.66766,-0.74539 m 4.63661,-56.01841 -0.87173,-2.23619 m 0.42955,1.12441 -2.45096,1.11178 m 1.22548,-0.55589 -1.22548,-2.41306 m 0.60642,1.20021 -1.47816,1.02334 m 0,0 -0.87173,-1.49079 m 5.78629,1.49079 -2.31199,1.47816 m 13.18972,26.69528 39.78394,0 m -45.40599,0 10.03126,5.01564 m -4.40921,-5.01564 10.01863,5.01564 m -15.64068,-5.01564 9.91755,-4.96509 m -4.2955,4.96509 9.90493,-4.96509 m 29.87901,4.96509 -10.01863,5.01564 m 15.64068,-5.01564 -10.03126,5.01564 m 4.40921,-5.01564 -9.90493,-4.96509 m 15.52698,4.96509 -9.91756,-4.96509 m 64.50835,-23.66317 -2.66574,6.73383 m 0,0 -3.14582,5.87474 m 0,0 -3.52484,5.10406 m 0,0 -3.79015,4.37131 m 0,0 -3.94176,3.70171 m 0,0 -3.96702,3.09529 m 0,0 -3.90385,2.52677 m 0,0 -3.71435,2.02141 m 0,0 -3.42377,1.5666 m 0,0 -3.13319,1.13704 m 0,0 -2.84261,0.73276 m 0,0 -2.5394,0.34112 m 0,0 -2.23619,-0.0378 m 0,0 -1.93298,-0.37901 m 0,0 -1.64239,-0.72013 m 0,0 -1.35182,-1.04861 m 0,0 -1.03598,-1.32655 m 0,0 -0.73276,-1.55396 m 0,0 -0.37902,-1.70557 m 0,0 -0.038,-1.78137 m 0,0 0.34111,-1.78137 m 0,0 0.73276,-1.69294 m 0,0 1.13705,-1.56659 m 0,0 1.57923,-1.32655 m 0,0 1.99614,-1.03598 m 0,0 2.40043,-0.69486 m 0,0 2.74154,-0.29058 m 0,0 3.03212,0.15161"
         inkscape:connector-curvature="0" />
      <path
         id="path98"
         style="fill:none;stroke:#000000;stroke-width:2.2460146;stroke-linecap:round;stroke-linejoin:miter;stroke-miterlimit:10;stroke-opacity:1;stroke-dasharray:none"
         d="m 505.04601,192.15389 3.25953,0.64433 m 0,0 3.4364,1.17495 m 0,0 3.56274,1.76873 m 0,0 3.63854,2.41306 m 5.17987,3.89122 3.29743,3.41114 m 0,0 2.55204,2.76681 m 0,0 2.02141,2.43833 m 0,0 1.69293,2.43833 m 0,0 1.54133,2.72891 m 0,0 1.61713,3.36059 m 0,0 1.85718,4.29551 m 0,0 2.32462,5.55888"
         inkscape:connector-curvature="0" />
      <text
         id="text100"
         x="545.68909"
         y="200.39117"
         style="font-size:16.84510994px">
        <tspan
           id="tspan102"
           y="200.39117"
           x="545.68909"
           style="font-size:13.98509026px;font-style:italic;font-variant:normal;font-weight:normal;writing-mode:lr-tb;fill:#000000;fill-opacity:1;fill-rule:nonzero;stroke:none;font-family:CMMI10;-inkscape-font-specification:CMMI10">.</tspan>
      </text>
      <g
         id="g4691"
         ns0:preamble=""
         ns0:text="$\\simeq$"
         transform="matrix(1.1046229,0,0,1.1046229,61.636131,52.399686)">
        <defs
           id="defs4693">
          <g
             id="g4695">
            <symbol
               id="textext-a9276b5c-0"
               overflow="visible"
               style="overflow:visible">
              <path
                 id="path4698"
                 d=""
                 style="stroke:none"
                 inkscape:connector-curvature="0" />
            </symbol>
            <symbol
               id="textext-a9276b5c-1"
               overflow="visible"
               style="overflow:visible">
              <path
                 id="path4701"
                 d="m 7.203125,-4.3125 c 0,-0.21875 -0.078125,-0.296875 -0.140625,-0.296875 -0.046875,0 -0.140625,0.03125 -0.140625,0.265625 C 6.875,-3.515625 6.1875,-3.046875 5.53125,-3.046875 c -0.59375,0 -1.078125,-0.359375 -1.59375,-0.75 C 3.40625,-4.21875 2.875,-4.625 2.21875,-4.625 c -0.984375,0 -1.671875,0.875 -1.671875,1.8125 0,0.296875 0.125,0.3125 0.140625,0.3125 0.109375,0 0.140625,-0.203125 0.140625,-0.234375 C 0.875,-3.703125 1.671875,-4.0625 2.21875,-4.0625 c 0.59375,0 1.078125,0.34375 1.59375,0.75 0.53125,0.40625 1.046875,0.8125 1.71875,0.8125 0.984375,0 1.671875,-0.875 1.671875,-1.8125 z M 0.90625,-0.75 c -0.15625,0 -0.359375,0 -0.359375,0.1875 0,0.203125 0.1875,0.203125 0.34375,0.203125 l 5.953125,0 c 0.171875,0 0.359375,0 0.359375,-0.203125 0,-0.1875 -0.1875,-0.1875 -0.359375,-0.1875 z"
                 style="stroke:none"
                 inkscape:connector-curvature="0" />
            </symbol>
          </g>
        </defs>
        <g
           id="textext-a9276b5c-2">
          <g
             id="g4704"
             style="fill:#000000;fill-opacity:1">
            <use
               id="use4706"
               y="134.765"
               x="223.43201"
               xlink:href="#textext-a9276b5c-1"
               width="744.09448"
               height="1052.3622" />
          </g>
        </g>
      </g>
      <g
         transform="matrix(1.1046229,0,0,1.1046229,104.3104,52.399686)"
         ns0:text="$\\simeq$"
         ns0:preamble=""
         id="g4730">
        <defs
           id="defs4732">
          <g
             id="g4734">
            <symbol
               style="overflow:visible"
               overflow="visible"
               id="symbol4736">
              <path
                 inkscape:connector-curvature="0"
                 style="stroke:none"
                 d=""
                 id="path4738" />
            </symbol>
            <symbol
               style="overflow:visible"
               overflow="visible"
               id="symbol4740">
              <path
                 inkscape:connector-curvature="0"
                 style="stroke:none"
                 d="m 7.203125,-4.3125 c 0,-0.21875 -0.078125,-0.296875 -0.140625,-0.296875 -0.046875,0 -0.140625,0.03125 -0.140625,0.265625 C 6.875,-3.515625 6.1875,-3.046875 5.53125,-3.046875 c -0.59375,0 -1.078125,-0.359375 -1.59375,-0.75 C 3.40625,-4.21875 2.875,-4.625 2.21875,-4.625 c -0.984375,0 -1.671875,0.875 -1.671875,1.8125 0,0.296875 0.125,0.3125 0.140625,0.3125 0.109375,0 0.140625,-0.203125 0.140625,-0.234375 C 0.875,-3.703125 1.671875,-4.0625 2.21875,-4.0625 c 0.59375,0 1.078125,0.34375 1.59375,0.75 0.53125,0.40625 1.046875,0.8125 1.71875,0.8125 0.984375,0 1.671875,-0.875 1.671875,-1.8125 z M 0.90625,-0.75 c -0.15625,0 -0.359375,0 -0.359375,0.1875 0,0.203125 0.1875,0.203125 0.34375,0.203125 l 5.953125,0 c 0.171875,0 0.359375,0 0.359375,-0.203125 0,-0.1875 -0.1875,-0.1875 -0.359375,-0.1875 z"
                 id="path4742" />
            </symbol>
          </g>
        </defs>
        <g
           id="g4744">
          <g
             style="fill:#000000;fill-opacity:1"
             id="g4746">
            <use
               height="1052.3622"
               width="744.09448"
               xlink:href="#textext-a9276b5c-1"
               x="223.43201"
               y="134.765"
               id="use4748" />
          </g>
        </g>
      </g>
      <rect
         style="fill:#ffffff;stroke:#ffffff;stroke-width:2;stroke-miterlimit:10;stroke-dasharray:none;stroke-dashoffset:0"
         id="rect3011"
         width="55.540493"
         height="29.838243"
         x="181.39288"
         y="185.28056" />
      <rect
         y="185.28056"
         x="431.39288"
         height="29.838243"
         width="55.540493"
         id="rect3013"
         style="fill:#ffffff;stroke:#ffffff;stroke-width:2;stroke-miterlimit:10;stroke-dasharray:none;stroke-dashoffset:0" />
      <g
         transform="matrix(2.3683039,0,0,2.3683039,-335.44481,-111.12526)"
         ns0:text=" $\\rightleftharpoons$"
         ns0:preamble=""
         id="g3051">
        <defs
           id="defs3053">
          <g
             id="g3055">
            <symbol
               style="overflow:visible"
               overflow="visible"
               id="textext-1d89828a-0">
              <path
                 inkscape:connector-curvature="0"
                 style="stroke:none"
                 d=""
                 id="path3058" />
            </symbol>
            <symbol
               style="overflow:visible"
               overflow="visible"
               id="textext-1d89828a-1">
              <path
                 inkscape:connector-curvature="0"
                 style="stroke:none"
                 d="m 9.125,-2.296875 c 0.21875,0 0.28125,0 0.28125,-0.15625 0,-0.09375 0,-0.09375 -0.1875,-0.21875 C 7.921875,-3.453125 7.453125,-4.578125 7.3125,-4.953125 7.25,-5.078125 7.25,-5.09375 7.09375,-5.09375 c -0.078125,0 -0.203125,0 -0.203125,0.109375 0,0.0625 0.234375,0.71875 0.703125,1.34375 0.21875,0.3125 0.4375,0.5625 0.890625,0.953125 l -7.578125,0 c -0.171875,0 -0.359375,0 -0.359375,0.1875 0,0.203125 0.1875,0.203125 0.359375,0.203125 z"
                 id="path3061" />
            </symbol>
            <symbol
               style="overflow:visible"
               overflow="visible"
               id="textext-1d89828a-2">
              <path
                 inkscape:connector-curvature="0"
                 style="stroke:none"
                 d="m 9.046875,-2.296875 c 0.1875,0 0.359375,0 0.359375,-0.203125 0,-0.1875 -0.171875,-0.1875 -0.359375,-0.1875 l -8.21875,0 c -0.21875,0 -0.28125,0 -0.28125,0.140625 0,0.109375 0.015625,0.125 0.09375,0.171875 1.328125,0.796875 1.765625,1.765625 2.015625,2.359375 0.046875,0.109375 0.0625,0.125 0.21875,0.125 0.0625,0 0.1875,0 0.1875,-0.109375 0,-0.0625 -0.21875,-0.71875 -0.6875,-1.34375 -0.21875,-0.3125 -0.453125,-0.5625 -0.90625,-0.953125 z"
                 id="path3064" />
            </symbol>
          </g>
        </defs>
        <g
           id="textext-1d89828a-3">
          <g
             style="fill:#000000;fill-opacity:1"
             id="g3067">
            <use
               height="1052.3622"
               width="744.09448"
               xlink:href="#textext-1d89828a-1"
               x="223.43201"
               y="133.105"
               id="use3069" />
          </g>
          <g
             style="fill:#000000;fill-opacity:1"
             id="g3071">
            <use
               height="1052.3622"
               width="744.09448"
               xlink:href="#textext-1d89828a-2"
               x="223.43201"
               y="135.09801"
               id="use3073" />
          </g>
        </g>
      </g>
      <g
         id="g3123"
         ns0:preamble=""
         ns0:text=" $\\rightleftharpoons$"
         transform="matrix(2.3683039,0,0,2.3683039,-81.44481,-111.12526)">
        <defs
           id="defs3125">
          <g
             id="g3127">
            <symbol
               id="symbol3129"
               overflow="visible"
               style="overflow:visible">
              <path
                 id="path3131"
                 d=""
                 style="stroke:none"
                 inkscape:connector-curvature="0" />
            </symbol>
            <symbol
               id="symbol3133"
               overflow="visible"
               style="overflow:visible">
              <path
                 id="path3135"
                 d="m 9.125,-2.296875 c 0.21875,0 0.28125,0 0.28125,-0.15625 0,-0.09375 0,-0.09375 -0.1875,-0.21875 C 7.921875,-3.453125 7.453125,-4.578125 7.3125,-4.953125 7.25,-5.078125 7.25,-5.09375 7.09375,-5.09375 c -0.078125,0 -0.203125,0 -0.203125,0.109375 0,0.0625 0.234375,0.71875 0.703125,1.34375 0.21875,0.3125 0.4375,0.5625 0.890625,0.953125 l -7.578125,0 c -0.171875,0 -0.359375,0 -0.359375,0.1875 0,0.203125 0.1875,0.203125 0.359375,0.203125 z"
                 style="stroke:none"
                 inkscape:connector-curvature="0" />
            </symbol>
            <symbol
               id="symbol3137"
               overflow="visible"
               style="overflow:visible">
              <path
                 id="path3139"
                 d="m 9.046875,-2.296875 c 0.1875,0 0.359375,0 0.359375,-0.203125 0,-0.1875 -0.171875,-0.1875 -0.359375,-0.1875 l -8.21875,0 c -0.21875,0 -0.28125,0 -0.28125,0.140625 0,0.109375 0.015625,0.125 0.09375,0.171875 1.328125,0.796875 1.765625,1.765625 2.015625,2.359375 0.046875,0.109375 0.0625,0.125 0.21875,0.125 0.0625,0 0.1875,0 0.1875,-0.109375 0,-0.0625 -0.21875,-0.71875 -0.6875,-1.34375 -0.21875,-0.3125 -0.453125,-0.5625 -0.90625,-0.953125 z"
                 style="stroke:none"
                 inkscape:connector-curvature="0" />
            </symbol>
          </g>
        </defs>
        <g
           id="g3141">
          <g
             id="g3143"
             style="fill:#000000;fill-opacity:1">
            <use
               id="use3145"
               y="133.105"
               x="223.43201"
               xlink:href="#textext-1d89828a-1"
               width="744.09448"
               height="1052.3622" />
          </g>
          <g
             id="g3147"
             style="fill:#000000;fill-opacity:1">
            <use
               id="use3149"
               y="135.09801"
               x="223.43201"
               xlink:href="#textext-1d89828a-2"
               width="744.09448"
               height="1052.3622" />
          </g>
        </g>
      </g>
    </g>
  </g>
</svg>
